<?xml version="1.0" standalone="no"?> 
<!DOCTYPE svg PUBLIC "-//W3C//DTD SVG 1.1//EN" "http://www.w3.org/Graphics/SVG/1.1/DTD/svg11.dtd" >
<svg xmlns="http://www.w3.org/2000/svg">
<defs>
  <font id="mv-basico" horiz-adv-x="141.7">
    <font-face font-family="mv-basico"
      units-per-em="150" ascent="150"
      descent="0" />
    <missing-glyph horiz-adv-x="0" />
    <glyph glyph-name="abrir"
      unicode="&#x61;&#x62;&#x72;&#x69;&#x72;"
      horiz-adv-x="150" d=" M125 112.5H75L62.5 125H25C18.125 125 12.5 119.375 12.5 112.5V37.5C12.5 30.625 18.125 25 25 25H125C131.875 25 137.5 30.625 137.5 37.5V100C137.5 106.875 131.875 112.5 125 112.5z" />
    <glyph glyph-name="acao"
      unicode="&#x61;&#x63;&#x61;&#x6F;"
      horiz-adv-x="150" d=" M87.5 137.5H37.5C30.625125 137.5 25.0625625 131.874875 25.0625625 125L25 25C25 18.125125 30.5625625 12.5 37.4374375 12.5H112.5C119.374875 12.5 125 18.125125 125 25V100L87.5 137.5zM57.8125 26.511375V78.2158125L98.4375 52.363625L57.8125 26.511375zM81.25 93.75V128.125L115.625 93.75H81.25z" />
    <glyph glyph-name="acao_massa"
      unicode="&#x61;&#x63;&#x61;&#x6F;&#x5F;&#x6D;&#x61;&#x73;&#x73;&#x61;"
      horiz-adv-x="150" d=" M86.517375 137.8521875H45.92975C40.349125 137.8521875 35.833625 133.2859375 35.833625 127.7053125L35.78275 46.529875C35.78275 40.94925 40.2981875 36.383 45.878875 36.383H106.81125C112.391875 36.383 116.958125 40.94925 116.958125 46.529875V107.411375L86.517375 137.8521875zM62.4184375 47.75675V89.728L95.3959375 68.742375L62.4184375 47.75675zM81.4439375 102.3379375V130.242L109.348 102.3379375H81.4439375zM94.873625 24.4455V12.507625H24.438125L24.438125 12.507625C17.8453125 12.507625 12.50075 17.8521875 12.50075 24.445V24.4454375V116.9615625H24.438125V24.4455625C24.438125 24.4455625 94.873625 24.4455625 94.873625 24.4455z" />
    <glyph glyph-name="accordion"
      unicode="&#x61;&#x63;&#x63;&#x6F;&#x72;&#x64;&#x69;&#x6F;&#x6E;"
      horiz-adv-x="150" d=" M131.25 131.25V106.25H18.75V131.25H131.25zM18.75 100H131.25V75V18.75H18.75V75V100zM125 75H25V25H125V75z" />
    <glyph glyph-name="acesso_externo"
      unicode="&#x61;&#x63;&#x65;&#x73;&#x73;&#x6F;&#x5F;&#x65;&#x78;&#x74;&#x65;&#x72;&#x6E;&#x6F;"
      horiz-adv-x="150" d=" M87.500875 87.500875H20.0000625C15.8750625 87.500875 12.5 84.125875 12.5 80.0008125V35.00025C12.5 30.8751875 15.8750625 27.5001875 20.0000625 27.5001875H46.250375V20.000125H38.7503125V12.5H68.7506875V20.0000625H61.2505625V27.500125H87.500875C91.6259375 27.500125 95.0009375 30.8751875 95.0009375 35.0001875V80.00075C95.001 84.125875 91.6259375 87.500875 87.500875 87.500875zM87.500875 35.00025H20.0000625V80.0008125H87.500875V35.00025zM132.8975625 136.874875H85.8513125C82.97625 136.874875 80.6239375 134.5225625 80.6239375 131.6475V100.2833125C80.6239375 97.40825 82.97625 95.0559375 85.8513125 95.0559375H104.1470625V89.8285625H98.9196875V84.6011875H119.829125V89.828625H114.60175V95.056H132.8975C135.7725625 95.056 138.124875 97.4083125 138.124875 100.283375V131.6475C138.1249375 134.5225625 135.772625 136.874875 132.8975625 136.874875zM132.8975625 100.2833125H85.8513125V131.6475H132.8975625V100.2833125zM59.925625 106.72625L56.3580625 110.2938125L65.3775 119.288125H42.3389375V94.16425H37.3141875V124.3129375H65.3775625L56.358125 133.3073125L59.925625 136.874875L75 121.8005625L59.925625 106.72625z" />
    <glyph glyph-name="adicionar"
      unicode="&#x61;&#x64;&#x69;&#x63;&#x69;&#x6F;&#x6E;&#x61;&#x72;"
      horiz-adv-x="150" d=" M118.75 68.75H81.25V31.25H68.75V68.75H31.25V81.25H68.75V118.75H81.25V81.25H118.75V68.75z" />
    <glyph glyph-name="adicionar_horario"
      unicode="&#x61;&#x64;&#x69;&#x63;&#x69;&#x6F;&#x6E;&#x61;&#x72;&#x5F;&#x68;&#x6F;&#x72;&#x61;&#x72;&#x69;&#x6F;"
      horiz-adv-x="150" d=" M118.749375 118.7501875V137.5001875H106.249375V118.7501875H87.499375V106.2501875H106.249375V87.5001875H118.749375V106.2501875H137.499375V118.7501875H118.749375zM78.125 106.25V73.4375L106.25 56.750125L101.5625 49.062375L68.75 68.75V106.25H78.125zM137.5 75C137.5 40.499875 109.500125 12.5 74.9374375 12.5C40.4373125 12.5 12.5 40.499875 12.5 75S40.4373125 137.5 74.9374375 137.5C79.2404375 137.5 83.4411875 137.063625 87.49925 136.2369375V123.3626875C83.497625 124.393875 79.32475 125 75 125C47.375125 125 25 102.624875 25 75S47.375125 25 75 25S125 47.375125 125 75C125 79.325125 124.393875 83.498375 123.36275 87.500375H136.2430625C137.064375 83.460625 137.5 79.28125 137.5 75z" />
    <glyph glyph-name="administracao"
      unicode="&#x61;&#x64;&#x6D;&#x69;&#x6E;&#x69;&#x73;&#x74;&#x72;&#x61;&#x63;&#x61;&#x6F;"
      horiz-adv-x="150" d=" M81.25 106.25H68.75L56.25 131.25H93.75L81.25 106.25zM81.25 99.999125H68.75L56.25 31.2500625L75 12.5000625L93.75 31.2491875L81.25 99.999125z" />
    <glyph glyph-name="agenda"
      unicode="&#x61;&#x67;&#x65;&#x6E;&#x64;&#x61;"
      horiz-adv-x="150" d=" M112.5 137.5H43.75C36.875 137.5 31.25 131.875 31.25 125V106.25H12.5V93.75H31.25V81.25H12.5V68.75H31.25V56.25H12.5V43.75H31.25V25C31.25 18.125 36.875 12.5 43.75 12.5H112.5C119.375 12.5 125 18.125 125 25V125C125 131.875 119.375 137.5 112.5 137.5zM112.5 106.25H43.75V125H112.5V106.25z" />
    <glyph glyph-name="agenda_abrir"
      unicode="&#x61;&#x67;&#x65;&#x6E;&#x64;&#x61;&#x5F;&#x61;&#x62;&#x72;&#x69;&#x72;"
      horiz-adv-x="150" d=" M131.25 56.25H106.25L100 62.5H81.25C77.5 62.5 75 59.375 75 56.25L75 18.75C75 15 78.125 12.5 81.25 12.5H131.25C135 12.5 137.5 15.625 137.5 18.75V50C137.5 53.75 134.375 56.25 131.25 56.25zM62.5 75H109.375V126.875C109.375 132.5 104.375 137.5 98.75 137.5H39.375C33.75 137.5 28.75 132.5 28.75 126.875V110.625H12.5V100H28.75V89.375H12.5V78.75H28.75V68.125H12.5V57.5H28.75V41.25C28.75 35.625 33.75 30.625 39.375 30.625H62.5V75zM98.75 126.875V108.125H39.375V126.875H98.75z" />
    <glyph glyph-name="agenda_buscar"
      unicode="&#x61;&#x67;&#x65;&#x6E;&#x64;&#x61;&#x5F;&#x62;&#x75;&#x73;&#x63;&#x61;&#x72;"
      horiz-adv-x="150" d=" M121.875 32.5H119.375L118.75 33.75C121.875 37.5 123.75 41.875 123.75 46.875C123.75 58.125 115 66.875 103.75 66.875S83.75 58.125 83.75 46.875C83.75 35.625 92.5 26.875 103.75 26.875C108.75 26.875 113.125 28.75 116.875 31.875L117.5 31.25V28.75L133.125 13.125L137.5 17.5L121.875 32.5zM103.75 32.5C96.25 32.5 90 38.75 90 46.25S96.25 60 103.75 60S117.5 53.75 117.5 46.25S111.25 32.5 103.75 32.5zM111.875 18.75C109.375 18.125 106.25 17.5 103.125 17.5C86.875 17.5 73.75 30.625 73.75 46.875C73.75 63.125 86.875 76.25 103.125 76.25C111.875 76.25 119.375 72.5 124.375 66.25V125C124.375 131.875 118.75 137.5 111.875 137.5H43.75C36.875 137.5 31.25 131.875 31.25 125V106.25H12.5V93.75H31.25V81.25H12.5V68.75H31.25V56.25H12.5V43.75H31.25V25C31.25 18.125 36.875 12.5 43.75 12.5H112.5C114.375 12.5 116.25 13.125 117.5 13.75L111.875 18.75zM43.75 125H112.5V106.25H43.75V125z" />
    <glyph glyph-name="agenda_cancelar"
      unicode="&#x61;&#x67;&#x65;&#x6E;&#x64;&#x61;&#x5F;&#x63;&#x61;&#x6E;&#x63;&#x65;&#x6C;&#x61;&#x72;"
      horiz-adv-x="150" d=" M69.375 40.625C69.375 62.5 87.5 80.625 109.375 80.625C109.375 80.625 109.375 80.625 109.375 80.625V126.875C109.375 132.5 104.375 137.5 98.75 137.5H39.375C33.75 137.5 28.75 132.5 28.75 126.875V110.625H12.5V100H28.75V89.375H12.5V78.75H28.75V68.125H12.5V57.5H28.75V41.25C28.75 35.625 33.75 30.625 39.375 30.625H62.5H70.625C70 33.75 69.375 36.875 69.375 40.625zM39.375 108.125V126.875H98.75V108.125H39.375zM109.375 68.75C93.75 68.75 81.25 56.25 81.25 40.625S93.75 12.5 109.375 12.5S137.5 25 137.5 40.625S125 68.75 109.375 68.75zM86.875 40.625C86.875 53.125 96.875 63.125 109.375 63.125C114.375 63.125 119.375 61.25 123.125 58.125L91.875 26.875C88.75 30.625 86.875 35.625 86.875 40.625zM109.375 18.125C104.375 18.125 99.375 20 95.625 23.125L126.875 54.375C130 50.625 131.875 45.625 131.875 40.625C131.875 28.125 121.875 18.125 109.375 18.125z" />
    <glyph glyph-name="agenda_confirmar"
      unicode="&#x61;&#x67;&#x65;&#x6E;&#x64;&#x61;&#x5F;&#x63;&#x6F;&#x6E;&#x66;&#x69;&#x72;&#x6D;&#x61;&#x72;"
      horiz-adv-x="150" d=" M109.375 68.75C93.75 68.75 81.25 56.25 81.25 40.625S93.75 12.5 109.375 12.5C125 12.5 137.5 25 137.5 40.625S125 68.75 109.375 68.75zM109.375 18.125C96.875 18.125 86.875 28.125 86.875 40.625S96.875 63.125 109.375 63.125S131.875 53.125 131.875 40.625S121.875 18.125 109.375 18.125zM110.625 55H106.25V38.125L121.25 29.375L123.125 33.125L110.625 40.625V55zM69.375 40.625C69.375 62.5 87.5 80.625 109.375 80.625C109.375 80.625 109.375 80.625 109.375 80.625V126.875C109.375 132.5 104.375 137.5 98.75 137.5H39.375C33.75 137.5 28.75 132.5 28.75 126.875V110.625H12.5V100H28.75V89.375H12.5V78.75H28.75V68.125H12.5V57.5H28.75V41.25C28.75 35.625 33.75 30.625 39.375 30.625H62.5H70.625C70 33.75 69.375 36.875 69.375 40.625zM39.375 108.125V126.875H98.75V108.125H39.375z" />
    <glyph glyph-name="agenda_imprimir"
      unicode="&#x61;&#x67;&#x65;&#x6E;&#x64;&#x61;&#x5F;&#x69;&#x6D;&#x70;&#x72;&#x69;&#x6D;&#x69;&#x72;"
      horiz-adv-x="150" d=" M131.875 56.25H78.125C71.875 56.25 66.25 51.25 66.25 44.375V21.25H81.25V6.25H126.875V21.25H143.75V44.375C143.75 50.625 138.75 56.25 131.875 56.25zM120.625 13.75H90V33.125H120.625V13.75zM131.875 41.25C130 41.25 128.125 42.5 128.125 45.625C128.125 47.5 129.375 49.375 131.875 49.375S136.25 48.125 136.25 45.625C136.25 42.5 135 41.25 131.875 41.25zM128.75 75H83.125V60H128.75V75zM56.25 62.5H75V87.5H118.75V131.25C118.75 138.125 113.125 143.75 106.25 143.75H37.5C30.625 143.75 25 138.125 25 131.25V112.5H6.25V100H25V87.5H6.25V75H25V62.5H6.25V50H25V31.25C25 24.375 30.625 18.75 37.5 18.75H56.25V62.5zM37.5 131.25H106.25V112.5H37.5V131.25z" />
    <glyph glyph-name="agenda_liberar"
      unicode="&#x61;&#x67;&#x65;&#x6E;&#x64;&#x61;&#x5F;&#x6C;&#x69;&#x62;&#x65;&#x72;&#x61;&#x72;"
      horiz-adv-x="150" d=" M53.75 34.375L90.625 71.25L102.5 59.375L125 82.5V125C125 131.875 119.375 137.5 112.5 137.5H43.75C36.875 137.5 31.25 131.875 31.25 125V106.25H12.5V93.75H31.25V81.25H12.5V68.75H31.25V56.25H12.5V43.75H31.25V25C31.25 18.125 36.875 12.5 43.75 12.5H75.625L53.75 34.375zM43.75 125H112.5V106.25H43.75V125zM136.875 50.625L111.875 25.625L99.375 13.125L86.875 25.625L74.375 38.125L86.875 50.625L99.375 38.125L124.375 63.125L136.875 50.625z" />
    <glyph glyph-name="agenda_prosseguir"
      unicode="&#x61;&#x67;&#x65;&#x6E;&#x64;&#x61;&#x5F;&#x70;&#x72;&#x6F;&#x73;&#x73;&#x65;&#x67;&#x75;&#x69;&#x72;"
      horiz-adv-x="150" d=" M106.25 59.375V75L137.5 43.75L106.25 12.5V28.125H75V59.375H106.25zM93.75 18.75H62.5V68.75H93.75V100L125 68.75V125C125 131.875 119.375 137.5 112.5 137.5H43.75C36.875 137.5 31.25 131.875 31.25 125V106.25H12.5V93.75H31.25V81.25H12.5V68.75H31.25V56.25H12.5V43.75H31.25V25C31.25 18.125 36.875 12.5 43.75 12.5H93.75V18.75zM43.75 125H112.5V106.25H43.75V125z" />
    <glyph glyph-name="agenda_rejeitar"
      unicode="&#x61;&#x67;&#x65;&#x6E;&#x64;&#x61;&#x5F;&#x72;&#x65;&#x6A;&#x65;&#x69;&#x74;&#x61;&#x72;"
      horiz-adv-x="150" d=" M92.5 65L83.75 56.25L101.25 38.75L83.75 21.25L92.5 12.5L110 30L127.5 12.5L136.25 21.25L118.75 38.75L136.25 56.25L127.5 65L110 47.5L92.5 65zM70.625 25L83.75 38.125L68.125 53.75L94.375 80L110 64.375L125 79.375V125C125 131.875 119.375 137.5 112.5 137.5H43.75C36.875 137.5 31.25 131.875 31.25 125V106.25H12.5V93.75H31.25V81.25H12.5V68.75H31.25V56.25H12.5V43.75H31.25V25C31.25 18.125 36.875 12.5 43.75 12.5H83.125L70.625 25zM43.75 125H112.5V106.25H43.75V125z" />
    <glyph glyph-name="agrupar"
      unicode="&#x61;&#x67;&#x72;&#x75;&#x70;&#x61;&#x72;"
      horiz-adv-x="150" d=" M43.75 68.74775H68.75V62.49775H37.5V106.2508125H87.5V81.2508125H81.25V100.0008125H43.75V68.74775zM62.49925 81.2496875H112.49925V43.7504375H62.49925V81.2496875zM68.74925 50.0004375H106.24925V74.9996875H68.74925V50.0004375zM131.248875 112.5000625V37.5004375H143.74925V6.2504375H112.49925V18.7504375H37.49925V6.2504375H6.24925V37.5004375H18.749625V112.5000625H6.24925V143.7500625H37.49925V131.2496875H112.49925V143.7500625H143.74925V112.5000625H131.248875zM118.74925 118.7500625H137.49925V137.5000625H118.74925V118.7500625zM31.24925 118.7500625V137.5000625H12.49925V118.7500625H31.24925zM31.24925 31.2504375H12.49925V12.5004375H31.24925V31.2504375zM137.49925 31.2504375H118.74925V12.5004375H137.49925V31.2504375zM124.998875 112.5000625H112.49925V124.9996875H37.49925V112.5000625H24.999625V37.5004375H37.49925V25.0004375H112.49925V37.5004375H124.998875V112.5000625z" />
    <glyph glyph-name="ajuda"
      unicode="&#x61;&#x6A;&#x75;&#x64;&#x61;"
      horiz-adv-x="150" d=" M68.75 37.5H81.25V50H68.75V37.5zM75 137.5C40.625 137.5 12.5 109.375 12.5 75S40.625 12.5 75 12.5S137.5 40.625 137.5 75S109.375 137.5 75 137.5zM75 25C47.5 25 25 47.5 25 75S47.5 125 75 125S125 102.5 125 75S102.5 25 75 25zM75 112.5C61.25 112.5 50 101.25 50 87.5H62.5C62.5 94.375 68.125 100 75 100S87.5 94.375 87.5 87.5C87.5 75 68.75 76.25 68.75 56.25H81.25C81.25 70.625 100 71.875 100 87.5C100 101.25 88.75 112.5 75 112.5z" />
    <glyph glyph-name="alerta"
      unicode="&#x61;&#x6C;&#x65;&#x72;&#x74;&#x61;"
      horiz-adv-x="150" d=" M68.75 56.25H81.25V43.75H68.75V56.25zM68.75 106.25H81.25V68.75H68.75V106.25zM75 137.5C40.625 137.5 12.5 109.375 12.5 75S40.625 12.5 75 12.5C109.375 12.5 137.5 40.625 137.5 75S109.375 137.5 75 137.5zM75 25C47.5 25 25 47.5 25 75S47.5 125 75 125S125 102.5 125 75S102.5 25 75 25z" />
    <glyph glyph-name="alerta_usuario"
      unicode="&#x61;&#x6C;&#x65;&#x72;&#x74;&#x61;&#x5F;&#x75;&#x73;&#x75;&#x61;&#x72;&#x69;&#x6F;"
      horiz-adv-x="150" d=" M62.5 75C76.25 75 87.5 86.25 87.5 100S76.25 125 62.5 125S37.5 113.75 37.5 100S48.75 75 62.5 75zM62.5 62.5C45.625 62.5 12.5 54.375 12.5 37.5V25H112.5V37.5C112.5 54.375 79.375 62.5 62.5 62.5zM118.75 78.75H131.25V66.25H118.75V78.75zM118.75 125H131.25V93.75H118.75V125z" />
    <glyph glyph-name="alimento"
      unicode="&#x61;&#x6C;&#x69;&#x6D;&#x65;&#x6E;&#x74;&#x6F;"
      horiz-adv-x="150" d=" M68.75 93.75H56.25V137.5H43.75V93.75H31.25V137.5H18.75V93.75C18.75 80.5 29.125 69.75 42.1875 68.9375V12.5H57.8125V68.9375C70.875 69.75 81.25 80.5 81.25 93.75V137.5H68.75V93.75zM100 112.5V62.5H115.625V12.5H131.25V137.5C114 137.5 100 123.5 100 112.5z" />
    <glyph glyph-name="alinhar_base"
      unicode="&#x61;&#x6C;&#x69;&#x6E;&#x68;&#x61;&#x72;&#x5F;&#x62;&#x61;&#x73;&#x65;"
      horiz-adv-x="150" d=" M18.75 31.25H131.25V25H18.75V31.25zM81.25 37.5H118.75V93.75H81.25V37.5zM31.25 37.5H68.75V125H31.25V37.5z" />
    <glyph glyph-name="alinhar_direita"
      unicode="&#x61;&#x6C;&#x69;&#x6E;&#x68;&#x61;&#x72;&#x5F;&#x64;&#x69;&#x72;&#x65;&#x69;&#x74;&#x61;"
      horiz-adv-x="150" d=" M118.75 18.750125V131.250125H125V18.750125H118.75zM112.5 81.2500625V118.7500625H56.25V81.2500625H112.5zM112.5 31.250125V68.750125H25V31.250125H112.5z" />
    <glyph glyph-name="alinhar_esquerda"
      unicode="&#x61;&#x6C;&#x69;&#x6E;&#x68;&#x61;&#x72;&#x5F;&#x65;&#x73;&#x71;&#x75;&#x65;&#x72;&#x64;&#x61;"
      horiz-adv-x="150" d=" M25 18.750125V131.250125H31.25V18.750125H25zM93.75 81.2500625V118.7500625H37.5V81.2500625H93.75zM125 31.250125V68.750125H37.5V31.250125H125z" />
    <glyph glyph-name="alinhar_horizontal"
      unicode="&#x61;&#x6C;&#x69;&#x6E;&#x68;&#x61;&#x72;&#x5F;&#x68;&#x6F;&#x72;&#x69;&#x7A;&#x6F;&#x6E;&#x74;&#x61;&#x6C;"
      horiz-adv-x="150" d=" M131.25 71.875H118.75V46.875H81.25V71.875H68.75V31.25H31.25V71.875H18.75V78.125H31.25V118.75H68.75V78.125H81.25V103.125H118.75V78.125H131.25V71.875z" />
    <glyph glyph-name="alinhar_topo"
      unicode="&#x61;&#x6C;&#x69;&#x6E;&#x68;&#x61;&#x72;&#x5F;&#x74;&#x6F;&#x70;&#x6F;"
      horiz-adv-x="150" d=" M18.75 125H131.25V118.75H18.75V125zM81.25 56.25H118.75V112.5H81.25V56.25zM31.25 25H68.75V112.5H31.25V25z" />
    <glyph glyph-name="alinhar_vertical"
      unicode="&#x61;&#x6C;&#x69;&#x6E;&#x68;&#x61;&#x72;&#x5F;&#x76;&#x65;&#x72;&#x74;&#x69;&#x63;&#x61;&#x6C;"
      horiz-adv-x="150" d=" M118.75 31.25H78.125V18.75H71.875V31.25H31.25V68.75H71.875V81.25H46.875V118.75H71.875V131.25H78.125V118.75H103.125V81.25H78.125V68.75H118.75V31.25z" />
    <glyph glyph-name="ambiente"
      unicode="&#x61;&#x6D;&#x62;&#x69;&#x65;&#x6E;&#x74;&#x65;"
      horiz-adv-x="150" d=" M131.25 137.5H18.75C11.875 137.5 6.25 131.875 6.25 125V50C6.25 43.125 11.875 37.5 18.75 37.5H62.5V25H50V12.5H100V25H87.5V37.5H131.25C138.125 37.5 143.75 43.125 143.75 50V125C143.75 131.875 138.125 137.5 131.25 137.5zM131.25 50H18.75V125H131.25V50zM63.75 67.5L43.75 87.5L63.75 107.5L57.5 113.75L31.25 87.5L57.5 61.25L63.75 67.5zM86.25 67.5L106.25 87.5L86.25 107.5L92.5 113.75L118.75 87.5L92.5 61.25L86.25 67.5z" />
    <glyph glyph-name="anexar"
      unicode="&#x61;&#x6E;&#x65;&#x78;&#x61;&#x72;"
      horiz-adv-x="150" d=" M103.125 112.5V40.625C103.125 26.8125 91.9375 15.625 78.125 15.625S53.125 26.8125 53.125 40.625V118.75C53.125 127.375 60.125 134.375 68.75 134.375S84.375 127.375 84.375 118.75V53.125C84.375 49.6875 81.5625 46.875 78.125 46.875S71.875 49.6875 71.875 53.125V112.5H62.5V53.125C62.5 44.5 69.5 37.5 78.125 37.5S93.75 44.5 93.75 53.125V118.75C93.75 132.5625 82.5625 143.75 68.75 143.75S43.75 132.5625 43.75 118.75V40.625C43.75 21.625 59.125 6.25 78.125 6.25S112.5 21.625 112.5 40.625V112.5H103.125z" />
    <glyph glyph-name="animais"
      unicode="&#x61;&#x6E;&#x69;&#x6D;&#x61;&#x69;&#x73;"
      horiz-adv-x="150" d=" M28.125 112.5C36.7544375 112.5 43.75 105.5044375 43.75 96.875S36.7544375 81.25 28.125 81.25S12.5 88.2455625 12.5 96.875S19.4955625 112.5 28.125 112.5zM56.25 137.5C64.8794375 137.5 71.875 130.5044375 71.875 121.875S64.8794375 106.25 56.25 106.25S40.625 113.2455625 40.625 121.875S47.6205625 137.5 56.25 137.5zM93.75 137.5C102.3794375 137.5 109.375 130.5044375 109.375 121.875S102.3794375 106.25 93.75 106.25S78.125 113.2455625 78.125 121.875S85.1205625 137.5 93.75 137.5zM121.875 112.5C130.5044375 112.5 137.5 105.5044375 137.5 96.875S130.5044375 81.25 121.875 81.25S106.25 88.2455625 106.25 96.875S113.2455625 112.5 121.875 112.5zM108.375 63.375C102.9375 69.75 98.375 75.1875 92.875 81.5625C90 84.9375 86.3125 88.3125 81.9375 89.8125C81.25 90.0625 80.5625 90.25 79.875 90.375C78.3125 90.625 76.625 90.625 75 90.625S71.6875 90.625 70.0625 90.3125C69.375 90.1875 68.6875 90 68 89.75C63.625 88.25 60 84.875 57.0625 81.5C51.625 75.125 47.0625 69.6875 41.5625 63.3125C33.375 55.125 23.3125 46.0625 25.1875 33.375C27 27 31.5625 20.6875 39.75 18.875C44.3125 17.9375 58.875 21.625 74.375 21.625H75.5C91 21.625 105.5625 18 110.125 18.875C118.3125 20.6875 122.875 27.0625 124.6875 33.375C126.625 46.125 116.5625 55.1875 108.375 63.375z" />
    <glyph glyph-name="apagar"
      unicode="&#x61;&#x70;&#x61;&#x67;&#x61;&#x72;"
      horiz-adv-x="150" d=" M129.375 137.5H75C68.125 137.5 60 131.875 56.875 125L13.125 25C10 18.125 13.125 12.5 20 12.5H75C81.875 12.5 90 18.125 93.125 25L136.875 125C139.375 131.875 136.25 137.5 129.375 137.5zM80 25H26.25L45 68.75H99.375L80 25z" />
    <glyph glyph-name="arquivar"
      unicode="&#x61;&#x72;&#x71;&#x75;&#x69;&#x76;&#x61;&#x72;"
      horiz-adv-x="150" d=" M62.5 44.375H87.5V38.125H62.5V44.375zM62.5 112.5H87.5V106.25H62.5V112.5zM112.5 137.5H37.5C30.625 137.5 25 131.875 25 125V25C25 18.125 30.625 12.5 37.5 12.5H112.5C119.375 12.5 125 18.125 125 25V125C125 131.875 119.375 137.5 112.5 137.5zM56.25 118.125H93.75V100H56.25V118.125zM93.75 31.875H56.25V50H93.75V31.875zM118.75 71.875H31.25V78.125H118.75C118.75 78.125 118.75 71.875 118.75 71.875z" />
    <glyph glyph-name="arquivo_gerar"
      unicode="&#x61;&#x72;&#x71;&#x75;&#x69;&#x76;&#x6F;&#x5F;&#x67;&#x65;&#x72;&#x61;&#x72;"
      horiz-adv-x="150" d=" M80.2821875 64.401625L84.3498125 71.439L91.892625 68.40975L94.397375 67.4038125L94.7815 70.0801875L95.9346875 78.12425H104.0615H119.2474375H125V100L87.5 137.5H38.0075C31.0935 137.5 25.48 131.9115625 25.4489375 124.9976875L25 25C25 18.125125 30.5625625 12.5 37.4374375 12.5H79.1824375L72.671125 23.7648125L68.5924375 30.820875L75.0125625 35.841375L77.133125 37.499625L75.0125625 39.157875L68.5924375 44.178375L72.671125 51.2344375L80.2821875 64.401625zM81.25 128.125L115.625 93.75H81.25V128.125zM134.8728125 34.4371875C134.9979375 35.437 135.09175 36.43725 135.09175 37.499625S134.9979375 39.56225 134.8728125 40.5620625L141.4665 45.718375C142.0604375 46.1871875 142.2165 47.030625 141.8415 47.7184375L135.591875 58.5308125C135.216875 59.21825 134.3730625 59.4680625 133.6853125 59.21825L125.9045 56.09325C124.2794375 57.3433125 122.52925 58.3744375 120.6230625 59.1556875L119.4355625 67.437C119.32875 68.197625 118.672625 68.7599375 117.9043125 68.74925H105.4043125C104.6230625 68.74925 103.9669375 68.1869375 103.8730625 67.437L102.6855625 59.1556875C100.779375 58.3744375 99.0295625 57.3120625 97.4045 56.09325L89.62325 59.21825C88.9045625 59.499375 88.092 59.21825 87.7170625 58.5308125L81.4670625 47.7184375C81.0608125 47.030625 81.2485 46.1871875 81.8420625 45.718375L88.43575 40.5620625C88.310625 39.56225 88.2171875 38.53075 88.2171875 37.499625S88.310625 35.437 88.43575 34.4371875L81.8420625 29.280875C81.2485 28.8120625 81.0920625 27.968625 81.4670625 27.2808125L87.7170625 16.4684375C88.0920625 15.781 88.935875 15.5311875 89.62325 15.781L97.4045 18.906C99.0295625 17.6559375 100.779375 16.6248125 102.6855625 15.8435625L103.8730625 7.56225C103.966875 6.81225 104.6230625 6.25 105.4043125 6.25H117.9043125C118.6855625 6.25 119.3416875 6.8123125 119.4355625 7.56225L120.6230625 15.8435625C122.52925 16.6248125 124.2794375 17.6871875 125.9045 18.906L133.6853125 15.781C134.404375 15.499875 135.2169375 15.781 135.591875 16.4684375L141.8415 27.2808125C142.2165 27.968625 142.0604375 28.8120625 141.4665 29.280875L134.8728125 34.4371875zM111.6543125 26.562125C105.62325 26.562125 100.7168125 31.4685625 100.7168125 37.499625S105.62325 48.437125 111.6543125 48.437125C117.68575 48.437125 122.5918125 43.5306875 122.5918125 37.499625S117.6856875 26.562125 111.6543125 26.562125z" />
    <glyph glyph-name="assinar"
      unicode="&#x61;&#x73;&#x73;&#x69;&#x6E;&#x61;&#x72;"
      horiz-adv-x="150" d=" M87.5 137.5H37.5C30.625125 137.5 25.0625625 131.874875 25.0625625 125L25 25C25 18.125125 30.5625625 12.5 37.4374375 12.5H112.5C119.374875 12.5 125 18.125125 125 25V100L87.5 137.5zM63.5291875 27.4284375L41.267375 49.69025L46.833 55.2555L63.5291875 38.5593125L105.667125 80.69725L111.232375 75.132L63.5291875 27.4284375zM81.25 93.75V128.125L115.625 93.75H81.25z" />
    <glyph glyph-name="assistente"
      unicode="&#x61;&#x73;&#x73;&#x69;&#x73;&#x74;&#x65;&#x6E;&#x74;&#x65;"
      horiz-adv-x="150" d=" M106.25 137.5H112.5V125H106.25V137.5zM123.75 128.125L132.5 136.875L136.875 132.5L128.125 123.75L123.75 128.125zM124.375 113.125H136.875V106.875H124.375V113.125zM87.5 72.5L83.75 84.375L72.5 87.5L27.5 42.5L27.5 42.5L20 35C18.125 33.125 18.125 30.625 20 29.375L20 29.375L29.375 20C31.25 18.125 33.75 18.125 35 20L35 20L41.875 26.875L41.875 26.875L87.5 72.5zM93.125 93.125L97.5 75.625L106.875 91.25L125 89.375L113.125 103.125L120 120L103.125 113.125L89.375 125L90.625 106.875L75 96.875L93.125 93.125z" />
    <glyph glyph-name="associar"
      unicode="&#x61;&#x73;&#x73;&#x6F;&#x63;&#x69;&#x61;&#x72;"
      horiz-adv-x="150" d=" M62.497875 53.661125L96.3373125 87.5009375H118.747875V118.7498125H87.4990625V96.3369375L53.6619375 62.5001875H31.2490625V31.2513125H62.497875V53.661125z" />
    <glyph glyph-name="atalho"
      unicode="&#x61;&#x74;&#x61;&#x6C;&#x68;&#x6F;"
      horiz-adv-x="150" d=" M119.4441875 124.9999375H36.8045C30.2844375 124.9999375 25.0000625 119.7163125 25.0000625 113.195875V30.5561875C25.0000625 24.0361875 30.2844375 18.7500625 36.8045 18.7500625H119.4441875C125.937125 18.7500625 131.2499375 24.0633125 131.2499375 30.55625V113.1959375C131.2499375 119.68925 125.937125 124.9999375 119.4441875 124.9999375zM101.777125 57.5340625L92.3659375 73.8353125C72.4864375 62.357875 62.243625 47.9625 60.3380625 28.308125C52.836625 50.4830625 53.287 77.2490625 78.822625 97.29325L69.6405 113.19675L113.5399375 101.434L101.777125 57.5340625z" />
    <glyph glyph-name="atalho_login"
      unicode="&#x61;&#x74;&#x61;&#x6C;&#x68;&#x6F;&#x5F;&#x6C;&#x6F;&#x67;&#x69;&#x6E;"
      horiz-adv-x="150" d=" M85 93.75H21.25C16.25 93.75 12.5 90 12.5 85V21.875C12.5 16.25 16.25 12.5 21.25 12.5H84.375C89.375 12.5 93.125 16.875 93.125 21.25V85C93.75 90 89.375 93.75 85 93.75zM71.25 41.875L63.75 54.375C48.75 45.625 40.625 34.375 39.375 19.375C33.75 36.25 33.75 56.875 53.75 71.875L46.875 83.75L80.625 75L71.25 41.875zM69.375 118.75C69.375 125 74.375 130.625 81.25 130.625H96.25V137.5H81.25C70.625 137.5 62.5 129.375 62.5 118.75S70.625 100 81.25 100H96.25V106.875H81.25C75 106.875 69.375 112.5 69.375 118.75zM85 115H115V122.5H85C85 122.5 85 115 85 115zM118.75 137.5H103.75V130.625H118.75C125 130.625 130.625 125.625 130.625 118.75S125 106.875 118.75 106.875H103.75V100H118.75C129.375 100 137.5 108.125 137.5 118.75S129.375 137.5 118.75 137.5z" />
    <glyph glyph-name="atividades"
      unicode="&#x61;&#x74;&#x69;&#x76;&#x69;&#x64;&#x61;&#x64;&#x65;&#x73;"
      horiz-adv-x="150" d=" M118.75 131.25H92.5C90 138.75 83.125 143.75 75 143.75S60 138.75 57.5 131.25H31.25C24.375 131.25 18.75 125.625 18.75 118.75V18.75C18.75 11.875 24.375 6.25 31.25 6.25H118.75C125.625 6.25 131.25 11.875 131.25 18.75V118.75C131.25 125.625 125.625 131.25 118.75 131.25zM75 131.25C78.75 131.25 81.25 128.125 81.25 125S78.75 118.75 75 118.75S68.75 121.875 68.75 125S71.25 131.25 75 131.25zM118.75 18.75H31.25V118.75H43.75V100H106.25V118.75H118.75V18.75zM63.636375 47.44325L48.721625 62.358L43.75 57.386375L63.636375 37.5L106.25 80.1136875L101.2784375 85.08525L63.636375 47.44325z" />
    <glyph glyph-name="atributo"
      unicode="&#x61;&#x74;&#x72;&#x69;&#x62;&#x75;&#x74;&#x6F;"
      horiz-adv-x="150" d=" M67.9688125 74.999625V18.7500625L27.2285625 36.2111875C22.0853125 38.4155625 18.7505625 43.4729375 18.7505625 49.0686875V96.094375L67.9688125 74.999625zM82.0311875 74.999625V18.7500625L122.771375 36.2111875C127.914625 38.4155625 131.249375 43.4729375 131.249375 49.0686875V96.094375L82.0311875 74.999625zM18.7505625 111.024125L75.2596875 87.3689375L131.249375 111.024125L81.2608125 136.02225C77.3225 137.9916875 72.68675 137.991875 68.74825 136.0226875L18.7505625 111.024125z" />
    <glyph glyph-name="atributo_fx"
      unicode="&#x61;&#x74;&#x72;&#x69;&#x62;&#x75;&#x74;&#x6F;&#x5F;&#x66;&#x78;"
      horiz-adv-x="150" d=" M55.151 83.3389375V34.59475L19.8466875 49.7260625C15.3896875 51.6363125 12.4999375 56.018875 12.4999375 60.868V101.6190625L55.151 83.3389375zM67.3370625 83.3389375V34.59475L102.641375 49.7260625C107.098375 51.6363125 109.988125 56.018875 109.988125 60.868V101.6190625L67.3370625 83.3389375zM12.4999375 114.55675L61.469125 94.0578125L109.9881875 114.55675L66.6695625 136.2194375C63.2566875 137.9260625 59.2395 137.92625 55.8265625 136.21975L12.4999375 114.55675zM111.224375 36.3404375L108.35575 24.987875C107.013 19.61675 105.7068125 15.7288125 104.4311875 13.3301875C103.161625 10.9315 101.6663125 9.14925 99.9511875 7.989625C98.23 6.8299375 96.27075 6.250125 94.0735 6.250125C92.6696875 6.250125 91.6443125 6.5186875 90.99125 7.0558125C90.3381875 7.599 90.0146875 8.2215625 90.0146875 8.9356875C90.0146875 9.6070625 90.28325 10.1869375 90.820375 10.6751875C91.3635625 11.1635 92.0776875 11.407625 92.9749375 11.407625C93.707375 11.407625 94.268875 11.2184375 94.653375 10.84C95.037875 10.4676875 95.2331875 9.991625 95.2331875 9.424C95.2331875 8.893 95.111125 8.502375 94.867 8.252125C94.622875 7.99575 94.5008125 7.824875 94.5008125 7.7455625L94.622875 7.593C94.726625 7.513625 94.8486875 7.4709375 94.9890625 7.4709375C95.477375 7.4709375 95.892375 7.6235 96.2403125 7.9286875C97.0948125 8.7038125 97.7356875 9.6376875 98.1629375 10.7363125C98.468125 11.4870625 99.03575 13.4706875 99.8719375 16.68725L104.8768125 36.3405625H101.45875L102.28275 39.2091875C103.5034375 39.190875 104.3945625 39.3434375 104.9560625 39.6669375C105.5115 39.9904375 106.0974375 40.722875 106.70775 41.8641875C108.5205 45.2028125 110.4186875 47.5893125 112.4145625 49.0358125S116.6381875 51.2025625 119.0979375 51.2025625C120.6665625 51.2025625 121.8018125 50.897375 122.5159375 50.2870625S123.5840625 48.88325 123.5840625 47.9066875C123.5840625 47.0705 123.352125 46.40525 122.8821875 45.9108125C122.4121875 45.4103125 121.82625 45.1600625 121.1121875 45.1600625C120.459125 45.1600625 119.922 45.3615 119.49475 45.7704375S118.853875 46.667625 118.853875 47.2353125C118.853875 47.64425 118.99425 48.0715 119.2628125 48.535375C119.5435625 48.9870625 119.677875 49.2983125 119.677875 49.463125C119.677875 49.64625 119.6168125 49.7926875 119.49475 49.9025625C119.3726875 50.0185 119.207875 50.0734375 119.0064375 50.0734375C118.029875 50.0734375 117.035 49.481375 116.0156875 48.3034375C114.3494375 46.368625 113.006625 43.34125 111.987375 39.2091875H115.5579375L114.7034375 36.3405625H111.224375zM120.0500625 38.415625L128.6255 39.8805C130.1696875 37.4390625 131.2683125 34.7535625 131.921375 31.823875C133.526625 34.20425 134.7411875 35.8705 135.5529375 36.82875C136.6515625 38.0921875 137.554875 38.916125 138.269 39.3006875S139.7338750000001 39.8805 140.5273125 39.8805C141.4428125 39.8805 142.138625 39.636375 142.6146875 39.1480625C143.096875 38.65975 143.334875 38.000625 143.334875 37.1644375C143.334875 36.371 143.0968125 35.724 142.6146875 35.229625C142.138625 34.729125 141.534375 34.478875 140.8019375 34.478875C140.2709375 34.478875 139.6728125 34.5765625 139.001375 34.76575C138.33 34.9610625 137.86 35.05875 137.5975625 35.05875C136.907875 35.05875 136.2425625 34.814625 135.6139375 34.3263125C134.7594375 33.636625 133.709625 32.2023125 132.470625 30.0233125C133.8744375 25.09775 134.991375 22.1009375 135.8275625 21.020625C136.315875 20.3919375 136.8163125 20.0745625 137.3229375 20.0745625C137.7501875 20.0745625 138.116375 20.1783125 138.4215625 20.37975C138.8915625 20.727625 139.6239375 21.58825 140.6188125 22.97375L141.5038125 22.4549375C140.05725 20.1173125 138.647375 18.4754375 137.261875 17.541625C136.22425 16.790875 135.1988750000001 16.4125 134.179625 16.4125C133.1236875000001 16.4125 132.2448125 16.6444375 131.555125 17.114375S130.249 18.3473125 129.711875 19.4031875C129.1686875 20.459125 128.5216875 22.162 127.7709375 24.499625C125.8605625 22.0581875 124.3590625 20.276 123.2665625 19.14075C122.180125 18.0176875 121.2768125 17.2791875 120.556625 16.93125C119.8303125 16.583375 119.06125 16.4124375 118.2495 16.4124375C117.395 16.4124375 116.7175 16.6626875 116.223125 17.1631875C115.722625 17.6575625 115.472375 18.2923125 115.472375 19.0675C115.472375 19.9036875 115.7409375 20.593375 116.284125 21.1426875C116.82125 21.692 117.5048125 21.9666875 118.341 21.9666875C118.7865625 21.9666875 119.2870625 21.8324375 119.836375 21.5699375C120.6725625 21.161 121.2585 20.9595625 121.606375 20.9595625C122.0946875 20.9595625 122.521875 21.0633125 122.888125 21.26475C123.3764375 21.508875 123.9989375 22.039875 124.7496875 22.8516875C125.2196875 23.35825 126.0619375 24.4508125 127.282625 26.1170625C125.7140000000001 31.9336875 124.4933125 35.4249375 123.6205 36.5845625C123.052875 37.317 122.33875 37.6831875 121.48425 37.6831875C121.057 37.6831875 120.519875 37.6099375 119.8668125 37.4695625L120.0500625 38.415625z" />
    <glyph glyph-name="atributo_hierarquico"
      unicode="&#x61;&#x74;&#x72;&#x69;&#x62;&#x75;&#x74;&#x6F;&#x5F;&#x68;&#x69;&#x65;&#x72;&#x61;&#x72;&#x71;&#x75;&#x69;&#x63;&#x6F;"
      horiz-adv-x="150" d=" M55.151 83.3389375V34.59475L19.8466875 49.7260625C15.3896875 51.6363125 12.4999375 56.018875 12.4999375 60.868V101.6190625L55.151 83.3389375zM67.3370625 83.3389375V34.59475L102.641375 49.7260625C107.098375 51.6363125 109.988125 56.018875 109.988125 60.868V101.6190625L67.3370625 83.3389375zM12.4999375 114.55675L61.469125 94.0578125L109.9881875 114.55675L66.6695625 136.2194375C63.2566875 137.9260625 59.2395 137.92625 55.8265625 136.21975L12.4999375 114.55675zM131.5038125 20.3236875L122.0185 29.8089375V37.34975C124.76925 38.3456875 126.761125 40.9541875 126.761125 44.036875C126.761125 47.97325 123.5835625 51.1508125 119.6471875 51.1508125C115.7108125 51.1508125 112.5331875 47.97325 112.5331875 44.036875C112.5331875 40.9541875 114.525125 38.3456875 117.2758125 37.34975V29.8089375L107.7905 20.3236875H98.30525V8.4670625H110.161875V15.6995625L119.6471875 25.659125L129.1324375 15.6995625V8.4670625H140.9890625V20.3236875H131.5038125z" />
    <glyph glyph-name="atualizar"
      unicode="&#x61;&#x74;&#x75;&#x61;&#x6C;&#x69;&#x7A;&#x61;&#x72;"
      horiz-adv-x="150" d=" M75 112.5V93.75L100 118.75L75 143.75V125C47.5 125 25 102.5 25 75C25 65 28.125 56.25 32.5 48.125L41.875 57.5C39.375 62.5 37.5 68.75 37.5 75C37.5 95.625 54.375 112.5 75 112.5zM117.5 101.875L108.125 92.5C110.625 87.5 112.5 81.25 112.5 75C112.5 54.375 95.625 37.5 75 37.5V56.25L50 31.25L75 6.25V25C102.5 25 125 47.5 125 75C125 85 121.875 93.75 117.5 101.875z" />
    <glyph glyph-name="auditar"
      unicode="&#x61;&#x75;&#x64;&#x69;&#x74;&#x61;&#x72;"
      horiz-adv-x="150" d=" M102.500125 117.4999375C102.500125 123.1250625 98.1250625 127.5001875 92.499875 127.5001875H71.875C69.374875 133.1249375 64.3749375 137.5 57.5000625 137.5C50.624875 137.5 45.6249375 133.1249375 43.75 127.500125H23.1250625C17.4999375 127.500125 13.1248125 123.1250625 13.1248125 117.499875V48.125C13.1248125 42.499875 17.499875 38.12475 23.1250625 38.12475H71.875V53.125H102.500125V117.4999375zM57.5000625 127.500125C59.999875 127.500125 62.5 125 62.5 122.499875C62.5 120.000125 60.6250625 117.4999375 57.5000625 117.4999375C54.9999375 117.4999375 52.500125 120.0000625 52.500125 122.499875C52.500125 125 54.9999375 127.500125 57.5000625 127.500125zM62.8795625 56.8519375V50H53.3191875V56.9156875C47.2004375 58.22225 41.973875 62.1421875 41.5913125 69.1211875H48.602375C48.9529375 65.3606875 51.534375 62.4286875 58.0994375 62.4286875C65.1425 62.4286875 66.703875 65.934375 66.703875 68.1331875C66.703875 71.0971875 65.1105 73.90175 57.1435 75.8136875C48.25175 77.94875 42.165 81.6139375 42.165 88.9755C42.165 95.1259375 47.1363125 99.1416875 53.3191875 100.48025V107.363875H62.8795625V100.3845C69.54 98.7590625 72.88625 93.7240625 73.1094375 88.2423125H66.066375C65.87525 92.226 63.7718125 94.9348125 58.099375 94.9348125C52.713375 94.9348125 49.4949375 92.512875 49.4949375 89.0391875C49.4949375 86.0114375 51.821125 84.0675 59.0553125 82.18725S74.03375 77.2159375 74.03375 68.1651875C74.03375 61.6321875 69.0940625 58.0310625 62.8795625 56.8519375zM136.875125 38.7500625L111.249875 13.1248125L106.8748125 17.499875L125 35.6250625H86.2499375V41.8750625H125.624875L107.500125 59.9998125L111.8751875 64.374875L136.875125 38.7500625z" />
    <glyph glyph-name="auditar_relatorio"
      unicode="&#x61;&#x75;&#x64;&#x69;&#x74;&#x61;&#x72;&#x5F;&#x72;&#x65;&#x6C;&#x61;&#x74;&#x6F;&#x72;&#x69;&#x6F;"
      horiz-adv-x="150" d=" M102.500125 117.4999375C102.500125 123.1250625 98.1250625 127.5001875 92.499875 127.5001875H71.875C69.374875 133.1249375 64.3749375 137.5 57.5000625 137.5C50.624875 137.5 45.6249375 133.1249375 43.75 127.500125H23.1250625C17.4999375 127.500125 13.1248125 123.1250625 13.1248125 117.499875V48.125C13.1248125 42.499875 17.499875 38.12475 23.1250625 38.12475H81.25V81.25H102.500125V117.4999375zM57.5000625 127.500125C59.999875 127.500125 62.5 125 62.5 122.499875C62.5 120.000125 60.6250625 117.4999375 57.5000625 117.4999375C54.9999375 117.4999375 52.500125 120.0000625 52.500125 122.499875C52.500125 125 54.9999375 127.500125 57.5000625 127.500125zM62.8795625 56.8519375V50H53.3191875V56.9156875C47.2004375 58.22225 41.973875 62.1421875 41.5913125 69.1211875H48.602375C48.9529375 65.3606875 51.534375 62.4286875 58.0994375 62.4286875C65.1425 62.4286875 66.703875 65.934375 66.703875 68.1331875C66.703875 71.0971875 65.1105 73.90175 57.1435 75.8136875C48.25175 77.94875 42.165 81.6139375 42.165 88.9755C42.165 95.1259375 47.1363125 99.1416875 53.3191875 100.48025V107.363875H62.8795625V100.3845C69.54 98.7590625 72.88625 93.7240625 73.1094375 88.2423125H66.066375C65.87525 92.226 63.7718125 94.9348125 58.099375 94.9348125C52.713375 94.9348125 49.4949375 92.512875 49.4949375 89.0391875C49.4949375 86.0114375 51.821125 84.0675 59.0553125 82.18725S74.03375 77.2159375 74.03375 68.1651875C74.03375 61.6321875 69.0940625 58.0310625 62.8795625 56.8519375zM125.12325 24.83475H100.041125V31.1053125H125.12325V24.83475zM125.12325 37.375875H100.041125V43.6464375H125.12325V37.375875zM118.75 74.9990625H93.75C90.3125625 74.9990625 87.5313125 72.1866875 87.5313125 68.7490625L87.5 18.7491875C87.5 15.31175 90.28125 12.4991875 93.7186875 12.4991875H131.2499375C134.687375 12.4991875 137.4999375 15.31175 137.4999375 18.7491875V56.249125L118.75 74.9990625zM131.24975 18.7495625H93.75V68.74875H115.62475L115.625 53.124125L131.2498125 53.12375C131.24975 53.12375 131.24975 18.7495625 131.24975 18.7495625z" />
    <glyph glyph-name="auditoria_aberta"
      unicode="&#x61;&#x75;&#x64;&#x69;&#x74;&#x6F;&#x72;&#x69;&#x61;&#x5F;&#x61;&#x62;&#x65;&#x72;&#x74;&#x61;"
      horiz-adv-x="150" d=" M122.499875 31.874875H120.000125L119.374875 32.500125C122.499875 35.625125 123.7499375 40.0001875 123.7499375 45.000125C123.7499375 55.6251875 115.0001875 64.375 104.3750625 64.375S84.9998125 55.62525 84.9998125 45.000125S93.75 25.624875 104.3750625 25.624875C109.375 25.624875 113.7500625 27.5001875 116.8750625 29.9999375L117.4999375 29.3750625V26.8749375L132.5000625 11.8751875L136.875125 16.249875L122.499875 31.874875zM104.9999375 31.874875C97.499875 31.874875 91.8750625 37.5 91.8750625 45.000125S97.4998125 58.125 104.9999375 58.125S118.1251875 52.50025 118.1251875 45.000125S112.5 31.874875 104.9999375 31.874875zM102.500125 74.375125V118.125125C102.500125 123.749875 98.1250625 128.125 92.499875 128.125H71.875C69.374875 133.1249375 64.3749375 137.5 57.5000625 137.5C51.2500625 137.5 45.6249375 133.1249375 43.75 127.500125H23.1250625C17.4999375 127.500125 13.1248125 123.1250625 13.1248125 117.499875V48.125C13.1248125 42.499875 17.499875 38.12475 23.1250625 38.12475H76.2500625C75.6248125 40.624875 75.6248125 42.4998125 75.6248125 45C75.624875 60.6250625 87.5 73.1250625 102.500125 74.375125zM57.5000625 127.500125C59.999875 127.500125 62.5 125 62.5 122.499875C62.5 120.000125 60.6250625 117.4999375 57.5000625 117.4999375C54.9999375 117.4999375 52.500125 120.0000625 52.500125 122.499875C52.500125 125 54.9999375 127.500125 57.5000625 127.500125zM62.8795625 56.8519375V50H53.3191875V56.9156875C47.2004375 58.22225 41.973875 62.1421875 41.5913125 69.1211875H48.602375C48.9529375 65.3606875 51.534375 62.4286875 58.0994375 62.4286875C65.1425 62.4286875 66.703875 65.934375 66.703875 68.1331875C66.703875 71.0971875 65.1105 73.90175 57.1435 75.8136875C48.25175 77.94875 42.165 81.6139375 42.165 88.9755C42.165 95.1259375 47.1363125 99.1416875 53.3191875 100.48025V107.363875H62.8795625V100.3845C69.54 98.7590625 72.88625 93.7240625 73.1094375 88.2423125H66.066375C65.87525 92.226 63.7718125 94.9348125 58.099375 94.9348125C52.713375 94.9348125 49.4949375 92.512875 49.4949375 89.0391875C49.4949375 86.0114375 51.821125 84.0675 59.0553125 82.18725S74.03375 77.2159375 74.03375 68.1651875C74.03375 61.6321875 69.0940625 58.0310625 62.8795625 56.8519375z" />
    <glyph glyph-name="auditoria_abrir"
      unicode="&#x61;&#x75;&#x64;&#x69;&#x74;&#x6F;&#x72;&#x69;&#x61;&#x5F;&#x61;&#x62;&#x72;&#x69;&#x72;"
      horiz-adv-x="150" d=" M143.75 43.75V12.5C143.75 9.375 141.249875 6.25 137.5 6.25H87.5C84.375 6.25 81.25 8.750125 81.25 12.5V50C81.25 53.125 83.750125 56.25 87.5 56.25H106.25L112.5 50H137.5C140.625 50 143.75 47.499875 143.75 43.75zM68.75 59.01525V38.1248125H23.1250625C17.4999375 38.1248125 13.1248125 42.499875 13.1248125 48.1250625V117.4999375C13.1248125 123.1250625 17.499875 127.5001875 23.1250625 127.5001875H43.75C45.6249375 133.1249375 50.624875 137.5 57.5000625 137.5C64.3749375 137.5 69.374875 133.1249375 71.875 127.500125H92.4999375C98.1250625 127.500125 102.5001875 123.1250625 102.5001875 117.499875V68.75H73.9689375C73.6195 77.3193125 66.1201875 80.350875 59.055375 82.18725C51.8211875 84.0675 49.495 86.0115 49.495 89.0391875C49.495 92.512875 52.7134375 94.9348125 58.0994375 94.9348125C63.771875 94.9348125 65.8753125 92.226 66.0664375 88.2423125H73.1095C72.8863125 93.7240625 69.5400625 98.7590625 62.879625 100.3845V107.363875H53.3191875V100.48025C47.1363125 99.1416875 42.165 95.1259375 42.165 88.9755C42.165 81.613875 48.25175 77.94875 57.1434375 75.813625C65.1104375 73.9016875 66.7038125 71.097125 66.7038125 68.133125C66.7038125 65.9343125 65.1424375 62.428625 58.099375 62.428625C51.53425 62.428625 48.952875 65.360625 48.6023125 69.121125H41.59125C41.973875 62.142125 47.200375 58.222125 53.319125 56.915625V50H62.8795V56.8519375C65.050125 57.2639375 67.04675 57.990625 68.75 59.01525zM52.500125 122.499875C52.500125 120.000125 54.999875 117.4999375 57.5000625 117.4999375C60.6250625 117.4999375 62.5 120.0000625 62.5 122.499875C62.5 125 59.999875 127.500125 57.5000625 127.500125C54.9999375 127.500125 52.500125 125 52.500125 122.499875z" />
    <glyph glyph-name="auditoria_cancelar"
      unicode="&#x61;&#x75;&#x64;&#x69;&#x74;&#x6F;&#x72;&#x69;&#x61;&#x5F;&#x63;&#x61;&#x6E;&#x63;&#x65;&#x6C;&#x61;&#x72;"
      horiz-adv-x="150" d=" M81.874875 53.749875L102.5001875 74.3751875V118.1251875C102.5001875 123.7499375 98.125125 128.1250625 92.4999375 128.1250625H71.875C69.374875 133.1249375 64.3749375 137.5 57.5000625 137.5C51.2500625 137.5 45.6249375 133.1249375 43.75 127.500125H23.1250625C17.4999375 127.500125 13.1248125 123.1250625 13.1248125 117.499875V48.125C13.1248125 42.499875 17.499875 38.12475 23.1250625 38.12475H71.875H90.000125C91.8750625 38.12475 93.75 38.75 95.624875 39.3748125L81.874875 53.749875zM57.5000625 127.500125C59.999875 127.500125 62.5 125 62.5 122.499875C62.5 120.000125 60.6250625 117.4999375 57.5000625 117.4999375C54.9999375 117.4999375 52.500125 120.0000625 52.500125 122.499875C52.500125 125 54.9999375 127.500125 57.5000625 127.500125zM62.8795625 56.8519375V50H53.3191875V56.9156875C47.2004375 58.22225 41.973875 62.1421875 41.5913125 69.1211875H48.602375C48.9529375 65.3606875 51.534375 62.4286875 58.0994375 62.4286875C65.1425 62.4286875 66.703875 65.934375 66.703875 68.1331875C66.703875 71.0971875 65.1105 73.90175 57.1435 75.8136875C48.25175 77.94875 42.165 81.6139375 42.165 88.9755C42.165 95.1259375 47.1363125 99.1416875 53.3191875 100.48025V107.363875H62.8795625V100.3845C69.54 98.7590625 72.88625 93.7240625 73.1094375 88.2423125H66.066375C65.87525 92.226 63.7718125 94.9348125 58.099375 94.9348125C52.713375 94.9348125 49.4949375 92.512875 49.4949375 89.0391875C49.4949375 86.0114375 51.821125 84.0675 59.0553125 82.18725S74.03375 77.2159375 74.03375 68.1651875C74.03375 61.6321875 69.0940625 58.0310625 62.8795625 56.8519375zM137.5 18.75L131.25 12.5L115.625 28.125L99.375125 12.5L93.125125 18.75L108.750125 34.375L93.125125 50L99.375125 56.25L115.000125 40.625L130.625125 56.25L136.875125 50L121.250125 34.375L137.5 18.75z" />
    <glyph glyph-name="auditoria_concluir"
      unicode="&#x61;&#x75;&#x64;&#x69;&#x74;&#x6F;&#x72;&#x69;&#x61;&#x5F;&#x63;&#x6F;&#x6E;&#x63;&#x6C;&#x75;&#x69;&#x72;"
      horiz-adv-x="150" d=" M88.124875 54.3750625C88.750125 54.3750625 95.6249375 47.4998125 100 43.125125C101.8749375 45.0000625 102.500125 48.1250625 102.500125 50.6248125V117.4999375C102.500125 123.1250625 98.1250625 127.5001875 92.499875 127.5001875H71.875C69.374875 133.1249375 64.3749375 137.5 57.5000625 137.5C51.2500625 137.5 45.6249375 133.1249375 43.75 127.500125H23.1250625C17.4999375 127.500125 13.1248125 123.1250625 13.1248125 117.499875V48.125C13.1248125 42.499875 17.499875 38.12475 23.1250625 38.12475H71.875C71.875 38.124875 86.875125 54.3750625 88.124875 54.3750625zM57.5000625 127.500125C59.999875 127.500125 62.5 125 62.5 122.499875C62.5 120.000125 60.6250625 117.4999375 57.5000625 117.4999375C54.9999375 117.4999375 52.500125 120.0000625 52.500125 122.499875C52.500125 125 54.9999375 127.500125 57.5000625 127.500125zM62.8795625 56.8519375V50H53.3191875V56.9156875C47.2004375 58.22225 41.973875 62.1421875 41.5913125 69.1211875H48.602375C48.9529375 65.3606875 51.534375 62.4286875 58.0994375 62.4286875C65.1425 62.4286875 66.703875 65.934375 66.703875 68.1331875C66.703875 71.0971875 65.1105 73.90175 57.1435 75.8136875C48.25175 77.94875 42.165 81.6139375 42.165 88.9755C42.165 95.1259375 47.1363125 99.1416875 53.3191875 100.48025V107.363875H62.8795625V100.3845C69.54 98.7590625 72.88625 93.7240625 73.1094375 88.2423125H66.066375C65.87525 92.226 63.7718125 94.9348125 58.099375 94.9348125C52.713375 94.9348125 49.4949375 92.512875 49.4949375 89.0391875C49.4949375 86.0114375 51.821125 84.0675 59.0553125 82.18725S74.03375 77.2159375 74.03375 68.1651875C74.03375 61.6321875 69.0940625 58.0310625 62.8795625 56.8519375zM136.875125 48.1250625L110.6250625 21.875L101.8749375 13.124875L93.125125 21.875L79.999875 34.999875L88.7500625 43.75L102.500125 30.625125L128.7498125 56.8748125L136.875125 48.1250625z" />
    <glyph glyph-name="auditoria_fechar"
      unicode="&#x61;&#x75;&#x64;&#x69;&#x74;&#x6F;&#x72;&#x69;&#x61;&#x5F;&#x66;&#x65;&#x63;&#x68;&#x61;&#x72;"
      horiz-adv-x="150" d=" M131.25 41.25H128.125V55.625C128.125 64.375 121.25 71.25 112.5 71.25S96.875 64.375 96.875 55.625V41.25H93.75C90.625 41.25 87.5 38.75 87.5 35V12.5C87.5 9.375 90 6.25 93.75 6.25H131.25C134.375 6.25 137.5 8.75 137.5 12.5V35.625C137.5 38.75 135 41.25 131.25 41.25zM112.5 18.125C109.375 18.125 106.25 20.625 106.25 24.375C106.25 27.5 108.75 30.625 112.5 30.625C115.625 30.625 118.75 28.125 118.75 24.375C118.75 20.625 116.25 18.125 112.5 18.125zM102.5 41.25V55.625C102.5 60.625 106.875 65 111.875 65C116.875 65 121.25 60.625 121.25 55.625V41.25H102.5zM102.5 117.5C102.5 123.125 98.125 127.5 92.5 127.5H71.875C68.75 133.125 64.375 137.5 57.5 137.5C51.25 137.5 45.625 133.125 43.75 127.5H23.125C17.5 127.5 12.5 123.125 12.5 117.5V48.125C12.5 42.5 16.875 38.125 22.5 38.125H81.25V81.25H102.5V117.5zM57.5 127.5C59.375 127.5 62.5 125 62.5 122.5C62.5 120 60.625 117.5 57.5 117.5C55 117.5 52.5 120 52.5 122.5C51.875 125 55 127.5 57.5 127.5zM63.125 56.875V50H53.125V56.875C46.875 58.125 41.875 61.875 41.25 69.375H48.125C48.75 65.625 51.25 62.5 58.125 62.5C65 62.5 66.875 66.25 66.875 68.125C66.875 71.25 65 73.75 57.5 75.625C48.75 77.5 42.5 81.25 42.5 88.75C42.5 95 47.5 98.75 53.75 100V107.5H63.125V100.625C70 98.75 73.125 93.75 73.125 88.75H66.25C66.25 92.5 63.75 95.625 58.125 95.625C52.5 95.625 49.375 93.125 49.375 90C49.375 86.875 51.875 85 58.75 83.125S73.75 78.125 73.75 69.375C73.75 61.875 69.375 58.125 63.125 56.875z" />
    <glyph glyph-name="autorizar"
      unicode="&#x61;&#x75;&#x74;&#x6F;&#x72;&#x69;&#x7A;&#x61;&#x72;"
      horiz-adv-x="150" d=" M118.75 131.25H31.25C24.375 131.25 18.75 125.625 18.75 118.75V31.25C18.75 24.375 24.375 18.75 31.25 18.75H118.75C125.625 18.75 131.25 24.375 131.25 31.25V118.75C131.25 125.625 125.625 131.25 118.75 131.25zM62.5 43.75L31.25 75L40 83.75L62.5 61.25L110 108.75L118.75 100L62.5 43.75z" />
    <glyph glyph-name="autorizar_cota"
      unicode="&#x61;&#x75;&#x74;&#x6F;&#x72;&#x69;&#x7A;&#x61;&#x72;&#x5F;&#x63;&#x6F;&#x74;&#x61;"
      horiz-adv-x="150" d=" M131.312375 68.750875H87.4366875C84.061625 68.750875 81.2490625 65.9383125 81.2490625 62.56325V18.6875625C81.249125 15.3125 84.0616875 12.5 87.43675 12.5H131.3124375C134.6874375 12.5 137.5 15.3125 137.5 18.6875625V62.56325C137.5 65.9383125 134.6874375 68.750875 131.312375 68.750875zM103.1869375 24.8751875L87.4366875 40.6254375L91.93675 45.1255L103.1869375 33.8753125L126.8123125 57.5006875L131.312375 53.000625L103.1869375 24.8751875zM75.0020625 75H112.5V100L75 137.5H25C18.125 137.5 12.5 131.875 12.5 125V25C12.5 18.125 18.125 12.5 25 12.5H75.0020625V75zM68.75 128.125L103.125 93.75H68.75V128.125z" />
    <glyph glyph-name="avancar"
      unicode="&#x61;&#x76;&#x61;&#x6E;&#x63;&#x61;&#x72;"
      horiz-adv-x="150" d=" M125 87.5V25H62.5V87.5H125zM31.25 118.75075H75V93.75075H81.25V125.00075H25V68.75075H56.25V75.00075H31.25V118.75075z" />
    <glyph glyph-name="aviso"
      unicode="&#x61;&#x76;&#x69;&#x73;&#x6F;"
      horiz-adv-x="150" d=" M6.25 18.75H143.75L75 137.5L6.25 18.75zM81.25 37.5H68.75V50H81.25V37.5zM81.25 62.5H68.75V87.5H81.25V62.5z" />
    <glyph glyph-name="aviso_visualizar"
      unicode="&#x61;&#x76;&#x69;&#x73;&#x6F;&#x5F;&#x76;&#x69;&#x73;&#x75;&#x61;&#x6C;&#x69;&#x7A;&#x61;&#x72;"
      horiz-adv-x="150" d=" M127.5 26.875H125L124.375 27.5C127.5 31.25 129.375 36.25 129.375 41.25C129.375 52.5 120 61.875 108.75 61.875S87.5 53.125 87.5 41.875C87.5 30.625 96.875 21.25 108.125 21.25C113.125 21.25 118.125 23.125 121.875 26.25L122.5 25.625V23.125L138.75 6.875L143.75 11.875L127.5 26.875zM108.125 26.875C100 26.875 93.75 33.125 93.75 41.25S100 55.625 108.125 55.625S122.5 49.375 122.5 41.25C123.125 33.75 116.25 26.875 108.125 26.875zM79.375 41.875C79.375 58.125 92.5 71.25 108.75 71.25C110.625 71.25 113.125 71.25 115 70.625L71.875 143.75L6.25 30.625H81.25C80 33.75 79.375 37.5 79.375 41.875zM78.125 48.125H66.25V60H78.125V48.125zM78.125 71.875H66.25V108.75H78.125V71.875zM136.25 33.125L137.5 30.625H135C135.625 31.25 135.625 31.875 136.25 33.125z" />
    <glyph glyph-name="backup"
      unicode="&#x62;&#x61;&#x63;&#x6B;&#x75;&#x70;"
      horiz-adv-x="150" d=" M116.875 39.375C116.875 42.5 114.375 45.625 110.625 45.625C107.5 45.625 104.375 43.125 104.375 39.375S106.875 33.125 110.625 33.125C113.75 33.125 116.875 36.25 116.875 39.375zM110.625 66.25C95.625 66.25 83.75 54.375 83.75 39.375H75L86.875 27.5L98.75 39.375H90C90 50.625 99.375 60 110.625 60S131.25 50.625 131.25 39.375S121.875 18.75 110.625 18.75C106.25 18.75 101.875 20 98.75 22.5L94.375 18.125C106.25 9.375 123.125 11.25 131.875 23.125S138.75 51.875 126.875 60.625C122.5 64.375 116.875 66.25 110.625 66.25zM68.75 40.625C68.75 43.75 69.375 46.875 70 50H12.5V25H71.875C70 30 68.75 35 68.75 40.625zM37.5 31.25H25V43.75H37.5V31.25zM137.5 125H12.5V100H137.5V125zM37.5 106.25H25V118.75H37.5V106.25zM109.375 81.25C120 81.25 130 76.875 137.5 70V87.5H12.5V62.5H75C82.5 73.75 95 81.25 109.375 81.25zM25 68.75V81.25H37.5V68.75H25z" />
    <glyph glyph-name="balanca"
      unicode="&#x62;&#x61;&#x6C;&#x61;&#x6E;&#x63;&#x61;"
      horiz-adv-x="150" d=" M118.75 131.25H31.25C24.375 131.25 18.75 125.625 18.75 118.75V31.25C18.75 24.375 24.375 18.75 31.25 18.75H118.75C125.625 18.75 131.25 24.375 131.25 31.25V118.75C131.25 125.625 125.625 131.25 118.75 131.25zM96.875 75H80.625L87.5 110.625C87.5 111.875 86.875 112.5 86.25 112.5C85.625 112.5 85.625 112.5 85 111.875V111.25L70 77.5C69.375 76.25 68.75 75.625 68.75 75H53.125L31.25 107.5C31.25 107.5 42.5 118.75 75 118.75S118.75 107.5 118.75 107.5L96.875 75z" />
    <glyph glyph-name="banco"
      unicode="&#x62;&#x61;&#x6E;&#x63;&#x6F;"
      horiz-adv-x="150" d=" M60.9005 96.875H15.625V109.375L55.113625 130.158625C52.417 126.2580625 50.819 121.541625 50.819 116.444C50.819 108.372875 54.8179375 101.268 60.9005 96.875zM75.8465 118.8136875C70.96175 120.071 69.390125 121.4008125 69.390125 123.432125C69.390125 125.753375 71.5664375 127.397875 75.1934375 127.397875C79.01425 127.397875 80.4409375 125.5599375 80.561875 122.8759375H85.30125C85.1563125 126.5758125 82.907125 129.985375 78.409625 131.0733125V135.78875H71.95325V131.121875C67.7940625 130.2273125 64.4329375 127.518875 64.4329375 123.35975C64.4329375 118.4025625 68.543625 115.9359375 74.54075 114.48525C79.9328125 113.2035 80.997125 111.3175 80.997125 109.310625C80.997125 107.8355 79.9328125 105.4658125 75.1934375 105.4658125C70.768375 105.4658125 69.027375 107.4486875 68.7855 109.98775H64.046125C64.312 105.2964375 67.818125 102.6364375 71.95325 101.7659375V97.0990625H78.409625V101.717375C82.61725 102.5154375 85.9299375 104.9335625 85.9539375 109.358625C85.953875 115.4525625 80.7308125 117.556 75.8465 118.8136875zM94.886375 130.158625C97.583 126.258125 99.1809375 121.541625 99.1809375 116.444C99.1809375 108.372875 95.182 101.268 89.0994375 96.875H134.375V109.375L94.886375 130.158625zM84.375 84.375H65.625V40.625H84.375V84.375zM46.875 40.625V84.375H28.125V40.625H46.875zM103.125 84.375V40.625H121.875V84.375H103.125zM15.625 9.375H134.375V28.125H15.625V9.375z" />
    <glyph glyph-name="banco_dados"
      unicode="&#x62;&#x61;&#x6E;&#x63;&#x6F;&#x5F;&#x64;&#x61;&#x64;&#x6F;&#x73;"
      horiz-adv-x="150" d=" M12.5 25H137.5V50H12.5V25zM25 43.75H37.5V31.25H25V43.75zM12.5 125V100H137.5V125H12.5zM37.5 106.25H25V118.75H37.5V106.25zM12.5 62.5H137.5V87.5H12.5V62.5zM25 81.25H37.5V68.75H25V81.25z" />
    <glyph glyph-name="bicicleta"
      unicode="&#x62;&#x69;&#x63;&#x69;&#x63;&#x6C;&#x65;&#x74;&#x61;"
      horiz-adv-x="150" d=" M103.75 80L104.375 78.75L103.125 78.75L103.75 80M78.75 112.5H72.5C72.5 108.75 73.75 106.25 75 105.625C77.5 103.75 80 103.125 81.25 103.125C81.25 103.125 81.875 103.125 81.875 103.125H95L102.5 84.375H63.75L61.25 90.625H68.75H68.75V96.875H68.75V96.875H43.75V90.625H54.375L58.125 81.25L46.875 69.375C42.5 73.125 37.5 75 31.25 75C17.5 75 6.25 63.75 6.25 50C6.25 36.25 17.5 25 31.25 25C43.125 25 53.125 33.75 55.625 45L75 45L77.5 46.25L105 76.25L106.25 72.5C98.75 68.125 93.125 60 93.125 50.625C93.125 36.875 104.375 25.625 118.125 25.625C131.875 25.625 143.125 36.875 143.125 50.625C143.125 64.375 131.875 75.625 118.125 75.625C115.625 75.625 113.75 75 111.875 75L98.125 110L80.625 110C80.625 110 79.375 110 78.75 110.625C78.75 110.625 78.75 111.25 78.75 112.5L78.75 112.5zM76.25 53.125L66.25 77.5H99.375L76.25 53.125L76.25 53.125zM70.625 50.625L56.25 50.625C56.25 55.625 54.375 60.625 51.25 64.375L60.625 75L70.625 50.625L70.625 50.625zM116.25 46.875L121.875 49.375L115 68.75C116.25 68.75 117.5 69.375 119.375 69.375C130 69.375 138.125 60.625 138.125 50.625C138.125 40 129.375 31.875 119.375 31.875C108.75 31.875 100.625 40.625 100.625 50.625C100.625 57.5 104.375 63.125 110 66.875L116.25 46.875L116.25 46.875zM31.25 31.25C20.625 31.25 12.5 40 12.5 50C12.5 60.625 21.25 68.75 31.25 68.75C35.625 68.75 39.375 66.875 43.125 64.375L28.75 50L31.25 45L49.375 45C46.875 36.875 40 31.25 31.25 31.25L31.25 31.25zM50 51.25L38.75 51.25L47.5 60.625C48.75 57.5 50 54.375 50 51.25L50 51.25z" />
    <glyph glyph-name="bloquear"
      unicode="&#x62;&#x6C;&#x6F;&#x71;&#x75;&#x65;&#x61;&#x72;"
      horiz-adv-x="150" d=" M112.5 100H106.25V112.5C106.25 129.7500625 92.2500625 143.75 75 143.75S43.75 129.7500625 43.75 112.5V100H37.5C30.625125 100 25 94.374875 25 87.5V25C25 18.125125 30.625125 12.5 37.5 12.5H112.5C119.374875 12.5 125 18.125125 125 25V87.5C125 94.374875 119.374875 100 112.5 100zM75 43.75C68.125125 43.75 62.5 49.375125 62.5 56.25S68.125125 68.75 75 68.75S87.5 63.124875 87.5 56.25S81.874875 43.75 75 43.75zM94.374875 100H55.625125V112.5C55.625125 123.187625 64.3123125 131.874875 75 131.874875S94.374875 123.187625 94.374875 112.5V100z" />
    <glyph glyph-name="borda_baixo"
      unicode="&#x62;&#x6F;&#x72;&#x64;&#x61;&#x5F;&#x62;&#x61;&#x69;&#x78;&#x6F;"
      horiz-adv-x="150" d=" M56.25 81.2500625H43.75V68.7500625H56.25V81.2500625zM81.25 56.2500625H68.75V43.7500625H81.25V56.2500625zM56.25 131.2500625H43.75V118.7500625H56.25V131.2500625zM81.25 81.2500625H68.75V68.7500625H81.25V81.2500625zM31.25 131.2500625H18.75V118.7500625H31.25V131.2500625zM81.25 106.2500625H68.75V93.7500625H81.25V106.2500625zM106.25 81.2500625H93.75V68.7500625H106.25V81.2500625zM81.25 131.2500625H68.75V118.7500625H81.25V131.2500625zM106.25 131.2500625H93.75V118.7500625H106.25V131.2500625zM118.75 68.7500625H131.25V81.2500625H118.75V68.7500625zM118.75 43.750125H131.25V56.250125H118.75V43.750125zM31.25 106.2500625H18.75V93.7500625H31.25V106.2500625zM118.75 131.2500625V118.7500625H131.25V131.2500625H118.75zM118.75 93.7500625H131.25V106.2500625H118.75V93.7500625zM31.25 81.2500625H18.75V68.7500625H31.25V81.2500625zM18.75 18.750125H131.25V31.250125H18.75V18.750125zM31.25 56.2500625H18.75V43.7500625H31.25V56.2500625z" />
    <glyph glyph-name="borda_cima"
      unicode="&#x62;&#x6F;&#x72;&#x64;&#x61;&#x5F;&#x63;&#x69;&#x6D;&#x61;"
      horiz-adv-x="150" d=" M43.75 18.750125H56.25V31.250125H43.75V18.750125zM43.75 68.7500625H56.25V81.2500625H43.75V68.7500625zM68.75 68.7500625H81.25V81.2500625H68.75V68.7500625zM68.75 18.750125H81.25V31.250125H68.75V18.750125zM18.75 43.750125H31.25V56.250125H18.75V43.750125zM18.75 18.750125H31.25V31.250125H18.75V18.750125zM18.75 68.7500625H31.25V81.2500625H18.75V68.7500625zM18.75 93.7500625H31.25V106.2500625H18.75V93.7500625zM68.75 43.750125H81.25V56.250125H68.75V43.750125zM118.75 93.7500625H131.25V106.2500625H118.75V93.7500625zM118.75 68.7500625H131.25V81.2500625H118.75V68.7500625zM18.75 131.2500625V118.7500625H131.25V131.2500625H18.75zM118.75 43.750125H131.25V56.250125H118.75V43.750125zM93.75 18.750125H106.25V31.250125H93.75V18.750125zM68.75 93.7500625H81.25V106.2500625H68.75V93.7500625zM118.75 18.750125H131.25V31.250125H118.75V18.750125zM93.75 68.7500625H106.25V81.2500625H93.75V68.7500625z" />
    <glyph glyph-name="borda_direita"
      unicode="&#x62;&#x6F;&#x72;&#x64;&#x61;&#x5F;&#x64;&#x69;&#x72;&#x65;&#x69;&#x74;&#x61;"
      horiz-adv-x="150" d=" M43.75 18.750125H56.25V31.250125H43.75V18.750125zM18.75 118.7500625H31.25V131.2500625H18.75V118.7500625zM43.75 118.7500625H56.25V131.2500625H43.75V118.7500625zM43.75 68.7500625H56.25V81.2500625H43.75V68.7500625zM18.75 18.750125H31.25V31.250125H18.75V18.750125zM68.75 18.750125H81.25V31.250125H68.75V18.750125zM18.75 68.7500625H31.25V81.2500625H18.75V68.7500625zM18.75 43.750125H31.25V56.250125H18.75V43.750125zM18.75 93.7500625H31.25V106.2500625H18.75V93.7500625zM68.75 43.750125H81.25V56.250125H68.75V43.750125zM93.75 68.7500625H106.25V81.2500625H93.75V68.7500625zM118.75 131.2500625V18.7500625H131.25V131.2500625H118.75zM93.75 18.750125H106.25V31.250125H93.75V18.750125zM93.75 118.7500625H106.25V131.2500625H93.75V118.7500625zM68.75 68.7500625H81.25V81.2500625H68.75V68.7500625zM68.75 118.7500625H81.25V131.2500625H68.75V118.7500625zM68.75 93.7500625H81.25V106.2500625H68.75V93.7500625z" />
    <glyph glyph-name="borda_esquerda"
      unicode="&#x62;&#x6F;&#x72;&#x64;&#x61;&#x5F;&#x65;&#x73;&#x71;&#x75;&#x65;&#x72;&#x64;&#x61;"
      horiz-adv-x="150" d=" M68.75 18.750125H81.25V31.250125H68.75V18.750125zM68.75 43.750125H81.25V56.250125H68.75V43.750125zM68.75 118.7500625H81.25V131.2500625H68.75V118.7500625zM68.75 93.7500625H81.25V106.2500625H68.75V93.7500625zM68.75 68.7500625H81.25V81.2500625H68.75V68.7500625zM43.75 18.750125H56.25V31.250125H43.75V18.750125zM43.75 118.7500625H56.25V131.2500625H43.75V118.7500625zM43.75 68.7500625H56.25V81.2500625H43.75V68.7500625zM18.75 18.750125H31.25V131.250125H18.75V18.750125zM118.75 93.7500625H131.25V106.2500625H118.75V93.7500625zM93.75 18.750125H106.25V31.250125H93.75V18.750125zM118.75 43.750125H131.25V56.250125H118.75V43.750125zM118.75 131.2500625V118.7500625H131.25V131.2500625H118.75zM118.75 68.7500625H131.25V81.2500625H118.75V68.7500625zM118.75 18.750125H131.25V31.250125H118.75V18.750125zM93.75 68.7500625H106.25V81.2500625H93.75V68.7500625zM93.75 118.7500625H106.25V131.2500625H93.75V118.7500625z" />
    <glyph glyph-name="borda_externa"
      unicode="&#x62;&#x6F;&#x72;&#x64;&#x61;&#x5F;&#x65;&#x78;&#x74;&#x65;&#x72;&#x6E;&#x61;"
      horiz-adv-x="150" d=" M81.25 106.2500625H68.75V93.7500625H81.25V106.2500625zM81.25 81.2500625H68.75V68.7500625H81.25V81.2500625zM106.25 81.2500625H93.75V68.7500625H106.25V81.2500625zM18.75 131.2500625V18.7500625H131.25V131.2500625H18.75zM118.75 31.250125H31.25V118.750125H118.75V31.250125zM81.25 56.2500625H68.75V43.7500625H81.25V56.2500625zM56.25 81.2500625H43.75V68.7500625H56.25V81.2500625z" />
    <glyph glyph-name="borda_horizontal"
      unicode="&#x62;&#x6F;&#x72;&#x64;&#x61;&#x5F;&#x68;&#x6F;&#x72;&#x69;&#x7A;&#x6F;&#x6E;&#x74;&#x61;&#x6C;"
      horiz-adv-x="150" d=" M18.75 18.750125H31.25V31.250125H18.75V18.750125zM31.25 106.2500625H18.75V93.7500625H31.25V106.2500625zM18.75 43.750125H31.25V56.250125H18.75V43.750125zM43.75 18.750125H56.25V31.250125H43.75V18.750125zM31.25 131.2500625H18.75V118.7500625H31.25V131.2500625zM56.25 131.2500625H43.75V118.7500625H56.25V131.2500625zM106.25 131.2500625H93.75V118.7500625H106.25V131.2500625zM81.25 106.2500625H68.75V93.7500625H81.25V106.2500625zM81.25 131.2500625H68.75V118.7500625H81.25V131.2500625zM118.75 43.750125H131.25V56.250125H118.75V43.750125zM68.75 18.750125H81.25V31.250125H68.75V18.750125zM18.75 68.7500625H131.25V81.2500625H18.75V68.7500625zM118.75 131.2500625V118.7500625H131.25V131.2500625H118.75zM118.75 93.7500625H131.25V106.2500625H118.75V93.7500625zM68.75 43.750125H81.25V56.250125H68.75V43.750125zM93.75 18.750125H106.25V31.250125H93.75V18.750125zM118.75 18.750125H131.25V31.250125H118.75V18.750125z" />
    <glyph glyph-name="borda_interna"
      unicode="&#x62;&#x6F;&#x72;&#x64;&#x61;&#x5F;&#x69;&#x6E;&#x74;&#x65;&#x72;&#x6E;&#x61;"
      horiz-adv-x="150" d=" M18.75 18.750125H31.25V31.250125H18.75V18.750125zM43.75 18.750125H56.25V31.250125H43.75V18.750125zM31.25 106.2500625H18.75V93.7500625H31.25V106.2500625zM18.75 43.750125H31.25V56.250125H18.75V43.750125zM56.25 131.2500625H43.75V118.7500625H56.25V131.2500625zM31.25 131.2500625H18.75V118.7500625H31.25V131.2500625zM106.25 131.2500625H93.75V118.7500625H106.25V131.2500625zM118.75 93.7500625H131.25V106.2500625H118.75V93.7500625zM118.75 131.2500625V118.7500625H131.25V131.2500625H118.75zM93.75 18.750125H106.25V31.250125H93.75V18.750125zM81.25 131.2500625H68.75V81.2500625H18.75V68.7500625H68.75V18.7500625H81.25V68.7500625H131.25V81.2500625H81.25V131.2500625zM118.75 18.750125H131.25V31.250125H118.75V18.750125zM118.75 43.750125H131.25V56.250125H118.75V43.750125z" />
    <glyph glyph-name="borda_nenhuma"
      unicode="&#x62;&#x6F;&#x72;&#x64;&#x61;&#x5F;&#x6E;&#x65;&#x6E;&#x68;&#x75;&#x6D;&#x61;"
      horiz-adv-x="150" d=" M43.75 118.7500625H56.25V131.2500625H43.75V118.7500625zM43.75 68.7500625H56.25V81.2500625H43.75V68.7500625zM43.75 18.750125H56.25V31.250125H43.75V18.750125zM68.75 43.750125H81.25V56.250125H68.75V43.750125zM68.75 18.750125H81.25V31.250125H68.75V18.750125zM18.75 18.750125H31.25V31.250125H18.75V18.750125zM18.75 43.750125H31.25V56.250125H18.75V43.750125zM18.75 68.7500625H31.25V81.2500625H18.75V68.7500625zM18.75 93.7500625H31.25V106.2500625H18.75V93.7500625zM18.75 118.7500625H31.25V131.2500625H18.75V118.7500625zM68.75 68.7500625H81.25V81.2500625H68.75V68.7500625zM118.75 43.750125H131.25V56.250125H118.75V43.750125zM118.75 68.7500625H131.25V81.2500625H118.75V68.7500625zM118.75 18.750125H131.25V31.250125H118.75V18.750125zM118.75 93.7500625H131.25V106.2500625H118.75V93.7500625zM68.75 93.7500625H81.25V106.2500625H68.75V93.7500625zM118.75 131.2500625V118.7500625H131.25V131.2500625H118.75zM68.75 118.7500625H81.25V131.2500625H68.75V118.7500625zM93.75 18.750125H106.25V31.250125H93.75V18.750125zM93.75 68.7500625H106.25V81.2500625H93.75V68.7500625zM93.75 118.7500625H106.25V131.2500625H93.75V118.7500625z" />
    <glyph glyph-name="borda_todas"
      unicode="&#x62;&#x6F;&#x72;&#x64;&#x61;&#x5F;&#x74;&#x6F;&#x64;&#x61;&#x73;"
      horiz-adv-x="150" d=" M18.75 131.2500625V18.7500625H131.25V131.2500625H18.75zM68.75 31.250125H31.25V68.750125H68.75V31.250125zM68.75 81.2500625H31.25V118.7500625H68.75V81.2500625zM118.75 31.250125H81.25V68.750125H118.75V31.250125zM118.75 81.2500625H81.25V118.7500625H118.75V81.2500625z" />
    <glyph glyph-name="borda_vertical"
      unicode="&#x62;&#x6F;&#x72;&#x64;&#x61;&#x5F;&#x76;&#x65;&#x72;&#x74;&#x69;&#x63;&#x61;&#x6C;"
      horiz-adv-x="150" d=" M18.75 93.7500625H31.25V106.2500625H18.75V93.7500625zM18.75 118.7500625H31.25V131.2500625H18.75V118.7500625zM43.75 18.750125H56.25V31.250125H43.75V18.750125zM43.75 68.7500625H56.25V81.2500625H43.75V68.7500625zM18.75 68.7500625H31.25V81.2500625H18.75V68.7500625zM18.75 18.750125H31.25V31.250125H18.75V18.750125zM18.75 43.750125H31.25V56.250125H18.75V43.750125zM43.75 118.7500625H56.25V131.2500625H43.75V118.7500625zM118.75 43.750125H131.25V56.250125H118.75V43.750125zM68.75 18.750125H81.25V131.250125H68.75V18.750125zM118.75 18.750125H131.25V31.250125H118.75V18.750125zM118.75 68.7500625H131.25V81.2500625H118.75V68.7500625zM118.75 131.2500625V118.7500625H131.25V131.2500625H118.75zM118.75 93.7500625H131.25V106.2500625H118.75V93.7500625zM93.75 118.7500625H106.25V131.2500625H93.75V118.7500625zM93.75 18.750125H106.25V31.250125H93.75V18.750125zM93.75 68.7500625H106.25V81.2500625H93.75V68.7500625z" />
    <glyph glyph-name="bsc"
      unicode="&#x62;&#x73;&#x63;"
      horiz-adv-x="150" d=" M74.9990625 25L46.8745625 74.999125L18.75 25H74.9990625zM103.1265625 74.9995625L75.0020625 124.9986875L46.8775625 74.9995625H103.1265625zM131.251125 25L103.126625 74.999125L75.0020625 25H131.251125z" />
    <glyph glyph-name="bug"
      unicode="&#x62;&#x75;&#x67;"
      horiz-adv-x="150" d=" M125 100H107.4375C104.6185 104.889125 100.72975 109.0770625 96.0625 112.25L106.25 122.4375L97.4375 131.25L83.875 117.6875C81 118.375 78.0625 118.75 75 118.75S69 118.375 66.1875 117.6875L52.5625 131.25L43.75 122.4375L53.875 112.25C49.25 109.0625 45.375 104.875 42.5625 100H25V87.5H38.0625C37.75 85.4375 37.5 83.375 37.5 81.25V75H25V62.5H37.5V56.25C37.5 54.125 37.75 52.0625 38.0625 50H25V37.5H42.5625C49.0625 26.3125 61.125 18.75 75 18.75S100.9375 26.3125 107.4375 37.5H125V50H111.9375C112.25 52.0625 112.5 54.125 112.5 56.25V62.5H125V75H112.5V81.25C112.5 83.375 112.25 85.4375 111.9375 87.5H125V100zM87.5 50H62.5V62.5H87.5V50zM87.5 75H62.5V87.5H87.5V75z" />
    <glyph glyph-name="buscar_cadastro_geral"
      unicode="&#x62;&#x75;&#x73;&#x63;&#x61;&#x72;&#x5F;&#x63;&#x61;&#x64;&#x61;&#x73;&#x74;&#x72;&#x6F;&#x5F;&#x67;&#x65;&#x72;&#x61;&#x6C;"
      horiz-adv-x="150" d=" M128.125 26.25H125.625L125 27.5C128.125 31.25 130 35.625 130 40.625C130 51.875 121.25 60.625 110 60.625S90 51.875 90 40.625C90 29.375 98.75 20.625 110 20.625C115 20.625 119.375 22.5 123.125 25.625L123.75 25V22.5L139.375 6.875L143.75 11.25L128.125 26.25zM110 26.25C102.5 26.25 96.25 32.5 96.25 40C96.25 47.5 102.5 53.75 110 53.75S123.75 47.5 123.75 40C123.75 32.5 117.5 26.25 110 26.25zM80.625 40C80.625 56.25 93.75 69.375 110 69.375C115.625 69.375 120.625 67.5 125 65V100L87.5 137.5H37.5C30.625 137.5 25 131.875 25 125L25 25C25 18.125 30.625 12.5 37.5 12.5H101.875C89.375 16.25 80.625 26.875 80.625 40zM81.25 128.125L115.625 93.75H81.25V128.125zM60 125C67.5 125 73.75 118.75 73.75 111.25S67.5 97.5 60 97.5S46.25 103.75 46.25 111.25S51.875 125 60 125zM31.875 69.375V76.25C31.875 85.625 50.625 90 59.375 90C68.75 90 86.875 85.625 86.875 76.25V69.375H31.875z" />
    <glyph glyph-name="buscar_janela"
      unicode="&#x62;&#x75;&#x73;&#x63;&#x61;&#x72;&#x5F;&#x6A;&#x61;&#x6E;&#x65;&#x6C;&#x61;"
      horiz-adv-x="150" d=" M12.5 125V25H81.25V31.25H18.75V106.25H131.25V68.75H137.5L137.5 125H12.5zM106.25 112.5H100V118.75H106.25V112.5zM118.75 112.5H112.5V118.75H118.75V112.5zM131.25 112.5H125V118.75H131.25V112.5zM127.5 33.75H125L124.375 34.375C127.5 38.125 129.375 43.125 129.375 48.125C129.375 60 120 69.375 108.125 69.375C96.25 69.375 86.875 60 86.875 48.125C86.875 36.25 96.25 26.875 108.125 26.875C113.125 26.875 118.125 28.75 121.875 31.875L122.5 31.25V28.75L138.75 12.5L143.75 17.5L127.5 33.75zM108.125 33.75C100 33.75 93.75 40 93.75 48.125C93.75 56.25 100 62.5 108.125 62.5C116.25 62.5 122.5 56.25 122.5 48.125C122.5 40 116.25 33.75 108.125 33.75z" />
    <glyph glyph-name="bussola"
      unicode="&#x62;&#x75;&#x73;&#x73;&#x6F;&#x6C;&#x61;"
      horiz-adv-x="150" d=" M75 81.875C71.1875 81.875 68.125 78.8125 68.125 75S71.1875 68.125 75 68.125C78.8125 68.125 81.875 71.1875 81.875 75S78.8125 81.875 75 81.875zM75 137.5C40.5 137.5 12.5 109.5 12.5 75S40.5 12.5 75 12.5S137.5 40.5 137.5 75S109.5 137.5 75 137.5zM88.6875 61.3125L37.5 37.5L61.3125 88.6875L112.5 112.5L88.6875 61.3125z" />
    <glyph glyph-name="cabecalho"
      unicode="&#x63;&#x61;&#x62;&#x65;&#x63;&#x61;&#x6C;&#x68;&#x6F;"
      horiz-adv-x="150" d=" M112.5 131.25H37.5C30.625 131.25 25 125.625 25 118.75V31.25C25 24.375 30.625 18.75 37.5 18.75H112.5C119.375 18.75 125 24.375 125 31.25V118.75C125 125.625 119.375 131.25 112.5 131.25zM112.5 31.25H37.5V118.75H112.5V31.25zM106.25 87.5H43.75V112.5H106.25V87.5z" />
    <glyph glyph-name="cadastro"
      unicode="&#x63;&#x61;&#x64;&#x61;&#x73;&#x74;&#x72;&#x6F;"
      horiz-adv-x="150" d=" M99.999875 56.250125H81.249875V37.500125H68.749875V56.250125H49.999875V68.750125H68.749875V87.500125H81.249875V68.750125H99.999875V56.250125zM87.5 137.5H37.5C30.625125 137.5 25.0625625 131.87525 25.0625625 125L25 25C25 18.125125 30.5625625 12.5 37.4374375 12.5H112.5C119.374875 12.5 125 18.125125 125 25V100L87.5 137.5zM112.499625 25.00075H37.5V124.99925H81.249625L81.25 93.75L112.499625 93.74925C112.499625 93.74925 112.499625 25.00075 112.499625 25.00075z" />
    <glyph glyph-name="caixa_registradora"
      unicode="&#x63;&#x61;&#x69;&#x78;&#x61;&#x5F;&#x72;&#x65;&#x67;&#x69;&#x73;&#x74;&#x72;&#x61;&#x64;&#x6F;&#x72;&#x61;"
      horiz-adv-x="150" d=" M128.125 117.4999375L119.374875 128.125C118.125125 129.9999375 115.000125 131.25 112.5 131.25H37.5C34.375 131.25 31.874875 129.9999375 29.9999375 127.500125L21.875 117.4999375C20.0000625 115.000125 18.75 112.5 18.75 109.375V31.25C18.75 24.375125 24.375125 18.75 31.25 18.75H118.75C125.624875 18.75 131.25 24.375125 131.25 31.25V109.375C131.25 112.5 129.9999375 115.000125 128.125 117.4999375zM93.75 81.25H68.75V75H87.5C90.9374375 75 93.75 72.1874375 93.75 68.75V50C93.75 46.5625625 90.9374375 43.75 87.5 43.75H81.25V37.5H68.75V43.75H56.25V56.25H81.25V62.5H62.5C59.0625625 62.5 56.25 65.3125625 56.25 68.75V87.5C56.25 90.9374375 59.0625625 93.75 62.5 93.75H68.75V100H81.25V93.75H93.75V81.25zM28.125 113.124875L36.875125 125H111.875125L121.250125 112.5L28.125 113.124875z" />
    <glyph glyph-name="calculo"
      unicode="&#x63;&#x61;&#x6C;&#x63;&#x75;&#x6C;&#x6F;"
      horiz-adv-x="150" d=" M68.75 112.5H50V131.25H37.5V112.5H18.75V100H37.5V81.25H50V100H68.75V112.5zM56.875 62.5L43.75 49.375L30.625 62.5L21.875 53.75L35 40.625L21.875 27.5L30.625 18.75L43.75 31.875L56.875 18.75L65.625 27.5L52.5 40.625L65.625 53.75L56.875 62.5zM131.25 100H81.25V112.5H131.25V100zM131.25 37.5H81.25V50H131.25V37.5zM112.5 56.25H100V68.75H112.5V56.25zM112.5 18.75H100V31.25H112.5V18.75z" />
    <glyph glyph-name="calendario"
      unicode="&#x63;&#x61;&#x6C;&#x65;&#x6E;&#x64;&#x61;&#x72;&#x69;&#x6F;"
      horiz-adv-x="150" d=" M56.25 81.25H43.75V68.75H56.25V81.25zM81.25 81.25H68.75V68.75H81.25V81.25zM106.25 81.25H93.75V68.75H106.25V81.25zM56.25 56.25H43.75V43.75H56.25V56.25zM81.25 56.25H68.75V43.75H81.25V56.25zM106.25 56.25H93.75V43.75H106.25V56.25zM118.75 125H112.5V137.5H100V125H50V137.5H37.5V125H31.25C24.3125 125 18.8125 119.375 18.8125 112.5L18.75 25C18.75 18.0964375 24.3464375 12.5 31.25 12.5H118.75C125.625 12.5 131.25 18.125 131.25 25V112.5C131.25 119.375 125.625 125 118.75 125zM118.75 25H31.25V93.75H118.75V25z" />
    <glyph glyph-name="camisa"
      unicode="&#x63;&#x61;&#x6D;&#x69;&#x73;&#x61;"
      horiz-adv-x="150" d=" M130.880125 98.263L104.143125 125L103.6495 124.506375L103.6148125 125H45.85875L18.5118125 97.6526875L35.894625 80.269875L43.787375 88.162625L43.75 87.5V25H106.2519375V87.5L106.204625 88.1729375L113.4973125 80.88025L130.880125 98.263zM75.0015 101.4720625C65.4590625 101.4720625 57.7235625 109.2075 57.7235625 118.75H92.279375C92.2794375 109.2075625 84.543625 101.4720625 75.0015 101.4720625z" />
    <glyph glyph-name="cancelar"
      unicode="&#x63;&#x61;&#x6E;&#x63;&#x65;&#x6C;&#x61;&#x72;"
      horiz-adv-x="150" d=" M75 137.5C40.625 137.5 12.5 109.375 12.5 75S40.625 12.5 75 12.5S137.5 40.625 137.5 75S109.375 137.5 75 137.5zM25 75C25 102.5 47.5 125 75 125C86.25 125 96.875 121.25 105.625 114.375L35.625 44.375C28.75 53.125 25 63.75 25 75zM75 25C63.75 25 53.125 28.75 44.375 35.625L114.375 105.625C121.25 96.875 125 86.25 125 75C125 47.5 102.5 25 75 25z" />
    <glyph glyph-name="casa"
      unicode="&#x63;&#x61;&#x73;&#x61;"
      horiz-adv-x="150" d=" M62.5 25V62.5H87.5V25H118.75V75H137.5L75 131.25L12.5 75H31.25V25H62.5z" />
    <glyph glyph-name="celular"
      unicode="&#x63;&#x65;&#x6C;&#x75;&#x6C;&#x61;&#x72;"
      horiz-adv-x="150" d=" M96.875 143.7500625H46.875C38.2455625 143.7500625 31.25 136.7545 31.25 128.1250625V21.8750625C31.25 13.245625 38.2455625 6.2500625 46.875 6.2500625H96.875C105.5044375 6.2500625 112.5 13.245625 112.5 21.8750625V128.1250625C112.5 136.7545625 105.5044375 143.7500625 96.875 143.7500625zM71.875 12.500125C66.6875 12.500125 62.5 16.687625 62.5 21.875125S66.6875 31.250125 71.875 31.250125S81.25 27.062625 81.25 21.875125S77.0625 12.500125 71.875 12.500125zM100 37.500125H43.75V125.000125H100V37.500125z" />
    <glyph glyph-name="certificado_digital"
      unicode="&#x63;&#x65;&#x72;&#x74;&#x69;&#x66;&#x69;&#x63;&#x61;&#x64;&#x6F;&#x5F;&#x64;&#x69;&#x67;&#x69;&#x74;&#x61;&#x6C;"
      horiz-adv-x="150" d=" M98.526 43.254875C94.443875 47.373625 91.915125 53.035375 91.915125 59.29225C91.915125 71.88 102.1198125 82.0843125 114.7071875 82.0843125C116.1365625 82.0843125 117.5231875 81.9153125 118.8793125 81.6635625V124.985125C118.8793125 131.86875 113.2473125 137.501125 106.3633125 137.501125H31.266C24.382 137.501125 18.75 131.86875 18.75 124.985125V25.016375C18.75 18.132 24.382 12.5 31.266 12.5H98.526V43.254875zM37.5240625 118.7896875H100.1053125V106.2733125H37.5240625V118.7896875zM37.5240625 93.756875H100.1053125V81.240875H37.5240625V93.756875zM75.0725 56.2084375H37.5240625V68.7248125H75.0725V56.2084375zM120.466 75.2239375C110.1376875 75.2239375 101.7644375 66.8514375 101.7644375 56.523125C101.7644375 51.3889375 103.83925 46.743375 107.1889375 43.3639375V12.5L120.466 19.775L133.7434375 12.5V43.3639375C137.09275 46.743375 139.1671875 51.3893125 139.1671875 56.523125C139.1671875 66.8514375 130.7943125 75.2239375 120.466 75.2239375zM128.903 22.6288125L120.4660625 27.2514375L112.029125 22.6288125V39.9196875C114.5743125 38.6226875 117.4131875 37.821625 120.4660625 37.821625C123.5185625 37.821625 126.357875 38.6226875 128.903 39.9196875V22.6288125zM120.466 45.3159375C114.276625 45.3159375 109.2591875 50.3334375 109.2591875 56.523125C109.2591875 62.7125 114.2766875 67.7299375 120.466 67.7299375S131.6728125 62.7124375 131.6728125 56.523125C131.6728125 50.333375 126.655375 45.3159375 120.466 45.3159375z" />
    <glyph glyph-name="certificado_digital_pendente"
      unicode="&#x63;&#x65;&#x72;&#x74;&#x69;&#x66;&#x69;&#x63;&#x61;&#x64;&#x6F;&#x5F;&#x64;&#x69;&#x67;&#x69;&#x74;&#x61;&#x6C;&#x5F;&#x70;&#x65;&#x6E;&#x64;&#x65;&#x6E;&#x74;&#x65;"
      horiz-adv-x="150" d=" M115 81.875C116.25 81.875 118.125 81.875 119.375 81.25V125C119.375 131.875 113.75 137.5 106.875 137.5H31.25C24.375 137.5 18.75 131.875 18.75 125V25C18.75 18.125 24.375 12.5 31.25 12.5H98.75V43.125C94.375 47.5 91.875 53.125 91.875 59.375C91.875 71.875 101.875 81.875 115 81.875zM75 37.5H62.5V50H75V37.5zM75 56.25H62.5C62.5 76.875 81.25 75 81.25 87.5C81.25 94.375 75.625 100 68.75 100C61.875 100 56.25 94.375 56.25 87.5H43.75C43.75 101.25 55 112.5 68.75 112.5C82.5 112.5 93.75 101.25 93.75 87.5C93.75 71.875 75 70.625 75 56.25zM120.625 75C110 75 101.875 66.875 101.875 56.25C101.875 51.25 103.75 46.25 107.5 43.125V12.5L120.625 20L133.75 12.5V43.125C136.875 46.25 139.375 51.25 139.375 56.25C139.375 66.875 130.625 75 120.625 75zM128.75 22.5L120.625 26.875L112.5 22.5V40C115 38.75 118.125 38.125 120.625 38.125C123.75 38.125 126.25 38.75 128.75 40V22.5zM120.625 45.625C114.375 45.625 109.375 50.625 109.375 56.875C109.375 63.125 114.375 68.125 120.625 68.125S131.875 63.125 131.875 56.875C131.875 50.625 126.875 45.625 120.625 45.625z" />
    <glyph glyph-name="chamada_lista"
      unicode="&#x63;&#x68;&#x61;&#x6D;&#x61;&#x64;&#x61;&#x5F;&#x6C;&#x69;&#x73;&#x74;&#x61;"
      horiz-adv-x="150" d=" M97.125 75C97.125 83.125 92.625 90.125 85.9375 93.75V56.25C92.5625 59.875 97.125 66.875 97.125 75zM29.6875 87.5V62.5H48.4375L73.4375 37.5V112.5L48.4375 87.5H29.6875zM85.9375 118.75V109.375C100.4375 104.75 110.9375 91.0625 110.9375 75S100.4375 45.25 85.9375 40.625V31.25C105.625 36.125 120.3125 53.75 120.3125 75S105.625 113.875 85.9375 118.75z" />
    <glyph glyph-name="chamada_realizada"
      unicode="&#x63;&#x68;&#x61;&#x6D;&#x61;&#x64;&#x61;&#x5F;&#x72;&#x65;&#x61;&#x6C;&#x69;&#x7A;&#x61;&#x64;&#x61;"
      horiz-adv-x="150" d=" M92.5 75C92.5 83.125 88.125 90 81.25 93.75V56.25C88.125 60 92.5 66.875 92.5 75zM25 87.5V62.5H43.75L68.75 37.5V112.5L43.75 87.5H25zM81.25 118.75V109.375C95.625 105 106.25 91.25 106.25 75S95.625 45 81.25 40.625V31.25C100.625 36.25 115.625 53.75 115.625 75S100.625 113.75 81.25 118.75zM136.25 45L116.875 25.625L106.875 35.625L100.625 29.375L110.625 19.375L116.875 13.125L123.125 19.375L142.5 38.75L136.25 45z" />
    <glyph glyph-name="chave"
      unicode="&#x63;&#x68;&#x61;&#x76;&#x65;"
      horiz-adv-x="150" d=" M78.75 87.5C73.75 101.875 60 112.5 43.75 112.5C23.125 112.5 6.25 95.625 6.25 75S23.125 37.5 43.75 37.5C60 37.5 73.75 48.125 78.75 62.5H106.25V37.5H131.25V62.5H143.75V87.5H78.75zM43.75 62.5C36.875 62.5 31.25 68.125 31.25 75S36.875 87.5 43.75 87.5S56.25 81.875 56.25 75S50.625 62.5 43.75 62.5z" />
    <glyph glyph-name="cheque"
      unicode="&#x63;&#x68;&#x65;&#x71;&#x75;&#x65;"
      horiz-adv-x="150" d=" M125 109.375V40.625H25V109.375H125M125 121.875H25C18.0964375 121.875 12.5 116.2785625 12.5 109.375V40.625C12.5 33.7214375 18.0964375 28.125 25 28.125H125C131.9035625 28.125 137.5 33.7214375 137.5 40.625V109.375C137.5 116.2785625 131.9035625 121.875 125 121.875L125 121.875zM50.95775 77.701375C45.383125 79.1503125 43.590375 80.6483125 43.590375 82.9813125C43.590375 85.658125 46.07075 87.5245625 50.221 87.5245625C54.5923125 87.5245625 56.213125 85.437125 56.3605 82.367375H61.7878125C61.6159375 86.591375 59.0373125 90.4715 53.9046875 91.7239375V97.1021875H46.5373125V91.7976875C41.7730625 90.7661875 37.9420625 87.671875 37.9420625 82.93225C37.9420625 77.259375 42.632625 74.4351875 49.4843125 72.7898125C55.6238125 71.3163125 56.8516875 69.15525 56.8516875 66.871375C56.8516875 65.176875 55.648375 62.4755 50.2210625 62.4755C45.162125 62.4755 43.1729375 64.7348125 42.9028125 67.6326875H37.5C37.7946875 62.2545 41.8221875 59.233875 46.5373125 58.227V52.8979375H53.9046875V58.177875C58.6935 59.0864375 62.5 61.8615 62.5 66.895875C62.5 73.8703125 56.5324375 76.2524375 50.95775 77.701375zM112.0488125 87.5H74.5488125V75H112.0488125V87.5zM112.0488125 65.3978125H74.5488125V52.8978125H112.0488125V65.3978125z" />
    <glyph glyph-name="cidadao_cadastrar"
      unicode="&#x63;&#x69;&#x64;&#x61;&#x64;&#x61;&#x6F;&#x5F;&#x63;&#x61;&#x64;&#x61;&#x73;&#x74;&#x72;&#x61;&#x72;"
      horiz-adv-x="150" d=" M125 87.5V106.25H112.5V87.5H93.75V75H112.5V56.25H125V75H143.75V87.5H125zM56.25 75C70 75 81.25 86.25 81.25 100S70 125 56.25 125S31.25 113.75 31.25 100S42.5 75 56.25 75zM56.25 62.5C39.375 62.5 6.25 54.375 6.25 37.5V25H106.25V37.5C106.25 54.375 73.125 62.5 56.25 62.5z" />
    <glyph glyph-name="cidadao_remover"
      unicode="&#x63;&#x69;&#x64;&#x61;&#x64;&#x61;&#x6F;&#x5F;&#x72;&#x65;&#x6D;&#x6F;&#x76;&#x65;&#x72;"
      horiz-adv-x="150" d=" M56.25 75C70 75 81.25 86.25 81.25 100S70 125 56.25 125S31.25 113.75 31.25 100S42.5 75 56.25 75zM56.25 62.5C39.375 62.5 6.25 54.375 6.25 37.5V25H106.25V37.5C106.25 54.375 73.125 62.5 56.25 62.5zM121.875 84.375L137.5 68.75L131.25 62.5L115.625 78.125L100 63.125L93.75 69.375L109.375 85L93.75 100L100 106.25L115.625 90.625L131.25 106.25L137.5 100L121.875 84.375z" />
    <glyph glyph-name="cidadao_visualizar"
      unicode="&#x63;&#x69;&#x64;&#x61;&#x64;&#x61;&#x6F;&#x5F;&#x76;&#x69;&#x73;&#x75;&#x61;&#x6C;&#x69;&#x7A;&#x61;&#x72;"
      horiz-adv-x="150" d=" M56.25 75C70 75 81.25 86.25 81.25 100S70 125 56.25 125S31.25 113.75 31.25 100S42.5 75 56.25 75zM56.25 62.5C39.375 62.5 6.25 54.375 6.25 37.5V25H106.25V37.5C106.25 54.375 73.125 62.5 56.25 62.5zM110.625 87.5V90L111.25 90.625C114.375 87.5 119.375 85.625 123.75 85.625C134.375 85.625 143.125 94.375 143.125 105S135 125 124.375 125S105 116.25 105 105.625C105 100.625 106.875 96.25 110 93.125L109.375 92.5H106.25L91.25 77.5L95.625 73.125L110.625 87.5zM110.625 105.625C110.625 113.125 116.875 119.375 124.375 119.375S138.125 113.125 138.125 105.625S131.875 91.875 124.375 91.875S110.625 98.125 110.625 105.625z" />
    <glyph glyph-name="circulo"
      unicode="&#x63;&#x69;&#x72;&#x63;&#x75;&#x6C;&#x6F;"
      horiz-adv-x="150" d=" M75 137.5C40.4375 137.5 12.5 109.5625 12.5 75S40.4375 12.5 75 12.5S137.5 40.4375 137.5 75S109.5625 137.5 75 137.5zM75 25C47.4375 25 25 47.4375 25 75S47.4375 125 75 125S125 102.5625 125 75S102.5625 25 75 25z" />
    <glyph glyph-name="classificacao"
      unicode="&#x63;&#x6C;&#x61;&#x73;&#x73;&#x69;&#x66;&#x69;&#x63;&#x61;&#x63;&#x61;&#x6F;"
      horiz-adv-x="150" d=" M81.25 62.5V12.5H131.25V62.5H81.25zM18.75 12.5H68.75V62.5H18.75V12.5zM18.75 125V75H68.75V125H18.75zM123.125 116.875V83.125H89.375V116.875H123.125M131.25 125H81.25V75H131.25V125L131.25 125z" />
    <glyph glyph-name="codigo_barras"
      unicode="&#x63;&#x6F;&#x64;&#x69;&#x67;&#x6F;&#x5F;&#x62;&#x61;&#x72;&#x72;&#x61;&#x73;"
      horiz-adv-x="150" d=" M25 56.25H12.5V131.25H25V56.25zM75 131.25H62.5V56.25H75V131.25zM137.5 131.25H125V56.25H137.5V131.25zM87.5 131.25H81.25V56.25H87.5V131.25zM56.25 131.25H31.25V56.25H56.25V131.25zM118.75 131.25H93.75V56.25H118.75V131.25zM101.25 32.5C101.25 30 99.375 27.5 96.25 27.5C98.75 27.5 101.25 25.625 101.25 22.5V17.5C101.25 13.75 98.125 11.25 95 11.25H81.875V17.5H95V23.75H88.75V30H95V36.25H81.875V42.5H95C98.75 42.5 101.25 39.375 101.25 36.25V32.5zM137.5 11.25H131.25V24.375H118.125V43.75H124.375V30.625H130.625V43.75H136.875V11.25zM25.625 11.25H18.75V36.875H12.5V43.125H25.625V11.25zM65 30.625C65 26.875 61.875 24.375 58.75 24.375H52.5V18.125H65.625V11.875H45.625V25C45.625 28.75 48.75 31.25 51.875 31.25H58.125V37.5H45.625V43.75H58.75C62.5 43.75 65 40.625 65 37.5V30.625z" />
    <glyph glyph-name="colar"
      unicode="&#x63;&#x6F;&#x6C;&#x61;&#x72;"
      horiz-adv-x="150" d=" M118.75 137.5H92.5C90 145 83.125 150 75 150S60 145 57.5 137.5H31.25C24.375 137.5 18.75 131.875 18.75 125V25C18.75 18.125 24.375 12.5 31.25 12.5H118.75C125.625 12.5 131.25 18.125 131.25 25V125C131.25 131.875 125.625 137.5 118.75 137.5zM75 137.5C78.75 137.5 81.25 134.375 81.25 131.25S78.75 125 75 125S68.75 128.125 68.75 131.25S71.25 137.5 75 137.5zM118.75 25H31.25V125H43.75V106.25H106.25V125H118.75V25zM106.25 62.5H43.75V75H106.25V62.5zM106.25 37.5H43.75V50H106.25V37.5z" />
    <glyph glyph-name="comentario"
      unicode="&#x63;&#x6F;&#x6D;&#x65;&#x6E;&#x74;&#x61;&#x72;&#x69;&#x6F;"
      horiz-adv-x="150" d=" M125 137.5H25C18.125 137.5 12.5 131.875 12.5 125L12.5 12.5L37.5 37.5H125C131.875 37.5 137.5 43.125 137.5 50V125C137.5 131.875 131.875 137.5 125 137.5zM37.5 93.75H112.5V81.25H37.5V93.75zM87.5 62.5H37.5V75H87.5V62.5zM112.5 100H37.5V112.5H112.5V100z" />
    <glyph glyph-name="comparar"
      unicode="&#x63;&#x6F;&#x6D;&#x70;&#x61;&#x72;&#x61;&#x72;"
      horiz-adv-x="150" d=" M121.875 34.375L96.875 59.375V40.625H53.125C46.25 40.625 40.625 46.25 40.625 53.125S46.25 65.625 53.125 65.625H96.875C110.6875 65.625 121.875 76.8125 121.875 90.625S110.6875 115.625 96.875 115.625H53.125V134.375L28.125 109.375L53.125 84.375V103.125H96.875C103.75 103.125 109.375 97.5 109.375 90.625S103.75 78.125 96.875 78.125H53.125C39.3125 78.125 28.125 66.9375 28.125 53.125S39.3125 28.125 53.125 28.125H96.875V9.375L121.875 34.375z" />
    <glyph glyph-name="compras_web"
      unicode="&#x63;&#x6F;&#x6D;&#x70;&#x72;&#x61;&#x73;&#x5F;&#x77;&#x65;&#x62;"
      horiz-adv-x="150" d=" M50 37.5C43.125 37.5 37.5625 31.875 37.5625 25S43.125 12.5 50 12.5S62.5 18.125 62.5 25S56.875 37.5 50 37.5zM12.5 137.5V125H25L47.5 77.5625L39.0625 62.25C38.0625 60.5 37.5 58.4375 37.5 56.25C37.5 49.375 43.125 43.75 50 43.75H125V56.25H52.625C51.75 56.25 51.0625 56.9375 51.0625 57.8125L51.25 58.5625L56.875 68.75H103.4375C108.125 68.75 112.25 71.3125 114.375 75.1875L136.75 115.75C138.3965 118.7955625 137.262375 122.5991875 134.2168125 124.24575C133.305375 124.7384375 132.2860625 124.997625 131.25 125H38.8125L32.9375 137.5H12.5zM112.5 37.5C105.625 37.5 100.0625 31.875 100.0625 25S105.625 12.5 112.5 12.5S125 18.125 125 25S119.375 37.5 112.5 37.5z" />
    <glyph glyph-name="comunicacao_ativa"
      unicode="&#x63;&#x6F;&#x6D;&#x75;&#x6E;&#x69;&#x63;&#x61;&#x63;&#x61;&#x6F;&#x5F;&#x61;&#x74;&#x69;&#x76;&#x61;"
      horiz-adv-x="150" d=" M56.25 68.75C70 68.75 81.25 80 81.25 93.75S70 118.75 56.25 118.75S31.25 107.5 31.25 93.75S42.5 68.75 56.25 68.75zM56.25 56.25C39.375 56.25 6.25 48.125 6.25 31.25V18.75H106.25V31.25C106.25 48.125 73.125 56.25 56.25 56.25zM138.125 131.25H93.125C90 131.25 87.5 128.75 87.5 125.625V75L98.75 86.25H138.125C141.25 86.25 143.75 88.75 143.75 91.875V125.625C143.75 128.75 141.25 131.25 138.125 131.25zM98.75 111.25H132.5V105.625H98.75C98.75 105.625 98.75 111.25 98.75 111.25zM121.25 97.5H98.75V103.125H121.25V97.5zM132.5 114.375H98.75V120H132.5V114.375z" />
    <glyph glyph-name="comunicacao_ativa_sigas"
      unicode="&#x63;&#x6F;&#x6D;&#x75;&#x6E;&#x69;&#x63;&#x61;&#x63;&#x61;&#x6F;&#x5F;&#x61;&#x74;&#x69;&#x76;&#x61;&#x5F;&#x73;&#x69;&#x67;&#x61;&#x73;"
      horiz-adv-x="150" d=" M110.625 75L135.625 100C138.125 102.5 138.125 106.25 135.625 108.75C135.625 108.75 135.625 108.75 135.625 108.75L108.75 135.625C106.25 138.125 102.5 138.125 100 135.625C100 135.625 100 135.625 100 135.625L75 110.625L50 135.625C47.5 138.125 43.75 138.125 41.25 135.625L14.375 108.75C11.875 106.25 11.875 102.5 13.75 100C13.75 100 13.75 100 13.75 100L38.75 75L13.75 50C11.25 47.5 11.25 43.75 13.75 41.25C13.75 41.25 13.75 41.25 13.75 41.25L40.625 14.375C43.125 11.875 46.875 11.875 49.375 14.375L74.375 39.375L99.375 14.375C100.625 13.125 102.5 12.5 103.75 12.5C105.625 12.5 106.875 13.125 108.125 14.375L135 41.25C137.5 43.75 137.5 47.5 135 50C135 50 135 50 135 50C135.625 50 110.625 75 110.625 75zM75 93.75C78.75 93.75 81.25 91.25 81.25 87.5S78.75 81.25 75 81.25S68.75 83.75 68.75 87.5S71.25 93.75 75 93.75zM45.625 81.25L23.125 104.375L45.625 126.875L68.125 104.375L45.625 81.25zM62.5 68.75C58.75 68.75 56.25 71.25 56.25 75S58.75 81.25 62.5 81.25S68.75 78.75 68.75 75S66.25 68.75 62.5 68.75zM75 56.25C71.25 56.25 68.75 58.75 68.75 62.5S71.25 68.75 75 68.75S81.25 66.25 81.25 62.5S78.75 56.25 75 56.25zM87.5 81.25C91.25 81.25 93.75 78.75 93.75 75S91.25 68.75 87.5 68.75S81.25 71.25 81.25 75S83.75 81.25 87.5 81.25zM104.375 23.125L81.25 45.625L103.75 68.125L126.25 45.625L104.375 23.125z" />
    <glyph glyph-name="conectividade"
      unicode="&#x63;&#x6F;&#x6E;&#x65;&#x63;&#x74;&#x69;&#x76;&#x69;&#x64;&#x61;&#x64;&#x65;"
      horiz-adv-x="150" d=" M112.5 49.5C107.75 49.5 103.5 47.625 100.25 44.6875L55.6875 70.625C56 72.0625 56.25 73.5 56.25 75S56 77.9375 55.6875 79.375L99.75 105.0625C103.125 101.9375 107.5625 100 112.5 100C122.875 100 131.25 108.375 131.25 118.75S122.875 137.5 112.5 137.5S93.75 129.125 93.75 118.75C93.75 117.25 94 115.8125 94.3125 114.375L50.25 88.6875C46.875 91.8125 42.4375 93.75 37.5 93.75C27.125 93.75 18.75 85.375 18.75 75S27.125 56.25 37.5 56.25C42.4375 56.25 46.875 58.1875 50.25 61.3125L94.75 35.3125C94.4375 34 94.25 32.625 94.25 31.25C94.25 21.1875 102.4375 13 112.5 13S130.75 21.1875 130.75 31.25S122.5625 49.5 112.5 49.5z" />
    <glyph glyph-name="configuracoes"
      unicode="&#x63;&#x6F;&#x6E;&#x66;&#x69;&#x67;&#x75;&#x72;&#x61;&#x63;&#x6F;&#x65;&#x73;"
      horiz-adv-x="150" d=" M121.25 68.75C121.25 70.625 121.875 72.5 121.875 75S121.875 79.375 121.25 81.25L134.375 91.25C135.625 91.875 135.625 93.75 135 95L122.5 116.875C121.875 118.125 120 118.75 118.75 118.125L103.125 111.875C100 114.375 96.25 116.25 92.5 118.125L90 135C90.625 136.25 88.75 137.5 87.5 137.5H62.5C61.25 137.5 59.375 136.25 59.375 135L56.875 118.125C53.125 116.875 50 114.375 46.25 111.875L30.625 118.125C29.375 118.75 28.125 118.125 26.875 116.875L14.375 95C13.75 94.375 14.375 92.5 15.625 91.25L28.75 81.25C28.75 79.375 28.125 77.5 28.125 75S28.125 70.625 28.75 68.75L15.625 58.75C14.375 58.125 14.375 56.25 15 55L27.5 33.125C28.125 31.875 29.375 31.25 31.25 31.875L46.875 38.125C50 35.625 53.75 33.75 57.5 31.875L60 15.625C60 14.375 61.25 13.125 63.125 13.125H88.125C90 13.125 91.25 14.375 91.25 15.625L93.75 31.875C97.5 33.75 101.25 35.625 104.375 38.125L120 31.875C121.25 31.25 123.125 31.875 123.75 33.125L136.25 55C136.875 56.25 136.875 58.125 135.625 58.75L121.25 68.75zM75 53.125C63.125 53.125 53.125 63.125 53.125 75S63.125 96.875 75 96.875S96.875 86.875 96.875 75S86.875 53.125 75 53.125z" />
    <glyph glyph-name="configurar_xml"
      unicode="&#x63;&#x6F;&#x6E;&#x66;&#x69;&#x67;&#x75;&#x72;&#x61;&#x72;&#x5F;&#x78;&#x6D;&#x6C;"
      horiz-adv-x="150" d=" M39.2364375 91.30425H32.8094375L28.6651875 99.1411875C28.5065 99.434125 28.34475 99.97125 28.176875 100.7525H28.10975C28.030375 100.38625 27.8473125 99.82475 27.5543125 99.074L23.39175 91.30425H16.931125L24.6001875 103.340375L17.58725 115.3734375H24.182125L27.6214375 108.156C27.89 107.5853125 28.1310625 106.9078125 28.3446875 106.1235H28.411875C28.546125 106.5935 28.7994375 107.295375 29.1656875 108.223125L32.9925625 115.373375H39.0350625L31.8206875 103.4379375L39.2364375 91.30425zM74.3469375 91.30425H68.991125V105.7055C68.991125 107.261875 69.05825 108.9800625 69.1925625 110.8599375H69.0583125C68.780625 109.382875 68.5273125 108.3178125 68.3045 107.6678125L62.664875 91.3043125H58.233625L52.49325 107.5030625C52.337625 107.9363125 52.084375 109.0563125 51.7364375 110.8599375H51.5869375C51.733375 108.485625 51.8035625 106.4043125 51.8035625 104.616V91.30425H46.92075V115.3734375H54.8614375L59.7778125 101.1065C60.1684375 99.965125 60.4553125 98.8176875 60.635375 97.664125H60.7330625C61.03825 98.99775 61.355625 100.154375 61.6913125 101.1400625L66.61075 115.3734375H74.3469375V91.30425zM98.9685 91.30425H84.6313125V115.3734375H90.05125V95.7018125H98.9685V91.30425zM80.2821875 64.401625L84.3498125 71.439L91.892625 68.40975L94.397375 67.4038125L94.7815 70.0801875L95.9346875 78.12425H104.0615H119.2474375H125V100L87.5 137.5H37.5C31.7096875 137.5 26.894375 133.4915 25.5050625 128.125L12.5 128.12425V128.125H6.25V128.12425V121.87425V84.802625V78.552625H12.5H25.0335625L25 25C25 18.125125 30.5625625 12.5 37.4374375 12.5H79.1824375L72.671125 23.7648125L68.5924375 30.820875L75.0125625 35.841375L77.133125 37.499625L75.0125625 39.157875L68.5924375 44.178375L72.671125 51.2344375L80.2821875 64.401625zM12.5 84.802625V121.87425H87.501125L115.625 93.75V84.802625H12.5zM134.8728125 34.4371875C134.9979375 35.437 135.09175 36.43725 135.09175 37.499625S134.9979375 39.56225 134.8728125 40.5620625L141.4665 45.718375C142.0604375 46.1871875 142.2165 47.030625 141.8415 47.7184375L135.591875 58.5308125C135.216875 59.21825 134.3730625 59.4680625 133.6853125 59.21825L125.9045 56.09325C124.2794375 57.3433125 122.52925 58.3744375 120.6230625 59.1556875L119.4355625 67.437C119.32875 68.197625 118.672625 68.7599375 117.9043125 68.74925H105.4043125C104.6230625 68.74925 103.9669375 68.1869375 103.8730625 67.437L102.6855625 59.1556875C100.779375 58.3744375 99.0295625 57.3120625 97.4045 56.09325L89.62325 59.21825C88.9045625 59.499375 88.092 59.21825 87.7170625 58.5308125L81.4670625 47.7184375C81.0608125 47.030625 81.2485 46.1871875 81.8420625 45.718375L88.43575 40.5620625C88.310625 39.56225 88.2171875 38.53075 88.2171875 37.499625S88.310625 35.437 88.43575 34.4371875L81.8420625 29.280875C81.2485 28.8120625 81.0920625 27.968625 81.4670625 27.2808125L87.7170625 16.4684375C88.0920625 15.781 88.935875 15.5311875 89.62325 15.781L97.4045 18.906C99.0295625 17.6559375 100.779375 16.6248125 102.6855625 15.8435625L103.8730625 7.56225C103.966875 6.81225 104.6230625 6.25 105.4043125 6.25H117.9043125C118.6855625 6.25 119.3416875 6.8123125 119.4355625 7.56225L120.6230625 15.8435625C122.52925 16.6248125 124.2794375 17.6871875 125.9045 18.906L133.6853125 15.781C134.404375 15.499875 135.2169375 15.781 135.591875 16.4684375L141.8415 27.2808125C142.2165 27.968625 142.0604375 28.8120625 141.4665 29.280875L134.8728125 34.4371875zM111.6543125 26.562125C105.62325 26.562125 100.7168125 31.4685625 100.7168125 37.499625S105.62325 48.437125 111.6543125 48.437125C117.68575 48.437125 122.5918125 43.5306875 122.5918125 37.499625S117.6856875 26.562125 111.6543125 26.562125z" />
    <glyph glyph-name="confirmar"
      unicode="&#x63;&#x6F;&#x6E;&#x66;&#x69;&#x72;&#x6D;&#x61;&#x72;"
      horiz-adv-x="150" d=" M56.25 48.75L30 75L21.25 66.25L56.25 31.25L131.25 106.25L122.5 115L56.25 48.75z" />
    <glyph glyph-name="confirmar_tudo"
      unicode="&#x63;&#x6F;&#x6E;&#x66;&#x69;&#x72;&#x6D;&#x61;&#x72;&#x5F;&#x74;&#x75;&#x64;&#x6F;"
      horiz-adv-x="150" d=" M112.5 106.25L103.75 115L64.375 75.625L73.125 66.875L112.5 106.25zM138.75 115L73.125 48.75L46.875 75L38.125 66.25L73.125 31.25L148.125 106.25L138.75 115zM2.5 66.25L37.5 31.25L46.25 40L11.25 75L2.5 66.25z" />
    <glyph glyph-name="consolidar"
      unicode="&#x63;&#x6F;&#x6E;&#x73;&#x6F;&#x6C;&#x69;&#x64;&#x61;&#x72;"
      horiz-adv-x="150" d=" M127.5625 90.0625L113.1875 104.4375L131.25 122.375L122.375 131.25L104.4375 113.1875L90.0625 127.5625V90.0625H127.5625zM59.9375 127.5625L45.5625 113.1875L27.625 131.25L18.75 122.375L36.8125 104.4375L22.4375 90.0625H59.9375V127.5625zM22.4375 59.9375L36.8125 45.5625L18.75 27.625L27.625 18.75L45.5625 36.8125L59.9375 22.4375V59.9375H22.4375zM90.0625 22.4375L104.4375 36.8125L122.375 18.75L131.25 27.625L113.1875 45.5625L127.5625 59.9375H90.0625V22.4375zM93.7499375 75C93.7499375 64.6446875 85.35525 56.25 74.9999375 56.25S56.2499375 64.6446875 56.2499375 75S64.644625 93.75 74.9999375 93.75S93.7499375 85.355375 93.7499375 75z" />
    <glyph glyph-name="consulta"
      unicode="&#x63;&#x6F;&#x6E;&#x73;&#x75;&#x6C;&#x74;&#x61;"
      horiz-adv-x="150" d=" M125.625 35.625H122.5L121.25 36.875C125 41.25 126.875 46.25 126.875 51.875C126.875 65 116.25 75 103.75 75S81.25 64.375 81.25 51.875S91.875 28.75 104.375 28.75C110 28.75 115.625 30.625 119.375 34.375L120.625 33.125V30L138.75 11.875L144.375 17.5L125.625 35.625zM104.375 35.625C95.625 35.625 88.125 42.5 88.125 51.875S95 68.125 104.375 68.125S120.625 61.25 120.625 51.875S113.125 35.625 104.375 35.625zM77.5 75C74.375 71.25 71.875 66.875 70.625 62.5H25V75H77.5zM25 112.5H125V100H25V112.5zM143.75 125V50C143.75 45.625 141.25 41.875 138.125 39.375C139.375 43.125 140.625 47.5 140.625 51.875C140.625 60.625 137.5 69.375 131.875 75.625V125H18.75V50H68.75C69.375 32.5 83.125 18.75 100 16.25V12.5H50V25H62.5V37.5H18.75C11.875 37.5 6.25 43.125 6.25 50V125C6.25 131.875 11.875 137.5 18.75 137.5H131.25C138.125 137.5 143.75 131.875 143.75 125zM25 93.75H125V81.25H124.375C118.75 85 111.875 87.5 104.375 87.5S90 85 84.375 81.25H25V93.75z" />
    <glyph glyph-name="contas_pagar"
      unicode="&#x63;&#x6F;&#x6E;&#x74;&#x61;&#x73;&#x5F;&#x70;&#x61;&#x67;&#x61;&#x72;"
      horiz-adv-x="150" d=" M93.75 96.875C101.5625 107.8125 112.5 112.8125 128.125 112.8125V100L150 121.875L128.125 143.75V131.25C106.25 128.125 96.875 112.5 93.75 96.875zM125 25H25V100H81.25V112.5H25C18.0625625 112.5 12.5625625 106.9374375 12.5625625 100L12.5 25C12.5 18.0625625 18.0625625 12.5 25 12.5H125C131.9374375 12.5 137.5 18.0625625 137.5 25V90.625H125V25zM68.75 87.5H62.5C59.0625625 87.5 56.25 84.6874375 56.25 81.25V62.5C56.25 59.0625625 59.0625625 56.25 62.5 56.25H81.25V50H56.25V37.5H68.75V31.25H81.25V37.5H87.5C90.9374375 37.5 93.75 40.3125625 93.75 43.75V62.5C93.75 65.9374375 90.9374375 68.75 87.5 68.75H68.75V75H93.75V87.5H81.25V90.625V93.75H68.75V87.5z" />
    <glyph glyph-name="contas_receber"
      unicode="&#x63;&#x6F;&#x6E;&#x74;&#x61;&#x73;&#x5F;&#x72;&#x65;&#x63;&#x65;&#x62;&#x65;&#x72;"
      horiz-adv-x="150" d=" M95.1364375 122.4111875L86.2975625 131.25V100.3140625H117.2335L108.1736875 109.373875C119.22225 120.4224375 130.49175 124.620875 143.75 122.4111875C130.49175 131.25 112.8140625 135.6694375 95.1364375 122.4111875zM125 25H25V100H68.75V112.5H25C18.0625625 112.5 12.5625625 106.9374375 12.5625625 100L12.5 25C12.5 18.0625625 18.0625625 12.5 25 12.5H125C131.9374375 12.5 137.5 18.0625625 137.5 25V90.625H125V25zM68.75 87.5H62.5C59.0625625 87.5 56.25 84.6874375 56.25 81.25V62.5C56.25 59.0625625 59.0625625 56.25 62.5 56.25H81.25V50H56.25V37.5H68.75V31.25H81.25V37.5H87.5C90.9374375 37.5 93.75 40.3125625 93.75 43.75V62.5C93.75 65.9374375 90.9374375 68.75 87.5 68.75H68.75V75H93.75V87.5H81.25V90.625V93.75H68.75V87.5z" />
    <glyph glyph-name="controladoria"
      unicode="&#x63;&#x6F;&#x6E;&#x74;&#x72;&#x6F;&#x6C;&#x61;&#x64;&#x6F;&#x72;&#x69;&#x61;"
      horiz-adv-x="150" d=" M53.644625 88.9649375L37.5 105.0810625L21.355375 88.9649375C17.09625 84.6923125 14.6973125 78.9101875 14.68075 72.8773125C14.68075 67.1725 16.905625 61.153875 21.355375 56.704125C30.239625 47.7876875 44.669875 47.7615625 53.5863125 56.6458125C53.6058125 56.66525 53.62525 56.6846875 53.644625 56.704125C58.094375 61.153875 60.31925 67.1725 60.31925 72.8773125S58.0944375 84.5151875 53.644625 88.9649375zM20.3855 71.8505C20.414 77.5553125 22.154 81.177875 25.40575 84.401125L37.5 96.7520625L49.59425 84.2585C52.846 81.0638125 54.586 77.5553125 54.6145 71.8505H20.3855zM128.6440625 88.9649375L112.499375 105.0810625L96.35475 88.9649375C92.095625 84.6923125 89.6966875 78.9101875 89.680125 72.8773125C89.680125 67.1725 91.905 61.153875 96.35475 56.704125C105.239 47.7876875 119.66925 47.7615625 128.5856875 56.6458125C128.6051875 56.66525 128.624625 56.6846875 128.644 56.704125C133.09375 61.153875 135.318625 67.1725 135.318625 72.8773125S133.0938125 84.5151875 128.6440625 88.9649375zM95.3849375 71.8505C95.4134375 77.5553125 97.1534375 81.177875 100.4051875 84.401125L112.4994375 96.7520625L124.5936875 84.2585C127.8454375 81.0638125 129.5854375 77.5553125 129.6139375 71.8505H95.3849375zM78.125 37.50075V100.2014375C82.5428125 101.414875 86.004625 104.913375 87.131125 109.375375H112.5V115.625H87.131125C85.73075 121.1711875 80.749125 125.293 74.7680625 125.293S63.805 121.1711875 62.404625 115.625H37.5V109.375375H62.404625C63.570375 104.7580625 67.2340625 101.16575 71.875 100.07975V37.5008125H37.5V24.998875H71.875H78.125H113.023375V37.5008125H78.125zM69.131875 109.375375C68.925875 109.743875 68.769875 110.1379375 68.622625 110.5354375C68.4200625 111.165625 68.225125 111.8038125 68.225125 112.500375C68.225125 113.1965625 68.4200625 113.835125 68.622625 114.4649375C68.769875 114.8620625 68.9255 115.2553125 69.131125 115.62425C70.25075 117.628875 72.313375 119.043 74.768125 119.043C77.2225 119.043 79.285125 117.628875 80.40475 115.62425C80.610375 115.255375 80.766 114.8620625 80.91325 114.4649375C81.1158125 113.835125 81.31075 113.1965625 81.31075 112.500375C81.31075 111.8038125 81.1158125 111.165625 80.91325 110.5354375C80.766 110.1379375 80.61 109.743875 80.404 109.375375C79.28475 107.371125 77.2221875 105.957375 74.7681875 105.957375C72.3136875 105.9574375 70.2510625 107.371125 69.131875 109.375375z" />
    <glyph glyph-name="copiar"
      unicode="&#x63;&#x6F;&#x70;&#x69;&#x61;&#x72;"
      horiz-adv-x="150" d=" M100 143.75H25C18.125 143.75 12.5 138.125 12.5 131.25V43.75H25V131.25H100V143.75zM118.75 118.75H50C43.125 118.75 37.5 113.125 37.5 106.25V18.75C37.5 11.875 43.125 6.25 50 6.25H118.75C125.625 6.25 131.25 11.875 131.25 18.75V106.25C131.25 113.125 125.625 118.75 118.75 118.75zM118.75 18.75H50V106.25H118.75V18.75z" />
    <glyph glyph-name="copiar_selecao"
      unicode="&#x63;&#x6F;&#x70;&#x69;&#x61;&#x72;&#x5F;&#x73;&#x65;&#x6C;&#x65;&#x63;&#x61;&#x6F;"
      horiz-adv-x="150" d=" M100 143.75H25C18.125 143.75 12.5 138.125 12.5 131.25V43.75H25V131.25H100V143.75zM118.75 118.75H50C43.125 118.75 37.5 113.125 37.5 106.25V18.75C37.5 11.875 43.125 6.25 50 6.25H118.75C125.625 6.25 131.25 11.875 131.25 18.75V106.25C131.25 113.125 125.625 118.75 118.75 118.75zM118.75 18.75H50V106.25H118.75V18.75zM111.25 55.625H57.5V66.25H111.25V55.625zM111.25 33.75H57.5V44.375H111.25V33.75z" />
    </font>
</defs>
</svg>
