<?xml version="1.0" standalone="no"?> 
<!DOCTYPE svg PUBLIC "-//W3C//DTD SVG 1.1//EN" "http://www.w3.org/Graphics/SVG/1.1/DTD/svg11.dtd" >
<svg xmlns="http://www.w3.org/2000/svg">
<defs>
  <font id="mv-hosp" horiz-adv-x="600">
    <font-face font-family="mv-hosp"
      units-per-em="150" ascent="150"
      descent="0" />
    <missing-glyph horiz-adv-x="0" />
    <glyph glyph-name="abordagem_inicial"
      unicode="&#x61;&#x62;&#x6F;&#x72;&#x64;&#x61;&#x67;&#x65;&#x6D;&#x5F;&#x69;&#x6E;&#x69;&#x63;&#x69;&#x61;&#x6C;"
      horiz-adv-x="150" d=" M40.7291875 96.484625C26.615125 96.484625 15.048625 89.5551875 15.048625 89.5551875L20.1841875 65.2926875L61.2696875 65.6700625L66.40525 89.35925C66.4053125 89.3593125 54.843 96.484625 40.7291875 96.484625zM53.4645625 76.60925H44.9051875V68.050125H36.3465625V76.60925H27.786875V85.168125H36.3465625V93.72725H44.9051875V85.168125H53.4645625V76.60925zM30.3125 41.4844375C32.6856875 41.4844375 34.609375 39.5605 34.609375 37.1875625C34.609375 34.814375 32.6856875 32.8906875 30.3125 32.8906875C27.9395625 32.8906875 26.015625 34.814375 26.015625 37.1875625C26.015625 39.5605 27.9395 41.4844375 30.3125 41.4844375zM50.937625 32.8906875C48.5644375 32.8906875 46.64075 34.814375 46.64075 37.1875625C46.64075 39.5605 48.5644375 41.4844375 50.937625 41.4844375C53.3105625 41.4844375 55.2345 39.5605 55.2345 37.1875625C55.2345 34.814375 53.310625 32.8906875 50.937625 32.8906875zM75.0000625 40.625C75.0000625 21.6499375 59.600125 6.25 40.6250625 6.25S6.2500625 21.6499375 6.2500625 40.625C6.2500625 49.927625 9.9665625 58.3569375 15.976 64.547625L17.18425 59.3530625H29.9503125C26.36575 52.386375 20.502125 46.787125 13.2970625 43.58125C13.194 42.61875 13.12525 41.621875 13.12525 40.6250625C13.12525 25.465625 25.4656875 13.125 40.6250625 13.125S68.1251875 25.465625 68.1251875 40.6250625C68.1251875 43.34075 67.712625 45.953125 66.990625 48.39375C54.541125 45.5018125 41.68225 49.8485 33.4205 59.353125H63.1946875L64.7129375 65.1241875C71.0559375 58.88675 75.0000625 50.2171875 75.0000625 40.625zM130.625 137.5H75.625C71.84375 137.5 68.784375 134.40625 68.784375 130.625L68.75 68.75L82.5 82.5H130.625C134.40625 82.5 137.5 85.59375 137.5 89.375V130.625C137.5 134.40625 134.40625 137.5 130.625 137.5zM82.5 113.4375H123.75V106.5625H82.5V113.4375zM110 96.25H82.5V103.125H110V96.25zM123.75 116.875H82.5V123.75H123.75V116.875zM115.80525 46.6948125C123.525 46.6948125 129.777625 52.9474375 129.777625 60.6671875S123.525 74.6395625 115.80525 74.6395625S101.832875 68.3869375 101.832875 60.6671875S108.0855 46.6948125 115.80525 46.6948125zM115.80525 39.708625C106.4786875 39.708625 87.8605 35.027875 87.8605 25.73625V18.7500625H143.75V25.73625C143.75 35.027875 125.1318125 39.708625 115.80525 39.708625z" />
    <glyph glyph-name="acolhimento"
      unicode="&#x61;&#x63;&#x6F;&#x6C;&#x68;&#x69;&#x6D;&#x65;&#x6E;&#x74;&#x6F;"
      horiz-adv-x="150" d=" M75 105.625C83.75 105.625 90.625 112.5 90.625 121.25S83.75 136.875 75 136.875S59.375 130 59.375 121.25S66.25 105.625 75 105.625zM75 98.125C65 98.125 44.375 93.125 44.375 82.5V75H106.25V82.5C105.625 93.125 85 98.125 75 98.125zM71.25 14.375V30.625C71.25 38.75 67.5 46.25 61.25 50.625C59.375 51.875 56.875 53.75 53.75 55C40 61.875 36.875 70 34.375 66.875C25.625 57.5 36.875 57.5 48.75 45C48.75 45 21.25 36.875 20.625 88.75C20.625 88.75 16.875 97.5 14.375 88.75C12.5 79.375 3.125 37.5 49.375 23.125C50 23.125 50 22.5 50 21.875L51.25 13.75C51.25 13.125 51.875 12.5 52.5 12.5H70C70.625 13.125 71.25 13.75 71.25 14.375zM80 12.5H97.5C98.125 12.5 98.75 13.125 98.75 13.75L100 21.875C100 22.5 100 23.125 100.625 23.125C146.875 37.5 137.5 79.375 135.625 88.125C133.125 96.875 129.375 88.125 129.375 88.125C128.75 36.25 101.25 44.375 101.25 44.375C113.125 56.875 124.375 56.875 115.625 66.25C113.125 69.375 110 61.25 96.25 54.375C93.75 53.125 91.25 51.875 88.75 50C82.5 45.625 78.75 38.125 78.75 30V13.75C78.75 13.75 79.375 13.125 80 12.5z" />
    <glyph glyph-name="acolhimento_visualizar"
      unicode="&#x61;&#x63;&#x6F;&#x6C;&#x68;&#x69;&#x6D;&#x65;&#x6E;&#x74;&#x6F;&#x5F;&#x76;&#x69;&#x73;&#x75;&#x61;&#x6C;&#x69;&#x7A;&#x61;&#x72;"
      horiz-adv-x="150" d=" M71.25 14.375V30.625C71.25 38.75 67.5 46.25 61.25 50.625C59.375 51.875 56.875 53.75 53.75 55C40 61.875 36.875 70 34.375 66.875C25.625 57.5 36.875 57.5 48.75 45C48.75 45 21.25 36.875 20.625 88.75C20.625 88.75 16.875 97.5 14.375 88.75C12.5 79.375 3.125 37.5 49.375 23.125C50 23.125 50 22.5 50 21.875L51.25 13.75C51.25 13.125 51.875 12.5 52.5 12.5H70C70.625 13.125 71.25 13.75 71.25 14.375zM80 12.5H97.5C98.125 12.5 98.75 13.125 98.75 13.75L100 21.875C100 22.5 100 23.125 100.625 23.125C146.875 37.5 137.5 79.375 135.625 88.125C133.125 96.875 129.375 88.125 129.375 88.125C128.75 36.25 101.25 44.375 101.25 44.375C113.125 56.875 124.375 56.875 115.625 66.25C113.125 69.375 110 61.25 96.25 54.375C93.75 53.125 91.25 51.875 88.75 50C82.5 45.625 78.75 38.125 78.75 30V13.75C78.75 13.75 79.375 13.125 80 12.5zM88.125 91.875H85.625L84.375 93.125C88.125 96.875 90 102.5 90 108.125C90 120.625 80 131.25 66.875 131.25S44.375 120.625 44.375 108.125S54.375 85 67.5 85C73.125 85 78.125 86.875 82.5 90.625L83.75 89.375V86.875L101.25 69.375L106.25 74.375L88.125 91.875zM66.875 91.875C58.125 91.875 51.25 98.75 51.25 107.5S58.125 123.125 66.875 123.125S82.5 116.25 82.5 107.5S75.625 91.875 66.875 91.875z" />
    <glyph glyph-name="acompanhamento"
      unicode="&#x61;&#x63;&#x6F;&#x6D;&#x70;&#x61;&#x6E;&#x68;&#x61;&#x6D;&#x65;&#x6E;&#x74;&#x6F;"
      horiz-adv-x="150" d=" M75 93.75C88.8125 93.75 100 104.9375 100 118.75S88.8125 143.75 75 143.75S50 132.5625 50 118.75S61.1875 93.75 75 93.75zM75 81.25C58.3125 81.25 25 72.875 25 56.25V43.75H125V56.25C125 72.875 91.6875 81.25 75 81.25zM121.8735 37.5026875C114.3139375 37.5026875 108.0105 32.133875 106.5624375 25.0011875H90.3125625C88.8645 32.1339375 82.561125 37.5026875 75.0015 37.5026875S61.138875 32.133875 59.6908125 25.0011875H43.4368125C41.98875 32.1339375 35.685375 37.5026875 28.12575 37.5026875C19.49575 37.5026875 12.5 30.5065 12.5 21.8765S19.49575 6.25075 28.12575 6.25075C35.6853125 6.25075 41.9895 11.6203125 43.4371875 18.75225H59.6904375C61.138125 11.6203125 67.441875 6.25075 75.0015 6.25075S88.86525 11.6203125 90.3129375 18.75225H106.562C108.0096875 11.6203125 114.313875 6.25075 121.8734375 6.25075C130.5034375 6.25075 137.4991875 13.2465 137.4991875 21.8765S130.5034375 37.5026875 121.8735 37.5026875z" />
    <glyph glyph-name="acompanhamento_exportar"
      unicode="&#x61;&#x63;&#x6F;&#x6D;&#x70;&#x61;&#x6E;&#x68;&#x61;&#x6D;&#x65;&#x6E;&#x74;&#x6F;&#x5F;&#x65;&#x78;&#x70;&#x6F;&#x72;&#x74;&#x61;&#x72;"
      horiz-adv-x="150" d=" M132.2918125 21.489375V48.2633125H124.653V21.489375H113.1948125L128.4724375 6.25L143.75 21.489375H132.2918125zM105.5560625 74.999125L90.2785 59.75975H101.7366875V32.9858125H109.3755V59.75975H120.8336875L105.5560625 74.999125zM87.5 43.75H25V56.25C25 72.8751875 58.312625 81.25 75 81.25C80.9143125 81.25 88.90075 80.116625 96.76625 78.014375L75.0019375 56.25H87.5V43.75zM50 118.75C50 132.562625 61.187375 143.75 75 143.75S100 132.562625 100 118.75C100 104.93775 88.812625 93.75 75 93.75S50 104.93775 50 118.75zM90.3125625 25.001125H100V18.75225H90.3129375C88.86525 11.6203125 82.5610625 6.25075 75.0015 6.25075S61.138125 11.6203125 59.6904375 18.75225H43.4371875C41.9895 11.6203125 35.6853125 6.25075 28.12575 6.25075C19.49575 6.25075 12.5 13.2465625 12.5 21.8765S19.49575 37.502625 28.12575 37.502625C35.6853125 37.502625 41.98875 32.1338125 43.4368125 25.001125H59.690875C61.1389375 32.133875 67.4419375 37.502625 75.0015625 37.502625S88.8645 32.133875 90.3125625 25.001125z" />
    <glyph glyph-name="acompanhante"
      unicode="&#x61;&#x63;&#x6F;&#x6D;&#x70;&#x61;&#x6E;&#x68;&#x61;&#x6E;&#x74;&#x65;"
      horiz-adv-x="150" d=" M100 81.25C110.625 81.25 118.75 89.375 118.75 100S110.625 118.75 100 118.75S81.25 110.625 81.25 100S89.375 81.25 100 81.25zM50 81.25C60.625 81.25 68.75 89.375 68.75 100S60.625 118.75 50 118.75S31.25 110.625 31.25 100S39.375 81.25 50 81.25zM50 68.75C35.625 68.75 6.25 61.25 6.25 46.875V31.25H93.75V46.875C93.75 61.25 64.375 68.75 50 68.75zM100 68.75C98.125 68.75 96.25 68.75 93.75 68.125C101.25 63.125 106.25 55.625 106.25 46.875V31.25H143.75V46.875C143.75 61.25 114.375 68.75 100 68.75z" />
    <glyph glyph-name="acompanhante_movimentacao"
      unicode="&#x61;&#x63;&#x6F;&#x6D;&#x70;&#x61;&#x6E;&#x68;&#x61;&#x6E;&#x74;&#x65;&#x5F;&#x6D;&#x6F;&#x76;&#x69;&#x6D;&#x65;&#x6E;&#x74;&#x61;&#x63;&#x61;&#x6F;"
      horiz-adv-x="150" d=" M143.4425625 143.7058125L118.8831875 143.7365625L128.1045 134.51525L106.5574375 112.9681875L112.7049375 106.8206875L134.252 128.36775L143.4733125 119.1464375L143.4425625 143.7058125zM121.8955 79.126L143.4425625 100.6730625L137.2950625 106.8205625L115.748 85.2735L106.5266875 94.4948125L106.5574375 69.9354375L131.1168125 69.9046875L121.8955 79.126zM81.25 75C81.25 85.6246875 89.3745625 93.74925 99.99925 93.75V62.500375H114.0640625C110.6705 58.6605 105.726625 56.25 100 56.25C89.3749375 56.25 81.25 64.3749375 81.25 75zM31.25 75C31.25 85.6250625 39.3749375 93.75 50 93.75S68.75 85.6250625 68.75 75S60.6250625 56.25 50 56.25S31.25 64.3749375 31.25 75zM143.75 21.875V6.25H106.25V21.875C106.25 30.625125 101.2500625 38.124875 93.75 43.125125C96.250125 43.75 98.1250625 43.75 100 43.75C114.3749375 43.75 143.75 36.2499375 143.75 21.875zM93.75 21.875V6.25H6.25V21.875C6.25 36.2499375 35.6250625 43.75 50 43.75S93.75 36.2499375 93.75 21.875z" />
    <glyph glyph-name="admissao_medica"
      unicode="&#x61;&#x64;&#x6D;&#x69;&#x73;&#x73;&#x61;&#x6F;&#x5F;&#x6D;&#x65;&#x64;&#x69;&#x63;&#x61;"
      horiz-adv-x="150" d=" M81.25 87.5C81.25 101.3125 70.0625 112.5 56.25 112.5S31.25 101.3125 31.25 87.5S42.4375 62.5 56.25 62.5S81.25 73.6875 81.25 87.5zM6.25 25V12.5H106.25V25C106.25 41.625 72.9375 50 56.25 50S6.25 41.625 6.25 25zM125.0143125 143.75H100.033375C96.5985 143.75 93.819375 140.939625 93.819375 137.50475L93.788125 87.542875C93.788125 84.108 96.56725 81.297625 100.002125 81.297625H137.50475C140.939625 81.297625 143.75 84.108 143.75 87.542875V125.0143125L125.0143125 143.75zM131.2595625 100.033375H121.8916875V90.6655H115.6464375V100.033375H106.2785625V106.2785625H115.6464375V115.6464375H121.8916875V106.2785625H131.2595625V100.033375zM121.8916875 121.8916875V139.0660625L139.0660625 121.8916875H121.8916875zM125.000375 74.999125L137.5 62.4995L134.54175 59.54125L127.083625 67.0201875V43.75H102.0843125V47.9165625H122.9170625V67.0201875L115.4589375 59.54125L112.5006875 62.4995L125.000375 74.999125z" />
    <glyph glyph-name="afericao"
      unicode="&#x61;&#x66;&#x65;&#x72;&#x69;&#x63;&#x61;&#x6F;"
      horiz-adv-x="150" d=" M31.25 56.25H49.969875V50H31.25V56.25zM31.25 68.75H49.969875V75H31.25V68.75zM31.25 87.5H49.969875V93.75H31.25V87.5zM31.25 106.25H49.969875V112.5H31.25V106.25zM31.25 125H49.969875V131.25H31.25V125zM93.7523125 31.24925C93.7523125 20.91025 85.340875 12.49925 75.0019375 12.49925S56.2519375 20.91025 56.2519375 31.24925C56.2519375 36.769875 58.694875 41.6896875 62.50425 45.1240625V50V125C62.50425 131.892375 68.111875 137.5 75.00425 137.5S87.50425 131.892375 87.50425 125V50V45.120625C91.31125 41.686625 93.7523125 36.7679375 93.7523125 31.24925zM68.7541875 125V93.75H81.2541875V125C81.2541875 128.4519375 78.45575 131.25 75.0041875 131.25C71.55225 131.25 68.7541875 128.4519375 68.7541875 125z" />
    <glyph glyph-name="alergia"
      unicode="&#x61;&#x6C;&#x65;&#x72;&#x67;&#x69;&#x61;"
      horiz-adv-x="150" d=" M75 75C88.812625 75 100 86.187375 100 100C100 105.6335625 98.0705 110.7730625 94.9295 114.9525L87.8856875 107.9086875L80.8258125 114.9689375L87.4298125 121.5729375C83.755875 123.69425 79.5494375 125 75 125C70.68975 125 66.6973125 123.8109375 63.1584375 121.8921875L70.08175 114.968875L63.021875 107.908625L55.961625 114.968875L62.5614375 121.5683125C55.08575 117.24775 50 109.2598125 50 100C50 86.187375 61.187375 75 75 75zM94.1894375 90.861125L87.1295625 83.800875L80.069375 90.861125L87.129625 97.921L94.1894375 90.861125zM75.4535625 109.596625L82.5138125 102.53675L75.4535625 95.4765L68.3936875 102.53675L75.4535625 109.596625zM63.7779375 97.921L70.8381875 90.861125L63.7779375 83.800875L56.7176875 90.861125L63.7779375 97.921zM90.13825 119.776125C91.88425 118.4371875 93.4360625 116.88575 94.775 115.13975L90.13825 119.776125zM124.90275 35.570125L117.8425 42.63L121.5149375 46.3024375C120.199625 47.88475 118.5825625 49.3606875 116.692375 50.7114375L113.22675 47.2458125L106.166875 54.3060625L107.5355625 55.67475C101.407625 58.2794375 94.478625 60.1356875 88.006625 61.245L94.9459375 54.3060625L87.8856875 47.2458125L80.8258125 54.3060625L87.7998125 61.2800625C83.092875 62.0765625 78.64225 62.5 75 62.5C67.00325 62.5 55.2066875 60.554875 45.069875 56.72225L47.4865 54.306L40.42625 47.2458125L35.5296875 52.142375C33.552125 50.92775 31.7576875 49.6178125 30.2505 48.1899375L35.8104375 42.63L28.750625 35.570125L25.2025625 39.1181875C25.1296875 38.5799375 25 38.0565625 25 37.5V25H39.320375L33.366375 30.954375L40.42625 38.01425L47.4865 30.954375L41.532125 25H62.6720625L56.7176875 30.954375L63.7779375 38.01425L70.8381875 30.954375L64.8838125 25H86.7798125L80.8258125 30.954375L87.8856875 38.01425L94.9459375 30.954375L88.9915625 25H112.1208125L106.1668125 30.954375L113.2266875 38.01425L120.2869375 30.954375L114.3325625 25H125V35.6674375L124.90275 35.570125zM52.10225 35.570125L45.0420625 42.63L52.1023125 49.69025L59.1621875 42.63L52.10225 35.570125zM56.7176875 54.306L63.7779375 61.365875L70.8381875 54.306L63.7779375 47.24575L56.7176875 54.306zM75.4535625 35.570125L68.3936875 42.63L75.4535625 49.69025L82.5138125 42.63L75.4535625 35.570125zM101.5510625 35.570125L94.4908125 42.63L101.5510625 49.69025L108.6113125 42.63L101.5510625 35.570125z" />
    <glyph glyph-name="alta_medica"
      unicode="&#x61;&#x6C;&#x74;&#x61;&#x5F;&#x6D;&#x65;&#x64;&#x69;&#x63;&#x61;"
      horiz-adv-x="150" d=" M131.2501875 56.25H118.750625V65.6231875C118.750625 69.0918125 115.9694375 71.873 112.5008125 71.873H100.00125C96.532625 71.873 93.7514375 69.0918125 93.7514375 65.6231875V56.25H81.251875C77.78325 56.25 75.0333125 53.4688125 75.0333125 50.0001875L75.0020625 18.74975C75.0020625 15.281125 77.7831875 12.5 81.251875 12.5H131.25025C134.718875 12.5 137.5 15.281125 137.5 18.7498125V50.00025C137.5 53.468875 134.718875 56.25 131.2501875 56.25zM112.5008125 56.25H100.00125V65.6231875H112.5008125V56.25zM34.375 12.5V59.375H25V93.75C25 100.625 30.625 106.25 37.5 106.25H56.25C63.125 106.25 68.75 100.625 68.75 93.75V59.375H59.375V12.5H34.375zM46.875 112.5C53.8125 112.5 59.375 118.0625 59.375 125S53.8125 137.5 46.875 137.5S34.375 131.9375 34.375 125S39.9375 112.5 46.875 112.5z" />
    <glyph glyph-name="altura"
      unicode="&#x61;&#x6C;&#x74;&#x75;&#x72;&#x61;"
      horiz-adv-x="150" d=" M112.5 18.75V131.25C112.5 138.125 106.875 143.75 100 143.75H50C43.125 143.75 37.5 138.125 37.5 131.25V18.75C37.5 11.875 43.125 6.25 50 6.25H100C106.875 6.25 112.5 11.875 112.5 18.75zM50 18.75V131.25H100V118.75H75V106.25H100V93.75H75V81.25H100V68.75H75V56.25H100V43.75H75V31.25H100V18.75H50z" />
    <glyph glyph-name="ambulancia"
      unicode="&#x61;&#x6D;&#x62;&#x75;&#x6C;&#x61;&#x6E;&#x63;&#x69;&#x61;"
      horiz-adv-x="150" d=" M112.5 131.25H118.75V118.75H112.5V131.25zM130.625 121.875L139.375 130.625L143.75 126.25L135 117.5L130.625 121.875zM131.25 106.25H143.75V100H131.25V106.25zM125 100V112.5H112.5V100H106.25V125H18.75C11.875 125 6.25 119.375 6.25 112.5V43.75H18.75C18.75 33.125 26.875 25 37.5 25S56.25 33.125 56.25 43.75H93.75C93.75 33.125 101.875 25 112.5 25S131.25 33.125 131.25 43.75H143.75V75L125 100L125 100zM37.5 34.375C32.5 34.375 28.125 38.75 28.125 43.75S32.5 53.125 37.5 53.125S46.875 48.75 46.875 43.75S42.5 34.375 37.5 34.375zM81.25 81.25H62.5V62.5H50V81.25H31.25V93.75H50V112.5H62.5V93.75H81.25V81.25zM112.5 34.375C107.5 34.375 103.125 38.75 103.125 43.75S107.5 53.125 112.5 53.125S121.875 48.75 121.875 43.75S117.5 34.375 112.5 34.375zM134.375 75H106.25V90.625H121.875L134.375 75z" />
    <glyph glyph-name="ambulatorial"
      unicode="&#x61;&#x6D;&#x62;&#x75;&#x6C;&#x61;&#x74;&#x6F;&#x72;&#x69;&#x61;&#x6C;"
      horiz-adv-x="150" d=" M75 131.25L12.5 75H31.25V25H62.5V50H87.5V25H118.75V75H137.5L75 131.25zM100 81.25H81.25V62.5H68.75V81.25H50V93.75H68.75V112.5H81.25V93.75H100V81.25z" />
    <glyph glyph-name="anestesia"
      unicode="&#x61;&#x6E;&#x65;&#x73;&#x74;&#x65;&#x73;&#x69;&#x61;"
      horiz-adv-x="150" d=" M5 109.375L5 105L9.375 105L9.375 53.125L18.125 42.5V22.5L20 18.75L21.875 23.125V43.75L30.625 54.375V105L35 105L35 109.375L5 109.375zM26.25 81.25L13.75 81.25L13.75 105L26.25 105L26.25 81.25zM30.625 125L21.875 125L21.875 112.5H16.875L16.875 125L8.75 125L8.75 130.625H30.625V125zM66.25 52.5C74.375 52.5 80.625 58.75 80.625 66.875S74.375 81.25 66.25 81.25S51.875 75 51.875 66.875S58.75 52.5 66.25 52.5zM124.375 81.25H85.625V47.5H46.875V91.25H37.5V18.75H46.875V33.125H133.75V18.75H143.75V62.5C143.75 73.125 135 81.25 124.375 81.25z" />
    <glyph glyph-name="anotacao_enfermagem"
      unicode="&#x61;&#x6E;&#x6F;&#x74;&#x61;&#x63;&#x61;&#x6F;&#x5F;&#x65;&#x6E;&#x66;&#x65;&#x72;&#x6D;&#x61;&#x67;&#x65;&#x6D;"
      horiz-adv-x="150" d=" M53.2071875 129.1408125C33.9851875 129.1408125 18.2328125 119.7035625 18.2328125 119.7035625L25.227 86.660375L81.1814375 87.174375L88.175625 119.43675C88.1755625 119.4368125 72.428875 129.1408125 53.2071875 129.1408125zM70.5515625 102.0724375H58.8945V90.41575H47.2385625V102.0724375H35.5810625V113.72875H47.2385V125.3855H58.8945V113.7288125H70.5515625V102.0724375zM39.0206875 54.235875C42.25275 54.235875 44.872625 51.6156875 44.872625 48.3839375C44.872625 45.151875 42.25275 42.532 39.0206875 42.532C35.7889375 42.532 33.16875 45.151875 33.16875 48.3839375C33.16875 51.615625 35.7889375 54.235875 39.0206875 54.235875zM67.110125 42.532C63.8780625 42.532 61.2581875 45.151875 61.2581875 48.3839375C61.2581875 51.6156875 63.8780625 54.235875 67.110125 54.235875C70.341875 54.235875 72.9620625 51.6156875 72.9620625 48.3839375C72.9620625 45.1519375 70.341875 42.532 67.110125 42.532zM99.8808125 53.0654375C99.8808125 27.2231875 78.907625 6.25 53.0654375 6.25S6.25 27.2231875 6.25 53.0654375C6.25 65.73475 11.3115 77.214625 19.49575 85.6456875L21.14125 78.5711875H38.527375C33.6455 69.08325 25.659875 61.4575625 15.84725 57.0915C15.706875 55.7806875 15.6133125 54.423 15.6133125 53.0654375C15.6133125 32.41975 32.41975 15.613 53.0654375 15.613S90.517875 32.41975 90.517875 53.0654375C90.517875 56.764 89.956 60.32175 88.97275 63.645625C72.01775 59.707125 54.5051875 65.626875 43.2535 78.5711875H83.803L85.8706875 86.4308125C94.50925 77.936125 99.8808125 66.129 99.8808125 53.0654375zM125 143.75H100C96.5625 143.75 93.78125 140.9375 93.78125 137.5L93.75 87.5C93.75 84.0625 96.53125 81.25 99.96875 81.25H137.5C140.9375 81.25 143.75 84.0625 143.75 87.5V125L125 143.75zM131.25 93.75H106.25V100H131.25V93.75zM131.25 106.25H106.25V112.5H131.25V106.25zM121.875 121.875V139.0625L139.0625 121.875H121.875z" />
    <glyph glyph-name="app_nao_frequente"
      unicode="&#x61;&#x70;&#x70;&#x5F;&#x6E;&#x61;&#x6F;&#x5F;&#x66;&#x72;&#x65;&#x71;&#x75;&#x65;&#x6E;&#x74;&#x65;"
      horiz-adv-x="150" d=" M81.25 68.75V18.75H131.25V68.75H81.25zM18.75 18.75H68.75V68.75H18.75V18.75zM18.75 131.25V81.25H68.75V131.25H18.75zM106.2514375 125.0005C116.590375 125.0005 125.0016875 116.5891875 125.0016875 106.25025S116.590375 87.5 106.2514375 87.5S87.5011875 95.9113125 87.5011875 106.25025S95.9125 125.0005 106.2514375 125.0005M106.2514375 131.2505C92.4441875 131.2505 81.2511875 120.0575 81.2511875 106.25025S92.4441875 81.25 106.2514375 81.25S131.2516875 92.443 131.2516875 106.25025S120.0586875 131.2505 106.2514375 131.2505L106.2514375 131.2505z" />
    <glyph glyph-name="aprazamento"
      unicode="&#x61;&#x70;&#x72;&#x61;&#x7A;&#x61;&#x6D;&#x65;&#x6E;&#x74;&#x6F;"
      horiz-adv-x="150" d=" M116.25 61.875C100.625 61.875 88.75 49.375 88.75 34.375S101.25 6.875 116.25 6.875C131.875 6.875 143.75 19.375 143.75 34.375S131.25 61.875 116.25 61.875zM116.25 11.875C103.75 11.875 93.75 21.875 93.75 34.375S103.75 56.875 116.25 56.875S138.75 46.875 138.75 34.375S128.125 11.875 116.25 11.875zM116.875 50H112.5V33.125L126.875 24.375L128.75 27.5L116.25 35C116.875 35 116.875 50 116.875 50zM75 25H25V93.75H112.5V68.75H125V112.5C125 119.375 119.375 125 112.5 125H106.25V137.5H93.75V125H43.75V137.5H31.25V125H25C18.125 125 12.5 119.375 12.5 112.5V25C12.5 18.125 18.125 12.5 25 12.5H75V25zM87.5 81.25H100V68.75H87.5V81.25zM62.5 81.25H75V68.75H62.5V81.25zM37.5 56.25H50V43.75H37.5V56.25zM62.5 56.25H75V43.75H62.5V56.25z" />
    <glyph glyph-name="aprazamento_abrir"
      unicode="&#x61;&#x70;&#x72;&#x61;&#x7A;&#x61;&#x6D;&#x65;&#x6E;&#x74;&#x6F;&#x5F;&#x61;&#x62;&#x72;&#x69;&#x72;"
      horiz-adv-x="150" d=" M132.5 47.5H112.5L107.5 52.5H92.5C89.75 52.5 87.525 50.25 87.525 47.5L87.5 17.5C87.5 14.75 89.75 12.5 92.5 12.5H132.5C135.25 12.5 137.5 14.75 137.5 17.5V42.5C137.5 45.25 135.25 47.5 132.5 47.5zM75 25H25V93.75H112.5V68.75H125V112.5C125 119.374875 119.374875 125 112.5 125H106.25V137.5H93.75V125H43.75V137.5H31.25V125H25C18.0625625 125 12.5625625 119.374875 12.5625625 112.5L12.5 25C12.5 18.125125 18.0625625 12.5 25 12.5H75V25zM87.5 81.25H100V68.75H87.5V81.25zM62.5 81.25H75V68.75H62.5V81.25zM37.5 56.25H50V43.75H37.5V56.25zM62.5 56.25H75V43.75H62.5V56.25z" />
    <glyph glyph-name="aprazamento_cancelar"
      unicode="&#x61;&#x70;&#x72;&#x61;&#x7A;&#x61;&#x6D;&#x65;&#x6E;&#x74;&#x6F;&#x5F;&#x63;&#x61;&#x6E;&#x63;&#x65;&#x6C;&#x61;&#x72;"
      horiz-adv-x="150" d=" M75 25H25V93.75H112.5V68.75H125V112.5C125 119.375 119.375 125 112.5 125H106.25V137.5H93.75V125H43.75V137.5H31.25V125H25C18.125 125 12.5 119.375 12.5 112.5L12.5 25C12.5 18.125 18.125 12.5 25 12.5H75V25zM87.5 81.25H100V68.75H87.5V81.25zM62.5 81.25H75V68.75H62.5V81.25zM37.5 56.25H50V43.75H37.5V56.25zM62.5 56.25H75V43.75H62.5V56.25zM115.625 62.5C100 62.5 87.5 50 87.5 34.375S100 6.25 115.625 6.25S143.75 18.75 143.75 34.375S131.25 62.5 115.625 62.5zM93.125 34.375C93.125 46.875 103.125 56.875 115.625 56.875C120.625 56.875 125.625 55 129.375 51.875L98.125 20.625C95 24.375 93.125 29.375 93.125 34.375zM115.625 11.875C110.625 11.875 105.625 13.75 101.875 16.875L133.125 48.125C136.25 44.375 138.125 39.375 138.125 34.375C138.125 21.875 128.125 11.875 115.625 11.875z" />
    <glyph glyph-name="aprazamento_finalizar"
      unicode="&#x61;&#x70;&#x72;&#x61;&#x7A;&#x61;&#x6D;&#x65;&#x6E;&#x74;&#x6F;&#x5F;&#x66;&#x69;&#x6E;&#x61;&#x6C;&#x69;&#x7A;&#x61;&#x72;"
      horiz-adv-x="150" d=" M87.5 25H25V93.75H112.5V68.75H125V112.5C125 119.375 119.375 125 112.5 125H106.25V137.5H93.75V125H43.75V137.5H31.25V125H25C18.125 125 12.5 119.375 12.5 112.5V25C12.5 18.125 18.125 12.5 25 12.5H87.5V25zM87.5 81.25H100V68.75H87.5V81.25zM62.5 81.25H75V68.75H62.5V81.25zM37.5 56.25H50V43.75H37.5V56.25zM62.5 56.25H75V43.75H62.5V56.25zM132.5000625 38.124875H129.9999375V48.7499375C129.9999375 54.9999375 125 59.999875 118.75 59.999875S107.5000625 54.9999375 107.5000625 48.7499375V38.124875H104.9999375C102.5001875 38.124875 100.624875 36.2499375 100.624875 33.7501875V16.875125C100.624875 14.375 102.5001875 12.5000625 104.9999375 12.5000625H132.5000625C134.9998125 12.5000625 136.875125 14.375 136.875125 16.875125V33.7501875C137.5 36.2499375 134.999875 38.124875 132.5000625 38.124875zM118.75 20.3270625C116.249875 20.3270625 114.3749375 22.202 114.3749375 24.702125S116.249875 29.07725 118.75 29.07725S123.1250625 27.2023125 123.1250625 24.7021875C123.7499375 22.82725 121.250125 20.3270625 118.75 20.3270625zM111.875125 38.124875V48.7499375C111.875125 52.5001875 115.000125 55.6251875 118.75 55.6251875S125.624875 52.5001875 125.624875 48.7499375V38.124875H111.875125z" />
    <glyph glyph-name="aprazamento_finalizar_selec"
      unicode="&#x61;&#x70;&#x72;&#x61;&#x7A;&#x61;&#x6D;&#x65;&#x6E;&#x74;&#x6F;&#x5F;&#x66;&#x69;&#x6E;&#x61;&#x6C;&#x69;&#x7A;&#x61;&#x72;&#x5F;&#x73;&#x65;&#x6C;&#x65;&#x63;"
      horiz-adv-x="150" d=" M87.5 25H25V93.75H112.5V68.75H125V112.5C125 119.375 119.375 125 112.5 125H106.25V137.5H93.75V125H43.75V137.5H31.25V125H25C18.125 125 12.5 119.375 12.5 112.5L12.5 25C12.5 18.125 18.125 12.5 25 12.5H87.5V25zM37.5 81.25H62.5V56.25H37.5V81.25zM132.5 38.125H130V48.75C130 55 125 60 118.75 60S107.5 55 107.5 48.75V38.125H105C102.5 38.125 100.625 36.25 100.625 33.75V16.875C100.625 14.375 102.5 12.5 105 12.5H132.5C135 12.5 136.875 14.375 136.875 16.875V33.75C137.5 36.25 135 38.125 132.5 38.125zM118.75 21.875C116.25 21.875 114.375 23.75 114.375 26.25C114.375 28.75 116.25 30.625 118.75 30.625C121.25 30.625 123.125 28.75 123.125 26.25S121.25 21.875 118.75 21.875zM126.25 38.125H111.875V48.75C111.875 52.5 115 55.625 118.75 55.625S125.625 52.5 125.625 48.75V38.125z" />
    <glyph glyph-name="aprazamento_refazer"
      unicode="&#x61;&#x70;&#x72;&#x61;&#x7A;&#x61;&#x6D;&#x65;&#x6E;&#x74;&#x6F;&#x5F;&#x72;&#x65;&#x66;&#x61;&#x7A;&#x65;&#x72;"
      horiz-adv-x="150" d=" M87.5 38.125V13.125H112.5L102.5 23.125C106.25 26.25 111.25 28.125 116.875 28.125C126.25 28.125 135 21.875 137.5 13.125L143.75 15C140 26.25 129.375 35 116.25 35C108.75 35 102.5 32.5 97.5 28.125L87.5 38.125zM75 25H25V93.75H112.5V50H125V112.5C125 119.375 119.375 125 112.5 125H106.25V137.5H93.75V125H43.75V137.5H31.25V125H25C18.125 125 12.5 119.375 12.5 112.5V25C12.5 18.125 18.125 12.5 25 12.5H75V25zM87.5 81.25H100V68.75H87.5V81.25zM62.5 81.25H75V68.75H62.5V81.25zM37.5 56.25H50V43.75H37.5V56.25zM62.5 56.25H75V43.75H62.5V56.25z" />
    <glyph glyph-name="aprazar"
      unicode="&#x61;&#x70;&#x72;&#x61;&#x7A;&#x61;&#x72;"
      horiz-adv-x="150" d=" M113.125 60L108.75 55.625L126.875 37.5H87.5V31.25H126.875L108.75 13.125L113.125 8.75L138.75 34.375L113.125 60zM75 25H25V93.75H112.5V68.75H125V112.5C125 119.375 119.375 125 112.5 125H106.25V137.5H93.75V125H43.75V137.5H31.25V125H25C18.125 125 12.5 119.375 12.5 112.5V25C12.5 18.125 18.125 12.5 25 12.5H75V25zM87.5 81.25H100V68.75H87.5V81.25zM62.5 81.25H75V68.75H62.5V81.25zM37.5 56.25H50V43.75H37.5V56.25zM62.5 56.25H75V43.75H62.5V56.25z" />
    <glyph glyph-name="associar_cidadao"
      unicode="&#x61;&#x73;&#x73;&#x6F;&#x63;&#x69;&#x61;&#x72;&#x5F;&#x63;&#x69;&#x64;&#x61;&#x64;&#x61;&#x6F;"
      horiz-adv-x="150" d=" M106.25 43.75C114.8828125 43.75 121.875 50.7421875 121.875 59.375S114.8828125 75 106.25 75S90.625 68.0078125 90.625 59.375S97.6171875 43.75 106.25 43.75zM106.25 35.9375C95.8203125 35.9375 75 30.703125 75 20.3125V12.5H137.5V20.3125C137.5 30.703125 116.6796875 35.9375 106.25 35.9375zM43.75 130.078125C48.2804375 130.078125 51.953125 126.4054375 51.953125 121.875C51.953125 117.3445625 48.2804375 113.671875 43.75 113.671875S35.546875 117.3445625 35.546875 121.875C35.546875 126.4055 39.2195625 130.078125 43.75 130.078125M43.75 94.9219375C55.3515625 94.9219375 67.578125 89.2188125 67.578125 86.7188125V82.4219375H19.921875V86.7188125C19.921875 89.2188125 32.1484375 94.9219375 43.75 94.9219375M43.75 137.5C35.1171875 137.5 28.125 130.5078125 28.125 121.875S35.1171875 106.25 43.75 106.25S59.375 113.2421875 59.375 121.875S52.3828125 137.5 43.75 137.5zM43.75 102.3438125C33.3203125 102.3438125 12.5 97.1094375 12.5 86.7188125V75.0000625H74.9999375V86.7188125C74.9999375 97.1094375 54.1796875 102.3438125 43.75 102.3438125zM89.9993125 98.7495L94.1410625 102.89125L104.5829375 92.4201875V119.1665625H75.4156875V125H110.416375V92.4201875L120.85825 102.89125L125 98.7495L107.499625 81.249125L89.9993125 98.7495z" />
    <glyph glyph-name="atendido_medico"
      unicode="&#x61;&#x74;&#x65;&#x6E;&#x64;&#x69;&#x64;&#x6F;&#x5F;&#x6D;&#x65;&#x64;&#x69;&#x63;&#x6F;"
      horiz-adv-x="150" d=" M54.375 66.875C54.375 63.75 51.875 61.875 49.375 61.875C46.25 61.875 44.375 64.375 44.375 66.875S46.875 71.875 49.375 71.875C51.875 71.875 54.375 69.375 54.375 66.875zM73.75 71.875C70.625 71.875 68.75 69.375 68.75 66.875S71.25 61.875 73.75 61.875C76.875 61.875 78.75 64.375 78.75 66.875S76.875 71.875 73.75 71.875zM110 38.75C107.5 26.875 93.75 20 88.75 18.125C90 14.375 89.375 10 85.625 7.5C81.25 4.375 75.625 5 72.5 9.375C69.375 13.75 70 19.375 74.375 22.5C78.125 25 82.5 25 86.25 22.5C89.375 23.75 103.75 30 105.625 40C106.25 44.375 104.375 49.375 100 54.375C93.75 40 78.75 29.375 61.875 29.375C46.25 29.375 33.125 38.125 25.625 50.625C21.25 47.5 18.125 44.375 17.5 40.625C16.875 36.25 20 31.875 21.25 30C25.625 33.75 32.5 34.375 37.5 31.25L37.5 31.25L50.625 21.875L50.625 21.875L48.75 18.75L48.75 18.125C49.375 16.875 49.375 15.625 48.75 15C47.5 13.75 45.625 13.125 44.375 14.375C43.125 15.625 42.5 17.5 43.75 18.75C44.375 20 45.625 20 46.875 20L46.875 20.625L36.25 28.125C31.25 31.25 25 30 21.875 25.625L21.875 25.625C18.75 21.25 20 15 24.375 11.875L24.375 11.875L35 4.375L35 5C34.375 6.25 34.375 7.5 35 8.125C36.25 9.375 38.125 10 39.375 8.75C40.625 7.5 41.25 5.625 40 4.375C39.375 3.1250000000001 38.125 3.1250000000001 36.875 3.1250000000001L36.875 2.5L35.625 0L33.125 1.875L22.5 9.375L22.5 9.375C17.5 13.125 15.625 20 18.125 25.625C16.25 27.5 11.25 33.75 12.5 41.25C13.125 46.25 16.875 51.25 23.125 55C21.25 60 20 65.625 20 71.25C20 93.75 38.125 112.5 61.25 112.5C84.375 112.5 103.125 93.75 103.125 70.625C103.125 66.25 102.5 62.5 101.25 58.75C108.125 52.5 111.25 45.625 110 38.75zM94.375 70.625C94.375 73.75 93.75 76.875 93.125 80C76.875 76.25 59.375 82.5 50 96.25C45.625 86.25 38.125 78.125 28.125 73.75C28.125 72.5 28.125 71.25 28.125 70C28.125 51.875 43.125 36.875 61.25 36.875C80 37.5 94.375 52.5 94.375 70.625zM85 18.75C83.125 21.875 78.75 21.875 76.25 20C73.125 18.125 73.125 13.75 75 11.25C76.875 8.125 81.25 8.125 83.75 10C86.25 11.875 86.875 15.625 85 18.75zM135 143.75L108.75 117.5L95.625 130.625L86.875 121.875L100 108.75L108.75 100L117.5 108.75L143.75 135L135 143.75z" />
    <glyph glyph-name="atendidos"
      unicode="&#x61;&#x74;&#x65;&#x6E;&#x64;&#x69;&#x64;&#x6F;&#x73;"
      horiz-adv-x="150" d=" M81.2499375 100C81.2499375 113.8125 70.0624375 125 56.2499375 125S31.2499375 113.8125 31.2499375 100S42.4374375 75 56.2499375 75S81.2499375 86.1875 81.2499375 100zM6.2499375 37.5V25H106.2499375V37.5C106.2499375 54.125 72.9374375 62.5 56.2499375 62.5S6.2499375 54.125 6.2499375 37.5zM118.75 112.5C104.9429375 112.5 93.75 101.3070625 93.75 87.5S104.9429375 62.5 118.75 62.5S143.75 73.6929375 143.75 87.5S132.5570625 112.5 118.75 112.5zM112.95625 70.931375L99.83125 84.056375L105.11875 89.343875L112.95625 81.543875L132.3813125 100.931375L137.6688125 95.643875L112.95625 70.931375z" />
    <glyph glyph-name="atendimento_domiciliar"
      unicode="&#x61;&#x74;&#x65;&#x6E;&#x64;&#x69;&#x6D;&#x65;&#x6E;&#x74;&#x6F;&#x5F;&#x64;&#x6F;&#x6D;&#x69;&#x63;&#x69;&#x6C;&#x69;&#x61;&#x72;"
      horiz-adv-x="150" d=" M122.5 77.5C115.625 77.5 109.375 74.375 105 69.375C100.625 74.375 94.375 77.5 87.5 77.5C75.625 77.5 66.25 68.125 66.25 56.25C66.25 41.875 79.375 30 99.375 11.875L105 6.875L110.625 11.875C130.625 30 143.75 41.875 143.75 56.25C143.75 68.125 134.375 77.5 122.5 77.5zM123.75 39.375H109.375V25H100V39.375H85.625V48.75H100V62.5H109.375V48.125H123.75V39.375zM85.625 88.75C75.625 88.75 66.875 84.375 61.875 77.5H53.75V41.875H23.75V89.375H6.25L65.625 142.5L125 89.375H107.5V85.625C106.25 85 105 84.375 103.75 83.125C98.125 86.875 91.875 88.75 85.625 88.75z" />
    <glyph glyph-name="atendimento_externo"
      unicode="&#x61;&#x74;&#x65;&#x6E;&#x64;&#x69;&#x6D;&#x65;&#x6E;&#x74;&#x6F;&#x5F;&#x65;&#x78;&#x74;&#x65;&#x72;&#x6E;&#x6F;"
      horiz-adv-x="150" d=" M101.25 86.25H81.25V96.25C81.25 101.875 76.875 106.25 71.875 106.25H51.875C46.25 106.25 41.875 101.875 41.875 96.25V86.25H22.5C16.875 86.25 12.5 81.875 12.5 76.25L12.5 21.875C12.5 16.875 16.875 12.5 22.5 12.5H101.25C106.875 12.5 111.25 16.875 111.25 22.5V76.875C111.25 81.875 106.875 86.25 101.25 86.25zM51.875 96.25H71.875V86.25H51.875V96.25zM81.25 41.875H66.25V26.875H56.875V41.875H41.875V51.875H56.875V66.875H66.875V51.875H81.25V41.875zM87.5 95.625C94.375 105.625 104.375 110 118.125 110V98.75L137.5 118.125L118.125 137.5V126.25C98.75 123.75 90 110 87.5 95.625z" />
    <glyph glyph-name="atendimento_prescricao"
      unicode="&#x61;&#x74;&#x65;&#x6E;&#x64;&#x69;&#x6D;&#x65;&#x6E;&#x74;&#x6F;&#x5F;&#x70;&#x72;&#x65;&#x73;&#x63;&#x72;&#x69;&#x63;&#x61;&#x6F;"
      horiz-adv-x="150" d=" M136.25 6.25C140.625 6.25 143.75 9.375 143.75 13.75L143.75 65.625C143.75 70 140.625 73.125 136.25 73.125H120.625C118.75 77.5 115 80.625 110 80.625S101.25 77.5 99.375 73.125H83.75C79.375 73.125 76.25 70 76.25 65.625V13.75C76.25 9.375 79.375 6.25 83.75 6.25H136.25zM106.25 21.25L113.75 28.75H136.25V21.25H106.25zM136.25 36.25H117.5L125 43.75H136.25V36.25zM136.25 58.125V50.625H125.625L118.125 58.125C118.125 58.125 136.25 58.125 136.25 58.125zM110 73.125C111.875 73.125 113.75 71.25 113.75 69.375C113.75 67.5 111.875 65.625 110 65.625S106.25 67.5 106.25 69.375C106.25 71.875 108.125 73.125 110 73.125zM91.25 21.25C88.125 21.25 85.625 21.875 83.75 24.375C79.375 28.75 79.375 35 83.75 39.375L91.875 46.875L99.375 54.375C103.75 58.75 110 58.75 114.375 54.375C118.75 50 118.75 43.75 114.375 39.375L106.875 31.875L99.375 24.375C97.5 22.5 94.375 21.25 91.25 21.25zM86.25 37.5C83.125 34.375 83.125 29.375 86.25 26.25C87.5 25 90 24.375 91.875 24.375C93.75 24.375 95.625 25 97.5 26.25L105 33.75L93.75 45.625L86.25 37.5zM101.25 91.875V87.5H109.375C109.375 88.75 109.375 91.875 109.375 91.875C116.25 93.75 121.875 100 121.875 107.5C121.875 116.25 114.375 123.75 105.625 123.75S89.375 116.25 89.375 107.5C88.75 100 93.75 93.75 101.25 91.875zM105 118.75C111.25 118.75 116.25 113.75 116.25 107.5C116.25 101.25 111.25 96.25 105 96.25C98.75 96.25 93.75 101.25 93.75 107.5C93.75 113.75 98.75 118.75 105 118.75zM68.75 20C55 23.75 44.375 36.25 44.375 51.25H44.375V67.5C28.75 69.375 16.25 83.125 16.25 99.375H16.25V131.875V140H24.375H25.625C26.875 141.875 29.375 143.75 32.5 143.75C36.875 143.75 40.625 140 40.625 135.625S36.875 127.5 32.5 127.5C29.375 127.5 26.875 129.375 25.625 131.25H24.375V98.75H24.375C24.375 85.625 35 74.375 48.75 74.375H48.75C61.875 74.375 73.125 85 73.125 98.75V131.875H71.875C70.625 129.375 68.125 128.125 65 128.125C60 127.5 56.25 131.25 56.25 135.625S60 143.75 64.375 143.75C67.5 143.75 70 141.875 71.25 140H72.5H80.625H80.625V99.375H80.625C80.625 83.125 68.125 69.375 52.5 67.5V51.25C52.5 40.625 59.375 31.875 68.75 28.75V20z" />
    <glyph glyph-name="atendimento_social"
      unicode="&#x61;&#x74;&#x65;&#x6E;&#x64;&#x69;&#x6D;&#x65;&#x6E;&#x74;&#x6F;&#x5F;&#x73;&#x6F;&#x63;&#x69;&#x61;&#x6C;"
      horiz-adv-x="150" d=" M75 87.5035625C55.2309375 87.5035625 33.2930625 77.4938125 33.2930625 64.31475V28.613375C33.2930625 28.1964375 35.2949375 26.862 35.628875 26.695L38.2146875 24.693125C39.9660625 23.3581875 41.8014375 22.1903125 43.6363125 21.106375C47.3900625 18.9375625 51.39375 17.1021875 55.4809375 15.76775C59.401625 14.432875 63.488875 13.5154375 67.6595625 13.0149375C70.495875 12.6814375 73.331625 12.5979375 76.2514375 12.5979375C78.83725 12.5979375 81.84 12.0975 84.175375 13.348375C86.17775 14.4328125 87.512125 16.4351875 87.512125 18.854C87.512125 22.10725 85.0933125 24.7765625 82.0070625 25.1100625L70.912875 26.3615C63.3219375 27.1954375 56.2319375 29.28075 49.7254375 33.201L51.4773125 34.619375L52.8951875 35.6203125C58.65075 39.3740625 66.992125 41.709375 75.0000625 41.709375C84.592875 41.709375 94.9360625 38.372625 100.3576875 33.201C102.777 30.9491875 104.194875 28.363375 104.194875 25.5270625V19.855C108.6990625 22.1903125 112.95325 25.193625 116.7069375 28.613375V49.466875V64.31475C116.7069375 77.49375 94.7690625 87.5035625 75 87.5035625zM75 50.0508125C68.08975 50.0508125 62.4879375 55.652625 62.4879375 62.562875S68.08975 75.0749375 75 75.0749375S87.5120625 69.473125 87.5120625 62.562875S81.91025 50.0508125 75 50.0508125zM75 137.551875C85.3433125 137.551875 93.768125 129.1270625 93.768125 118.78375S85.3433125 100.015625 75 100.015625S56.231875 108.4404375 56.231875 118.78375S64.6566875 137.551875 75 137.551875z" />
    <glyph glyph-name="atendimento_validar"
      unicode="&#x61;&#x74;&#x65;&#x6E;&#x64;&#x69;&#x6D;&#x65;&#x6E;&#x74;&#x6F;&#x5F;&#x76;&#x61;&#x6C;&#x69;&#x64;&#x61;&#x72;"
      horiz-adv-x="150" d=" M131.875 62.5H93.125C90 62.5 87.5 60 87.5 56.875V18.125C87.5 15 90 12.5 93.125 12.5H131.875C135 12.5 137.5 15 137.5 18.125V56.875C137.5 60 135 62.5 131.875 62.5zM106.875 23.75L93.125 37.5L96.875 41.25L106.875 31.25L128.125 52.5L131.875 48.75L106.875 23.75zM75 34.375C75 34.375 75 34.375 75 34.375C61.25 34.375 50 45.625 50 59.375H50V71.875C37.5 73.125 28.125 83.75 28.125 96.875H28.125V121.875V128.125H34.375H35.625C36.25 130 38.125 131.25 40.625 131.25C44.375 131.25 46.875 128.75 46.875 125S43.75 118.75 40.625 118.75C38.125 118.75 36.25 120 35 121.875H34.375V96.875H34.375C34.375 86.25 42.5 78.125 53.125 78.125H53.125C63.75 78.125 71.875 86.25 71.875 96.875V121.875H70.625C70 120 68.125 118.75 65.625 118.75C61.875 118.75 59.375 121.25 59.375 125S61.875 131.25 65.625 131.25C68.125 131.25 70 130 70.625 128.125H71.875H78.125H78.125V96.875H78.125C78.125 84.375 68.75 73.75 56.25 71.875V59.375C56.25 48.75 64.375 40.625 75 40.625C75 40.625 75 40.625 75 40.625C75 40.625 75 34.375 75 34.375zM93.75 90.625V75H100V90.625C105.625 91.875 109.375 96.875 109.375 103.125C109.375 110 103.75 115.625 96.875 115.625S84.375 110 84.375 103.125C84.375 97.5 88.125 92.5 93.75 90.625zM96.875 111.875C101.875 111.875 105.625 108.125 105.625 103.125C105.625 98.125 101.875 94.375 96.875 94.375S88.125 98.125 88.125 103.125C88.125 108.125 91.875 111.875 96.875 111.875z" />
    <glyph glyph-name="avaliacao"
      unicode="&#x61;&#x76;&#x61;&#x6C;&#x69;&#x61;&#x63;&#x61;&#x6F;"
      horiz-adv-x="150" d=" M56.25 125C70 125 81.25 113.75 81.25 100S70 75 56.25 75S31.25 86.25 31.25 100S42.5 125 56.25 125zM56.25 62.5C39.375 62.5 6.25 54.375 6.25 37.5V25H106.25V37.5C106.25 54.375 73.125 62.5 56.25 62.5zM125 137.5H100C96.875 137.5 93.75 134.375 93.75 131.25V81.25C93.75 78.125 96.25 75 100 75H137.5C140.625 75 143.75 78.125 143.75 81.25V118.75L125 137.5zM120 88.125L114.375 82.5L108.75 88.125L100 96.875L105.625 102.5L114.375 93.75L131.875 111.25L137.5 105L120 88.125zM121.875 115.625V132.5L139.375 115L121.875 115.625L121.875 115.625z" />
    <glyph glyph-name="avaliacao_farmaceutica"
      unicode="&#x61;&#x76;&#x61;&#x6C;&#x69;&#x61;&#x63;&#x61;&#x6F;&#x5F;&#x66;&#x61;&#x72;&#x6D;&#x61;&#x63;&#x65;&#x75;&#x74;&#x69;&#x63;&#x61;"
      horiz-adv-x="150" d=" M107.3183125 47.996875H104.519L103.526875 48.953625C107.11975 53.1204375 109.09425 58.440375 109.0900625 63.9423125C109.0900625 76.6626875 98.7781875 86.9745625 86.0578125 86.9745625S63.0255625 76.6626875 63.0255625 63.9423125S73.3374375 40.9100625 86.0578125 40.9100625C91.76275 40.9100625 97.007 43.0006875 101.0465 46.47325L102.00325 45.4810625V42.68175L119.720375 25.0000625L125 30.27975L107.3183125 47.996875zM86.05775 47.996875C77.234625 47.996875 70.112375 55.119125 70.112375 63.94225S77.2346875 79.887625 86.05775 79.887625S102.0031875 72.7653125 102.0031875 63.94225S94.880875 47.996875 86.05775 47.996875zM63.8164375 44.2756875H31.58725V92.1230625H71.04075V89.55425C72.985125 90.697125 75.064125 91.5955 77.2583125 92.2775625C76.4614375 95.3510625 74.1203125 97.7905625 71.04075 98.5881875V103.2604375C74.6910625 103.345875 77.6275625 106.3179375 77.6275625 109.9888125V118.4676875C77.6275625 122.19275 74.607875 125.2120625 70.8831875 125.2120625H31.744375C28.0196875 125.212125 25 122.192375 25 118.4676875V109.98875C25 106.3209375 27.932375 103.3515625 31.5784375 103.261125V98.5854375C27.801875 97.603625 25 94.20125 25 90.116875V46.2810625C25 41.4318125 28.9314375 37.5 33.7810625 37.5H68.8465C69.833 37.5 70.7653125 37.6995 71.6506875 37.99975C68.6863125 39.65075 66.0488125 41.752625 63.8164375 44.2756875zM66.6549375 98.8983125H35.9641875V103.244375H66.6549375V98.8983125zM30.7014375 108.945875V119.5110625H71.9265V108.945875H30.7014375zM57.333375 71.4885625C56.7771875 69.371 56.4220625 67.1840625 56.3476875 64.90975H54.6031875V55.041875H48.024375V64.90975H38.1565V71.4885625H48.02475V81.3564375H54.6031875V71.4885625H57.333375z" />
    <glyph glyph-name="aviso_cirurgia_cancelado"
      unicode="&#x61;&#x76;&#x69;&#x73;&#x6F;&#x5F;&#x63;&#x69;&#x72;&#x75;&#x72;&#x67;&#x69;&#x61;&#x5F;&#x63;&#x61;&#x6E;&#x63;&#x65;&#x6C;&#x61;&#x64;&#x6F;"
      horiz-adv-x="150" d=" M112.4998125 68.750375C95.3121875 68.750375 81.249625 54.6878125 81.249625 37.5001875S95.3121875 6.25 112.4998125 6.25S143.75 20.3125625 143.75 37.5001875S129.6874375 68.750375 112.4998125 68.750375zM87.4996875 37.5001875C87.4996875 51.25025 98.74975 62.5003125 112.4998125 62.5003125C118.124875 62.5003125 123.437375 60.6253125 127.812375 57.1878125L92.8121875 22.187625C89.3641875 26.546125 87.491875 31.94275 87.4996875 37.5001875zM112.4998125 12.5000625C106.87475 12.5000625 101.56225 14.3750625 97.1871875 17.812625L132.187375 52.8128125C135.624875 48.4378125 137.4999375 43.12525 137.4999375 37.5001875C137.4999375 23.750125 126.249875 12.5000625 112.4998125 12.5000625zM74.999625 12.5H62.5H50V25V50H25H12.5V62.5V87.5V100H25H50V125V137.5H62.5H87.5H100V125V100H125H137.5V87.5V74.999625H125V87.5H87.5V125H62.5V87.5H25V62.5H62.5V25H74.999625V12.5z" />
    <glyph glyph-name="aviso_cirurgia_realizado"
      unicode="&#x61;&#x76;&#x69;&#x73;&#x6F;&#x5F;&#x63;&#x69;&#x72;&#x75;&#x72;&#x67;&#x69;&#x61;&#x5F;&#x72;&#x65;&#x61;&#x6C;&#x69;&#x7A;&#x61;&#x64;&#x6F;"
      horiz-adv-x="150" d=" M87.5 87.5V124.9999375H62.5V87.5H25.0000625V62.5H62.5V25.0000625H87.5V62.5H124.9999375V87.5H87.5z" />
    <glyph glyph-name="aviso_cirurgia_solicitado"
      unicode="&#x61;&#x76;&#x69;&#x73;&#x6F;&#x5F;&#x63;&#x69;&#x72;&#x75;&#x72;&#x67;&#x69;&#x61;&#x5F;&#x73;&#x6F;&#x6C;&#x69;&#x63;&#x69;&#x74;&#x61;&#x64;&#x6F;"
      horiz-adv-x="150" d=" M87.5 124.9999375V87.5H124.9999375V62.5H87.5V25.0000625H62.5V62.5H25.0000625V87.5H62.5V124.9999375H87.5M100 137.4999375H87.5H62.5H50V124.9999375V100H25.0000625H12.5000625V87.5V62.5V50H25.0000625H50V25.0000625V12.5000625H62.5H87.5H100V25.0000625V50H124.9999375H137.4999375V62.5V87.5V100H124.9999375H100V124.9999375V137.4999375L100 137.4999375z" />
    <glyph glyph-name="balanco_hidrico"
      unicode="&#x62;&#x61;&#x6C;&#x61;&#x6E;&#x63;&#x6F;&#x5F;&#x68;&#x69;&#x64;&#x72;&#x69;&#x63;&#x6F;"
      horiz-adv-x="150" d=" M99.999625 124.99925H49.999625V118.748875H56.249625V93.750375V43.75075C56.249625 33.395375 64.64425 25.00075 74.999625 25.00075S93.749625 33.395375 93.749625 43.75075V93.750375V118.748875H99.999625V124.99925zM87.499625 93.750375H62.499625V118.748875H87.499625V93.750375zM31.25 106.251125V93.75075H43.75V87.5015H31.25V71.8745625H43.75V65.6253125H31.25V50H43.75V43.751125H31.25V31.2530625H43.75V25.0038125H31.25V25.000375H25V25.0038125V31.2530625V43.751125V50V65.625375V71.874625V87.5015V93.75075V106.251125V112.500375H31.25H43.75V106.251125H31.25z" />
    <glyph glyph-name="bolsa_familia"
      unicode="&#x62;&#x6F;&#x6C;&#x73;&#x61;&#x5F;&#x66;&#x61;&#x6D;&#x69;&#x6C;&#x69;&#x61;"
      horiz-adv-x="150" d=" M97.78775 70.816125H97.2405625C93.410375 70.816125 89.5801875 68.08025 88.4858125 64.2500625L76.4480625 28.684H90.6745V6.25H104.9009375V28.684H118.033L105.99525 64.2500625C104.9009375 68.08025 101.6179375 70.2689375 97.78775 70.816125zM137.1839375 50.023625H127.334875C123.5046875 50.023625 120.7688125 47.2878125 120.7688125 43.4575625V25.4009375H125.693375V6.25H138.8254375V25.4009375H143.75V43.4575625C143.75 47.2878125 141.0141875 50.023625 137.1839375 50.023625zM101.5635 76.3054375C101.627625 76.3411875 101.69375 76.372875 101.756875 76.4103125C104.5989375 78.002 106.5425625 81.006375 106.5425625 84.4953125C106.5425625 88.0396875 104.53675 91.0838125 101.6205625 92.654125C101.6205625 92.6708125 101.617875 92.6861875 101.617875 92.702875C101.5380625 92.7429375 101.4135 92.773 101.328 92.81275C100.82675 93.0595 100.30175 93.25525 99.7543125 93.409875C99.6941875 93.42725 99.6465 93.4459375 99.585 93.4623125C98.831625 93.659375 98.0555 93.7973125 97.240625 93.7973125C92.10325 93.7973125 87.9386875 89.63275 87.9386875 84.495375C87.9386875 79.3583125 92.10325 75.1934375 97.240625 75.1934375C97.982375 75.1934375 98.6940625 75.3023125 99.3856875 75.4663125C99.5844375 75.5140625 99.7694375 75.5845625 99.962125 75.6453125C100.5215 75.8175 101.0545 76.0359375 101.5635 76.3054375zM138.9706875 60.0179375C138.9706875 60.2730625 138.8531875 60.4898125 138.8254375 60.737625C138.8254375 60.8144375 138.8254375 60.8521875 138.8254375 60.9670625C138.8100625 60.9670625 138.794375 60.9670625 138.779 60.9670625C138.29975 64.2035 135.629375 66.729 132.2593125 66.729C128.5529375 66.729 125.54825 63.7243125 125.54825 60.0179375C125.54825 59.02675 125.790375 58.1036875 126.176125 57.2566875C127.1199375 54.8578125 129.3775 53.3065625 132.2593125 53.3065625C135.1414375 53.3065625 137.3990625 54.857875 138.342875 57.2566875C138.7285625 58.103625 138.9706875 59.02675 138.9706875 60.0179375zM71.8574375 83.216875H49.9881875V50.413125H22.6520625V94.1513125H6.25L60.922625 143.3566875L102.7541875 105.7083125C100.98225 106.16875 99.1565625 106.4906875 97.2404375 106.4906875C85.0929375 106.4906875 75.24525 96.6430625 75.24525 84.495125C75.24525 78.7025 77.53025 73.4729375 81.1904375 69.5445625L72.55475 50.4130625H71.8574375V83.216875z" />
    <glyph glyph-name="bulario"
      unicode="&#x62;&#x75;&#x6C;&#x61;&#x72;&#x69;&#x6F;"
      horiz-adv-x="150" d=" M64.070875 70.5074375L52.7629375 59.1995L41.455 47.8915625C38.7256875 45.1621875 34.4364375 43.2125 29.7573125 43.2125S21.9589375 44.3825 18.449375 47.891625C12.2104375 54.1305625 12.2104375 63.878625 18.449375 70.1175625L30.537 81.4255L41.8449375 92.7334375C48.083875 98.972375 57.8319375 98.972375 64.070875 92.7334375S70.3098125 76.746375 64.070875 70.5074375zM125.0019375 90.625H81.2519375V81.25H125.0019375V90.625zM25.492875 66.2689375C22.093125 62.868625 22.093125 57.4855 25.492875 54.3685C26.909625 52.9520625 29.1765 52.101875 31.1598125 52.101875C33.143125 52.101875 35.40975 52.952 36.8265 54.3685L44.7603125 62.3023125L33.42675 74.48575L25.492875 66.2689375zM125.0019375 75H81.2519375V65.625H125.0019375V75zM131.2519375 125H18.7519375C11.8770625 125 6.2519375 119.374875 6.2519375 112.5V31.25C6.2519375 24.375125 11.8770625 18.75 18.7519375 18.75H131.2519375C138.1271875 18.75 143.7519375 24.375125 143.7519375 31.25V112.5C143.7519375 119.374875 138.127125 125 131.2519375 125zM131.2519375 31.25H75.0019375V112.5H131.2519375V31.25zM125.0019375 59.375H81.2519375V50H125.0019375V59.375z" />
    <glyph glyph-name="caminhar"
      unicode="&#x63;&#x61;&#x6D;&#x69;&#x6E;&#x68;&#x61;&#x72;"
      horiz-adv-x="150" d=" M84.375 115.6246875C91.25 115.6246875 96.875 121.2496875 96.875 128.1246875S91.25 140.6246875 84.375 140.6246875S71.875 134.9996875 71.875 128.1246875S77.5 115.6246875 84.375 115.6246875zM61.25 94.3746875L43.75 6.2496875H56.875L68.125 56.2496875L81.25 43.7496875V6.2496875H93.75V53.1246875L80.625 65.6246875L84.375 84.3746875C92.5 74.9996875 105 68.7496875 118.75 68.7496875V81.2496875C106.875 81.2496875 96.875 87.4996875 91.875 96.2496875L85.625 106.2496875C83.125 109.9996875 79.375 112.4996875 75 112.4996875C73.125 112.4996875 71.875 111.8746875 70 111.8746875L37.5 98.1246875V68.7496875H50V89.9996875L61.25 94.3746875" />
    <glyph glyph-name="casos_notificaveis"
      unicode="&#x63;&#x61;&#x73;&#x6F;&#x73;&#x5F;&#x6E;&#x6F;&#x74;&#x69;&#x66;&#x69;&#x63;&#x61;&#x76;&#x65;&#x69;&#x73;"
      horiz-adv-x="150" d=" M105 18.75C92.5 18.75 81.875 28.125 78.75 40.625C78.125 42.5 78.125 44.375 77.5 46.25C77.5 46.875 77.5 48.125 77.5 48.75C77.5 61.875 85 73.125 96.25 77.5C98.125 78.125 99.375 78.75 101.25 78.75C102.5 78.75 103.75 78.75 105 78.75C120 78.75 132.5 65 132.5 48.75C132.5 48.125 132.5 47.5 132.5 46.875L137.5 43.125C137.5 45 138.125 46.875 138.125 48.75C138.125 68.75 123.75 85 105.625 85C103.75 85 101.875 85 100 84.375C105 90.625 107.5 98.75 107.5 108.125C107.5 120.625 99.375 131.25 93.125 138.125V130.625C98.125 125 102.5 116.875 102.5 108.125C102.5 101.25 100.625 94.375 96.875 89.375C95.625 88.125 94.375 86.25 93.125 85C88.125 80.625 81.875 77.5 75.625 77.5S62.5 80 58.125 85C56.875 86.25 55.625 87.5 54.375 89.375C50.625 94.375 48.125 101.25 48.125 108.125C48.125 116.875 51.875 125 56.875 130.625V138.125C48.75 131.25 41.875 120.625 41.875 108.125C41.875 99.375 45 90.625 50 84.375C48.125 85 46.875 85 45 85C26.875 85 12.5 68.75 12.5 48.75C12.5 46.25 12.5 43.75 13.125 41.875L18.125 45.625C18.125 46.875 18.125 48.125 18.125 48.75C18.125 65.625 30.625 78.75 45.625 78.75C46.875 78.75 48.125 78.75 49.375 78.75C51.25 78.75 52.5 78.125 54.375 77.5C65 73.75 73.125 61.875 73.125 48.75C73.125 48.125 73.125 46.875 73.125 46.25C73.125 44.375 72.5 42.5 71.875 40.625C68.75 28.125 58.125 18.7500000000001 45.625 18.7500000000001C45 18.7500000000001 43.75 18.7500000000001 43.125 18.7500000000001L37.5 13.75C40 13.125 43.125 12.5000000000001 45.625 12.5000000000001C58.75 12.5000000000001 70.625 21.25 75.625 34.375C80.625 21.25 91.875 12.5000000000001 105.625 12.5000000000001C109.375 12.5000000000001 112.5 13.1250000000001 115.625 14.3750000000001L110 18.7500000000001C108.125 18.75 106.25 18.75 105 18.75zM60.625 89.375C64.375 93.125 69.375 95 75 95C80.625 95 85.625 93.125 89.375 89.375C90.625 90.625 91.875 91.875 93.125 93.75C88.125 98.125 81.875 101.25 75.625 101.25S61.875 98.125 57.5 93.75C58.125 91.875 59.375 90.625 60.625 89.375zM66.25 41.875C66.875 43.75 66.875 45.625 66.875 47.5C58.75 51.25 52.5 60 52.5 70.625C52.5 71.25 52.5 71.25 52.5 71.875C50.625 72.5 49.375 73.125 47.5 73.125C47.5 72.5 47.5 71.25 47.5 70.625C47.5 57.5 55.625 46.25 66.25 41.875zM96.875 71.875C96.875 71.25 96.875 71.25 96.875 70.625C96.875 60 91.25 51.25 82.5 47.5C82.5 45.625 83.125 43.75 83.125 41.875C93.75 45.625 101.875 57.5 101.875 70.625C101.875 71.25 101.875 72.5 101.875 73.125C100.625 73.125 98.75 72.5 96.875 71.875z" />
    <glyph glyph-name="casos_notificaveis_alerta"
      unicode="&#x63;&#x61;&#x73;&#x6F;&#x73;&#x5F;&#x6E;&#x6F;&#x74;&#x69;&#x66;&#x69;&#x63;&#x61;&#x76;&#x65;&#x69;&#x73;&#x5F;&#x61;&#x6C;&#x65;&#x72;&#x74;&#x61;"
      horiz-adv-x="150" d=" M105 18.75C92.5 18.75 81.875 28.125 78.75 40.625C78.125 42.5 78.125 44.375 77.5 46.25C77.5 46.875 77.5 48.125 77.5 48.75C77.5 61.875 85 73.125 96.25 77.5C98.125 78.125 99.375 78.75 101.25 78.75C102.5 78.75 103.75 78.75 105 78.75C120 78.75 132.5 65 132.5 48.75C132.5 48.125 132.5 47.5 132.5 46.875L137.5 43.125C137.5 45 138.125 46.875 138.125 48.75C138.125 68.75 123.75 85 105.625 85C103.75 85 101.875 85 100 84.375C105 90.625 107.5 98.75 107.5 108.125C107.5 120.625 99.375 131.25 93.125 138.125V130.625C98.125 125 102.5 116.875 102.5 108.125C102.5 101.25 100.625 94.375 96.875 89.375C95.625 88.125 94.375 86.25 93.125 85C88.125 80.625 81.875 77.5 75.625 77.5S62.5 80 58.125 85C56.875 86.25 55.625 87.5 54.375 89.375C50.625 94.375 48.125 101.25 48.125 108.125C48.125 116.875 51.875 125 56.875 130.625V138.125C48.75 131.25 41.875 120.625 41.875 108.125C41.875 99.375 45 90.625 50 84.375C48.125 85 46.875 85 45 85C26.875 85 12.5 68.75 12.5 48.75C12.5 46.25 12.5 43.75 13.125 41.875L18.125 45.625C18.125 46.875 18.125 48.125 18.125 48.75C18.125 65.625 30.625 78.75 45.625 78.75C46.875 78.75 48.125 78.75 49.375 78.75C51.25 78.75 52.5 78.125 54.375 77.5C65 73.75 73.125 61.875 73.125 48.75C73.125 48.125 73.125 46.875 73.125 46.25C73.125 44.375 72.5 42.5 71.875 40.625C68.75 28.125 58.125 18.7500000000001 45.625 18.7500000000001C45 18.7500000000001 43.75 18.7500000000001 43.125 18.7500000000001L37.5 13.75C40 13.125 43.125 12.5000000000001 45.625 12.5000000000001C58.75 12.5000000000001 70.625 21.25 75.625 34.375C80.625 21.25 91.875 12.5000000000001 105.625 12.5000000000001C109.375 12.5000000000001 112.5 13.1250000000001 115.625 14.3750000000001L110 18.7500000000001C108.125 18.75 106.25 18.75 105 18.75zM60.625 89.375C64.375 93.125 69.375 95 75 95C80.625 95 85.625 93.125 89.375 89.375C90.625 90.625 91.875 91.875 93.125 93.75C88.125 98.125 81.875 101.25 75.625 101.25S61.875 98.125 57.5 93.75C58.125 91.875 59.375 90.625 60.625 89.375zM66.25 41.875C66.875 43.75 66.875 45.625 66.875 47.5C58.75 51.25 52.5 60 52.5 70.625C52.5 71.25 52.5 71.25 52.5 71.875C50.625 72.5 49.375 73.125 47.5 73.125C47.5 72.5 47.5 71.25 47.5 70.625C47.5 57.5 55.625 46.25 66.25 41.875zM96.875 71.875C96.875 71.25 96.875 71.25 96.875 70.625C96.875 60 91.25 51.25 82.5 47.5C82.5 45.625 83.125 43.75 83.125 41.875C93.75 45.625 101.875 57.5 101.875 70.625C101.875 71.25 101.875 72.5 101.875 73.125C100.625 73.125 98.75 72.5 96.875 71.875zM131.25 100C135 100 137.5 97.5 137.5 93.75S135 87.5 131.25 87.5C127.5 87.5 125 90 125 93.75S127.5 100 131.25 100zM125 137.5H137.5V106.25H125V137.5z" />
    <glyph glyph-name="checagem"
      unicode="&#x63;&#x68;&#x65;&#x63;&#x61;&#x67;&#x65;&#x6D;"
      horiz-adv-x="150" d=" M137.5 143.75H93.75C90.29825 143.75 87.5 140.95175 87.5 137.5V93.75C87.5 90.2981875 90.29825 87.5 93.75 87.5H137.5C140.9518125 87.5 143.75 90.2981875 143.75 93.75V137.5C143.75 140.9518125 140.9518125 143.75 137.5 143.75zM109.375 100L93.75 115.625L98.15625 120.03125L109.375 108.84375L133.09375 132.5625L137.5 128.125L109.375 100zM137.184125 81.25C137.388625 79.1935 137.5 77.1099375 137.5 75C137.5 40.499875 109.500125 12.5 74.9374375 12.5C40.4373125 12.5 12.5 40.499875 12.5 75S40.4373125 137.5 74.9374375 137.5C77.0686875 137.5 79.1736875 137.389375 81.25 137.1815V124.5689375C79.1980625 124.8253125 77.121375 125 75 125C47.375125 125 25 102.624875 25 75S47.375125 25 75 25S125 47.375125 125 75C125 77.121375 124.8253125 79.1980625 124.5689375 81.25H137.184125zM78.125 106.25V73.4375L106.25 56.750125L101.5625 49.062375L68.75 68.75V106.25H78.125z" />
    <glyph glyph-name="cid"
      unicode="&#x63;&#x69;&#x64;"
      horiz-adv-x="150" d=" M48.814375 114.3375625H48.8391875V107.687375C48.8391875 106.1126875 48.73925 104.762625 48.5141875 103.6373125C48.2895 102.512375 47.9645 101.6125 47.5395 100.9125C47.1141875 100.2125 46.58925 99.712375 45.9644375 99.387375C45.3391875 99.062375 44.6144375 98.9124375 43.7893125 98.9124375S42.239375 99.062375 41.614125 99.387375C40.9893125 99.712375 40.43925 100.2125 40.01425 100.9125S39.2395 102.512375 39.0144375 103.6373125C38.789375 104.7375 38.66425 106.0875 38.66425 107.687375V114.3623125C38.66425 115.9625625 38.7641875 117.312625 38.98925 118.412375C39.2143125 119.5125625 39.5645 120.387625 39.9895 121.0625C40.4144375 121.7376875 40.9645 122.212625 41.589375 122.5124375C42.21425 122.812625 42.939375 122.9625625 43.7393125 122.9625625S45.2644375 122.812625 45.88925 122.487625C46.5145 122.1874375 47.0641875 121.7125 47.4891875 121.0376875C47.9393125 120.3625 48.2643125 119.487375 48.489375 118.387625C48.68925 117.2874375 48.814375 115.9374375 48.814375 114.3375625zM124.999625 100V25.096875C124.999625 18.140375 119.36 12.50075 112.4035 12.50075L37.499625 12.5C30.62475 12.5 24.999625 18.12475 24.999625 25V125C24.999625 131.874875 30.624375 137.5 37.499625 137.5H87.499625L124.999625 100zM58.8405625 118.6874375L66.340625 121.2375625V94.687625H71.3405625V127.187375H70.5905625L58.8405625 122.9374375V118.6874375zM48.0144375 95.437625C49.2893125 95.937375 50.3643125 96.7125 51.2641875 97.812625C52.13925 98.887625 52.83925 100.312375 53.339375 102.0625625C53.8395 103.812375 54.089375 105.9375625 54.089375 108.4373125H54.1141875V113.537625C54.1141875 116.0625625 53.8643125 118.1625625 53.3641875 119.912375C52.8644375 121.6625 52.1644375 123.0625 51.2641875 124.1375C50.3643125 125.2125 49.2645 125.987625 47.98925 126.4625625C46.714375 126.9375 45.3144375 127.187375 43.7393125 127.187375C42.189375 127.187375 40.76425 126.9375 39.514125 126.4625625C38.2393125 125.987625 37.1395 125.2125 36.23925 124.1375C35.339375 123.0625 34.639375 121.6625 34.13925 119.9123125C33.6395 118.1625 33.38925 116.0373125 33.38925 113.5375625V108.4373125C33.38925 105.9375625 33.6395 103.812375 34.13925 102.0625625C34.639375 100.3375625 35.364125 98.912375 36.2644375 97.812625C37.1643125 96.7124375 38.2645 95.9373125 39.539375 95.437625C40.81425 94.9375 42.21425 94.687625 43.7645625 94.687625C45.3391875 94.687625 46.7391875 94.9375 48.0144375 95.437625zM99.999625 62.5H81.249625V81.25H68.749625V62.5H49.999625V50H68.749625V31.25H81.249625V50H99.999625V62.5zM115.624625 93.75L81.249625 128.125V93.75H115.624625z" />
    <glyph glyph-name="circunferencia_abd"
      unicode="&#x63;&#x69;&#x72;&#x63;&#x75;&#x6E;&#x66;&#x65;&#x72;&#x65;&#x6E;&#x63;&#x69;&#x61;&#x5F;&#x61;&#x62;&#x64;"
      horiz-adv-x="150" d=" M56.25 68.75H37.5V75H56.25V68.75zM81.25 75H68.75V68.75H81.25V75zM112.5 75H93.75V68.75H112.5V75zM56.25 62.5V12.5H68.75V50H81.25V12.5H93.75V62.5H56.25zM75 112.5C81.874875 112.5 87.5 118.125125 87.5 125S81.874875 137.5 75 137.5S62.5 131.874875 62.5 125S68.125125 112.5 75 112.5zM18.75 106.25V93.75H56.25V81.25H93.75V93.75H131.25V106.25H18.75z" />
    <glyph glyph-name="circunferencia_cran"
      unicode="&#x63;&#x69;&#x72;&#x63;&#x75;&#x6E;&#x66;&#x65;&#x72;&#x65;&#x6E;&#x63;&#x69;&#x61;&#x5F;&#x63;&#x72;&#x61;&#x6E;"
      horiz-adv-x="150" d=" M137.5000625 137.4999375H81.2501875C77.8126875 137.4999375 75.0001875 134.6874375 75.0001875 131.2499375V106.25C75.0001875 102.8125 77.8126875 100 81.2501875 100H137.5000625C140.9375625 100 143.7500625 102.8125 143.7500625 106.25V131.2499375C143.7500625 134.6874375 140.9375625 137.4999375 137.5000625 137.4999375zM137.5000625 106.25H81.2501875V131.2499375H87.5001875V118.7499375H93.7501875V131.2499375H100.0001875V118.7499375H106.2501875V131.2499375H112.5001875V118.7499375H118.7501875V131.2499375H125.0001875V118.7499375H131.2501875V131.2499375H137.5001875V106.25zM66.249875 63.7496875C66.249875 60.29775 63.4518125 57.4996875 59.999875 57.4996875C56.5483125 57.4996875 53.749875 60.29775 53.749875 63.7496875S56.5483125 69.9996875 59.999875 69.9996875C63.45175 69.9996875 66.249875 67.201625 66.249875 63.7496875zM96.250125 63.7496875C96.250125 60.29775 93.4516875 57.4996875 90.000125 57.4996875C86.5481875 57.4996875 83.750125 60.29775 83.750125 63.7496875S86.5481875 69.9996875 90.000125 69.9996875C93.4516875 69.9996875 96.250125 67.201625 96.250125 63.7496875zM68.75 93.75V118.3170625C44.102875 115.232125 25 94.228375 25 68.749625C25 41.1495 47.399875 18.749625 75 18.749625S125 41.1495 125 68.749625C125 77.86675 122.523125 86.3925625 118.249125 93.75H68.75zM75 28.749875C52.949875 28.749875 34.999875 46.6995625 34.999875 68.749625C34.999875 70.1995625 35.1001875 71.6495625 35.250125 73.0495625C47.050125 78.29975 56.3999375 87.94975 61.2999375 99.8996875C72.993125 83.306125 93.57725 75.45625 113.3499375 80.0495C114.400125 76.4995625 115.0001875 72.69975 115.0001875 68.749625C115.000125 46.6995 97.050125 28.749875 75 28.749875z" />
    <glyph glyph-name="cirurgia"
      unicode="&#x63;&#x69;&#x72;&#x75;&#x72;&#x67;&#x69;&#x61;"
      horiz-adv-x="150" d=" M143.75 133.125L133.125 143.75L112.5 123.125L108.75 126.875L105 123.125L123.125 105L126.875 108.75L123.125 112.5L143.75 133.125zM104.375 115L75 85.625L109.375 91.875L111.875 107.5L104.375 115zM25 75C25 85.625 33.125 93.75 43.75 93.75S62.5 85.625 62.5 75C62.5 64.375 54.375 56.25 43.75 56.25S25 64.375 25 75zM143.75 68.75V12.5H131.25V31.25H18.75V12.5H6.25V106.25H18.75V50H68.75V75L115.625 84.375L118.75 93.75C132.5 93.75 143.75 82.5 143.75 68.75z" />
    <glyph glyph-name="clinica_assistencial"
      unicode="&#x63;&#x6C;&#x69;&#x6E;&#x69;&#x63;&#x61;&#x5F;&#x61;&#x73;&#x73;&#x69;&#x73;&#x74;&#x65;&#x6E;&#x63;&#x69;&#x61;&#x6C;"
      horiz-adv-x="150" d=" M125 106.25H100V118.75C100 125.6874375 94.4374375 131.25 87.5 131.25H62.5C55.5625625 131.25 50 125.6874375 50 118.75V106.25H25C18.0625625 106.25 12.5625625 100.6874375 12.5625625 93.75L12.5 25C12.5 18.0625625 18.0625625 12.5 25 12.5H125C131.9374375 12.5 137.5 18.0625625 137.5 25V93.75C137.5 100.6874375 131.9374375 106.25 125 106.25zM62.5 118.75H87.5V106.25H62.5V118.75zM100.0019375 54.0508125H81.2519375V35.3008125H68.7519375V54.0508125H50.0019375V66.5508125H68.7519375V85.3008125H81.2519375V66.5508125H100.0019375V54.0508125z" />
    <glyph glyph-name="comorbidade"
      unicode="&#x63;&#x6F;&#x6D;&#x6F;&#x72;&#x62;&#x69;&#x64;&#x61;&#x64;&#x65;"
      horiz-adv-x="150" d=" M75.0000625 56.2500625C87.086 56.2500625 96.8750625 66.039125 96.8750625 78.1250625S87.086 100.0000625 75.0000625 100.0000625S53.1250625 90.211 53.1250625 78.1250625S62.9140625 56.2500625 75.0000625 56.2500625zM75.0000625 45.3125C60.3984375 45.3125 31.25 37.984375 31.25 23.4375V12.5H118.7500625V23.4375C118.7500625 37.984375 89.601625 45.3125 75.0000625 45.3125zM143.75 133.3875L139.6375 137.5L105.8333125 103.6958125V122.916625H100V93.7499375H129.1666875V99.5833125H109.945875L143.75 133.3875zM40.0541875 99.5833125H20.833375V93.75H50.0000625V122.916625H44.1666875V103.69575L10.3625 137.5L6.25 133.3875L40.0541875 99.5833125z" />
    <glyph glyph-name="confirmar_chegada"
      unicode="&#x63;&#x6F;&#x6E;&#x66;&#x69;&#x72;&#x6D;&#x61;&#x72;&#x5F;&#x63;&#x68;&#x65;&#x67;&#x61;&#x64;&#x61;"
      horiz-adv-x="150" d=" M104.362875 102.708L90.577375 116.4935L85.9821875 111.8983125L104.362875 93.517625L143.75 132.9048125L139.1548125 137.5L104.362875 102.708zM127.5245625 102.5245625C133.8108125 92.77725 137.5 81.2011875 137.5 68.75C137.5 34.249875 109.500125 6.25 74.9374375 6.25C40.4373125 6.25 12.5 34.249875 12.5 68.75S40.4373125 131.25 74.9374375 131.25C79.311 131.25 83.5765625 130.7945 87.6964375 129.9415625L76.43275 118.677875C75.9525 118.691625 75.4836875 118.75 75 118.75C47.375125 118.75 25 96.374875 25 68.75S47.375125 18.75 75 18.75S125 41.125125 125 68.75C125 77.742375 122.597125 86.156875 118.4459375 93.4459375L127.5245625 102.5245625zM78.125 100V67.1875L106.25 50.500125L101.5625 42.812375L68.75 62.5V100H78.125z" />
    <glyph glyph-name="contingencia"
      unicode="&#x63;&#x6F;&#x6E;&#x74;&#x69;&#x6E;&#x67;&#x65;&#x6E;&#x63;&#x69;&#x61;"
      horiz-adv-x="150" d=" M75.0000625 74.999125C87.086 74.999125 96.8750625 84.7881875 96.8750625 96.874125S87.086 118.749125 75.0000625 118.749125S53.1250625 108.9600625 53.1250625 96.874125S62.9140625 74.999125 75.0000625 74.999125zM75.0000625 64.061625C60.3985 64.061625 31.25 56.7335 31.25 42.186625V31.249125H118.7500625V42.186625C118.7500625 56.7335 89.601625 64.061625 75.0000625 64.061625zM12.5 125V100H25V125H50V137.5H25C18.125 137.5 12.5 131.875 12.5 125zM25 49.999125H12.5V24.999125C12.5 18.124125 18.125 12.499125 25 12.499125H50V24.999125H25V49.999125zM125 24.999125H100V12.499125H125C131.875 12.499125 137.5 18.124125 137.5 24.999125V49.999125H125V24.999125zM125.0000625 137.5H100.0000625V125H125.0000625V100H137.5000625V125C137.5000625 131.875 131.8750625 137.5 125.0000625 137.5z" />
    <glyph glyph-name="controle_salas"
      unicode="&#x63;&#x6F;&#x6E;&#x74;&#x72;&#x6F;&#x6C;&#x65;&#x5F;&#x73;&#x61;&#x6C;&#x61;&#x73;"
      horiz-adv-x="150" d=" M106.2501875 74.9979375L100.7425625 69.4903125L122.53875 47.6550625H75.00125V39.8428125H122.53875L100.7425625 18.0075625L106.2501875 12.5L137.4991875 43.749L106.2501875 74.9979375zM34.3741875 137.5000625L30.5188125 133.64475L45.7760625 118.3601875H12.5V112.891625H45.7760625L30.5188125 97.607L34.374125 93.7516875L56.2483125 115.625875L34.3741875 137.5000625zM68.52675 108.8713125L64.1205 104.4650625L81.557875 86.9964375H43.5269375V80.7465H81.5579375L64.1205625 63.277875L68.5268125 58.871625L93.526625 83.8714375L68.52675 108.8713125z" />
    <glyph glyph-name="crianca"
      unicode="&#x63;&#x72;&#x69;&#x61;&#x6E;&#x63;&#x61;"
      horiz-adv-x="150" d=" M90.625 91.875C95 91.875 98.75 88.125 98.75 83.75S95 75.625 90.625 75.625S82.5 79.375 82.5 83.75S86.25 91.875 90.625 91.875zM59.375 91.875C63.75 91.875 67.5 88.125 67.5 83.75S63.75 75.625 59.375 75.625S51.25 79.375 51.25 83.75S55 91.875 59.375 91.875zM143.125 70.625C143.125 71.875 143.75 73.125 143.75 75S143.75 77.5 143.125 79.375C141.25 88.75 135 96.25 125.625 99.375C122.5 106.25 117.5 112.5 111.875 117.5C102.5 126.25 89.375 131.25 75 131.25S47.5 126.25 38.125 116.875C31.875 111.875 27.5 105.625 24.375 98.75C15 96.25 8.125 88.125 6.875 78.75C6.25 77.5 6.25 76.25 6.25 75S6.25 72.5 6.875 70.625C8.75 61.25 15 53.75 24.375 50.625C27.5 43.75 32.5 37.5 38.125 32.5C48.125 23.75 61.25 18.125 75.625 18.125S103.125 23.75 113.125 32.5C118.75 37.5 123.125 43.75 126.875 50.625C135 53.75 141.875 61.25 143.125 70.625zM118.75 62.5C118.125 62.5 117.5 62.5 116.875 62.5C115.625 58.125 113.75 54.375 111.25 50.625C103.75 39.375 90 31.25 75 31.25S46.25 39.375 38.75 51.25C36.25 55 34.375 58.75 33.125 63.125C32.5 63.125 31.875 63.125 31.25 63.125C24.375 63.125 18.75 68.75 18.75 75.625S24.375 88.125 31.25 88.125C31.875 88.125 32.5 88.125 33.125 88.125C34.375 92.5 36.25 96.25 38.75 100C46.25 110.625 60 118.75 75 118.75S103.75 110.625 111.875 98.75C114.375 95 116.25 91.25 117.5 86.875C118.125 86.875 118.75 86.875 119.375 86.875C126.25 86.875 131.875 81.25 131.875 74.375S125.625 62.5 118.75 62.5zM46.875 62.5C51.875 51.25 62.5 43.75 75 43.75S98.125 51.25 103.125 62.5H46.875z" />
    <glyph glyph-name="dengue"
      unicode="&#x64;&#x65;&#x6E;&#x67;&#x75;&#x65;"
      horiz-adv-x="150" d=" M48.75 100C48.75 100 48.75 118.125 39.375 130L41.875 131.875C50.625 120 51.875 105 51.875 100.625L63.75 95.625L61.875 93.125L48.75 100C48.75 99.375 48.75 100 48.75 100zM101.875 98.75V100C101.875 100 101.875 118.125 111.25 130L108.75 131.875C100 120 98.75 105 98.75 100.625L86.875 95.625L88.125 92.5L101.875 98.75zM81.25 87.5V77.5L107.5 70.625L111.25 54.375L125.625 45L123.75 42.5L108.125 52.5L104.375 68.125L80.625 74.375V61.875L101.25 45L91.25 30L112.5 16.875L110.625 14.375L87.5 28.125L97.5 43.75L81.25 56.875V50C81.25 46.25 78.75 43.75 75 43.75S68.75 46.25 68.75 50V58.125L51.875 43.75L61.875 28.125L38.125 13.75L36.25 16.25L57.5 29.375L48.125 43.75L68.75 62.5V75L45 67.5L41.25 51.25L25.625 41.25L23.75 43.75L38.125 53.125L41.875 69.375L68.125 77.5V87.5L68.125 87.5C67.5 86.25 65 82.5 43.75 77.5C40 76.875 36.875 76.25 33.75 76.25C22.5 76.25 16.25 81.875 14.375 83.75C11.25 86.875 10 90.625 10.625 93.75C12.5 99.375 18.125 100 20.625 100L68.75 89.375V88.75L71.875 93.75C68.125 93.75 65.625 96.25 65.625 100S68.125 106.25 71.875 106.25L75 131.25L78.125 106.25C81.875 106.25 84.375 103.75 84.375 100S81.875 93.75 78.125 93.75L80.625 88.125V88.75L128.75 99.375C131.875 100 136.875 98.75 138.75 93.125C139.375 90 138.125 86.25 135 83.125C133.125 81.25 126.875 75.625 115.625 75.625C112.5 75.625 109.375 76.25 105.625 76.875C84.375 81.875 81.875 85.625 81.25 87.5L81.25 87.5zM86.25 86.875C88.75 85.625 94.375 83.125 106.25 80C122.5 76.25 130.625 83.125 132.5 85C135 87.5 135.625 90.625 135.625 91.875C134.375 96.25 129.375 95.625 129.375 95.625L86.25 86.875zM63.75 86.875L20.625 95.625C20.625 95.625 20.625 95.625 20 95.625C18.75 96.25 15 95.625 13.75 91.875C13.125 90.625 14.375 87.5 16.875 85C18.75 82.5 27.5 75.625 43.125 80C55.625 82.5 61.25 85 63.75 86.875z" />
    <glyph glyph-name="dengue_risco"
      unicode="&#x64;&#x65;&#x6E;&#x67;&#x75;&#x65;&#x5F;&#x72;&#x69;&#x73;&#x63;&#x6F;"
      horiz-adv-x="150" d=" M131.25 100C135 100 137.5 97.5 137.5 93.75S135 87.5 131.25 87.5C127.5 87.5 125 90 125 93.75S127.5 100 131.25 100zM125 137.5H137.5V106.25H125V137.5zM48.75 99.375L61.875 93.125L63.75 95.625L51.875 100.625C51.875 105 50.625 120 41.875 131.875L39.375 130C48.75 118.125 48.75 100 48.75 99.375L48.75 99.375zM101.875 98.75V100C101.875 100 101.875 118.125 111.25 130L108.75 131.875C100 120 98.75 105 98.75 100.625L86.875 95.625L88.125 92.5L101.875 98.75zM107.5 70.625L81.25 77.5V87.5C81.875 85.625 84.375 81.875 105.625 76.875C109.375 76.25 112.5 75.625 115.625 75.625C118.75 75.625 121.25 76.25 123.75 76.875C122.5 77.5 120.625 78.125 119.375 79.375C115.625 78.75 111.25 78.75 106.25 80C94.375 83.125 88.75 85.625 86.25 86.875L112.5 92.5C112.5 93.125 112.5 93.75 112.5 93.75C112.5 94.375 112.5 95 112.5 95.625L80.625 88.75V88.125L78.125 93.75C81.875 93.75 84.375 96.25 84.375 100S81.875 106.25 78.125 106.25L75 131.25L71.875 106.25C68.125 106.25 65.625 103.75 65.625 100S68.125 93.75 71.875 93.75L68.75 88.75V89.375L20.625 100C18.125 100 12.5 99.375 10.625 93.75C10 90.625 11.25 86.875 14.375 83.75C16.25 81.875 22.5 76.25 33.75 76.25C36.875 76.25 40 76.875 43.75 77.5C65 82.5 67.5 86.25 68.125 87.5V77.5L41.875 69.375L38.125 53.125L23.75 43.75L25.625 41.25L41.25 51.25L45 67.5L68.75 75V62.5L48.125 43.75L57.5 29.375L36.25 16.25L38.125 13.75L61.875 28.125L51.875 43.75L68.75 58.125V50C68.75 46.25 71.25 43.75 75 43.75S81.25 46.25 81.25 50V56.875L97.5 43.75L87.5 28.125L110.625 14.375L112.5 16.875L91.25 30L101.25 45L80.625 61.875V74.375L104.375 68.125L108.125 52.5L123.75 42.5L125.625 45L111.25 54.375L107.5 70.625zM43.125 80C27.5 75.625 18.75 82.5 16.875 85C14.375 87.5 13.125 90.625 13.75 91.875C15 95.625 18.75 96.25 20 95.625C20.625 95.625 20.625 95.625 20.625 95.625L63.75 86.875C61.25 85 55.625 82.5 43.125 80z" />
    <glyph glyph-name="desfazer_suspender"
      unicode="&#x64;&#x65;&#x73;&#x66;&#x61;&#x7A;&#x65;&#x72;&#x5F;&#x73;&#x75;&#x73;&#x70;&#x65;&#x6E;&#x64;&#x65;&#x72;"
      horiz-adv-x="150" d=" M6.248 145.835V123.84025H28.24275L19.396 132.6870625C22.7929375 135.5219375 27.143 137.2815 31.9085625 137.2815C40.3521875 137.2806875 47.84175 131.8605625 50.481875 123.8403125L56.249375 125.7465C52.876875 135.98625 43.2725 143.391125 31.9085625 143.391125C25.4323125 143.391125 19.5670625 140.9716875 15.0459375 137.037125L6.248 145.835zM70.5825625 50C71.928375 54.5185 73.9845 58.7230625 76.621625 62.5H49.998875V75H90.0463125C96.616 78.942125 104.2781875 81.250375 112.4973125 81.250375C116.8445625 81.250375 121.035 80.595 124.9988125 79.414375V100L87.4988125 137.5H62.4988125V118.7505H25.0538125L24.998875 25C24.998875 18.125125 30.5614375 12.5 37.4363125 12.5H76.621625C71.6716875 19.589625 68.7469375 28.1975 68.7469375 37.5H49.998875V50H70.5825625zM81.248875 128.125L115.623875 93.75H81.248875V128.125zM112.4973125 68.7519375C95.24725 68.7519375 81.2469375 54.751625 81.2469375 37.5011875C81.2469375 20.251125 95.24725 6.2508125 112.4973125 6.2508125C129.74775 6.2508125 143.7476875 20.251125 143.7476875 37.5011875C143.7476875 54.7515625 129.74775 68.7519375 112.4973125 68.7519375zM128.1226875 34.376125H96.8723125V40.6265H128.1226875V34.376125z" />
    <glyph glyph-name="diabetes"
      unicode="&#x64;&#x69;&#x61;&#x62;&#x65;&#x74;&#x65;&#x73;"
      horiz-adv-x="150" d=" M133.125 51.25L122.5 62.5L111.25 51.25C108.125 48.125 106.875 44.375 106.875 40C106.875 36.25 108.125 31.875 111.25 28.75C117.5 22.5 127.5 22.5 133.75 28.75C133.75 28.75 133.75 28.75 133.75 28.75C136.875 31.875 138.125 36.25 138.125 40S136.25 48.125 133.125 51.25zM66.875 42.5L80 69.375C80.625 70.625 80.625 71.25 80.625 72.5V76.875H116.25C121.25 76.875 125 80.625 125 85.625S121.25 94.375 116.25 94.375H52.5L56.875 114.375C56.875 115 56.875 115 56.875 115.625C56.875 117.5 56.25 119.375 55 120L50.625 125.625L21.25 96.25C20 95 18.75 92.5 18.75 90V50C18.75 45.625 21.875 41.875 26.25 41.25L57.5 36.875C58.125 36.875 58.125 36.875 58.75 36.875C62.5 36.875 65.625 39.375 66.875 42.5z" />
    <glyph glyph-name="diagnostico_tratamento"
      unicode="&#x64;&#x69;&#x61;&#x67;&#x6E;&#x6F;&#x73;&#x74;&#x69;&#x63;&#x6F;&#x5F;&#x74;&#x72;&#x61;&#x74;&#x61;&#x6D;&#x65;&#x6E;&#x74;&#x6F;"
      horiz-adv-x="150" d=" M143.75 42.7984375C137.6584375 34.27025 129.13025 30.3716875 116.9471875 30.3716875V40.3618125L99.8908125 23.3054375L116.9471875 6.2490625V15.995625C134.0035625 18.43225 141.3134375 30.615375 143.75 42.7984375zM93.75 28.124625L118.75 56.25H125V100L87.5 137.5H37.5C30.625125 137.5 25 131.874875 25 125V25C25 18.125125 30.625125 12.5 37.5 12.5H93.75V28.124625zM81.25 128.125L115.625 93.75H81.25V128.125zM68.75 31.25V50H50V62.5H68.75V81.25H81.25V62.5H100V50H81.25V31.25H68.75z" />
    <glyph glyph-name="dispensa"
      unicode="&#x64;&#x69;&#x73;&#x70;&#x65;&#x6E;&#x73;&#x61;"
      horiz-adv-x="150" d=" M105 117.5C95 127.5 79.375 127.5 69.375 117.5L51.25 99.375L31.875 81.25C21.875 71.25 21.875 55.625 31.875 45.625C37.5 40 42.5 38.125 50 38.125S64.375 41.25 68.75 45.625L86.875 63.75L105 81.875C115 91.875 115 107.5 105 117.5zM63.125 50.625C60 47.5 55 45.625 50.625 45.625S41.25 47.5 38.125 50.625C30.625 57.5 30.625 69.375 38.125 76.875L55.625 95L80.625 68.125L63.125 50.625zM103.125 29.375L113.125 39.375H81.875V45.625H113.75L103.125 56.25L107.5 60.625L125 43.125L107.5 25L103.125 29.375z" />
    <glyph glyph-name="doencas_referidas"
      unicode="&#x64;&#x6F;&#x65;&#x6E;&#x63;&#x61;&#x73;&#x5F;&#x72;&#x65;&#x66;&#x65;&#x72;&#x69;&#x64;&#x61;&#x73;"
      horiz-adv-x="150" d=" M118.74925 131.24925H31.25C24.3465625 131.24925 18.75 125.6526875 18.75 118.74925V31.25C18.75 24.3465625 24.3465625 18.75 31.25 18.75H118.74925C125.6526875 18.75 131.24925 24.3465625 131.24925 31.25V118.74925C131.24925 125.6526875 125.6526875 131.24925 118.74925 131.24925zM118.74925 64.062875H85.937125V31.25075H64.062875V64.062875H31.25075V85.937125H64.062875V118.74925H85.937125V85.937125H118.74925V64.062875z" />
    <glyph glyph-name="dor"
      unicode="&#x64;&#x6F;&#x72;"
      horiz-adv-x="150" d=" M53.75 63.7496875C50 63.7496875 47.5 61.2496875 47.5 57.4996875S50 51.2496875 53.75 51.2496875S60 53.7496875 60 57.4996875S57.5 63.7496875 53.75 63.7496875zM83.75 63.7496875C80 63.7496875 77.5 61.2496875 77.5 57.4996875S80 51.2496875 83.75 51.2496875S90 53.7496875 90 57.4996875S87.5 63.7496875 83.75 63.7496875zM68.75 112.4996875C41.25 112.4996875 18.75 89.9996875 18.75 62.4996875S41.25 12.4996875 68.75 12.4996875S118.75 34.9996875 118.75 62.4996875S96.25 112.4996875 68.75 112.4996875zM68.75 22.4996875C46.875 22.4996875 28.75 40.6246875 28.75 62.4996875C28.75 63.7496875 28.75 65.6246875 28.75 66.8746875C40.625 71.8746875 50 81.8746875 55 93.7496875C66.875 76.8746875 87.5 69.3746875 106.875 73.7496875C108.125 69.9996875 108.75 66.2496875 108.75 62.4996875C108.75 40.6246875 90.625 22.4996875 68.75 22.4996875zM106.25 112.4996875H100V131.2496875H106.25V112.4996875zM125 87.4996875V93.7496875H143.75V87.4996875H125zM123.75 106.8746875L119.375 111.2496875L132.5 124.3746875L136.875 119.9996875L123.75 106.8746875z" />
    <glyph glyph-name="dose"
      unicode="&#x64;&#x6F;&#x73;&#x65;"
      horiz-adv-x="150" d=" M123.75 119.375L113.125 130C111.25 131.875 108.75 131.875 106.875 130C106.875 130 106.875 130 106.875 130L92.5 115.625L83.75 124.375L77.5 118.125L83.75 111.875L43.75 71.25V50H65L105 90L111.25 83.75L117.5 90L108.75 98.75L123.125 113.125C125.625 115 125.625 117.5 123.75 119.375C123.75 119.375 123.75 119.375 123.75 119.375zM61.25 58.75L52.5 67.5L88.75 103.75L97.5 95L61.25 58.75zM47.5 34.375L38.125 43.75L28.75 34.375C26.25 31.875 25 28.75 25 25C25 21.875 26.25 18.125 28.75 15.625C33.75 10.625 41.875 10.625 46.875 15.625C46.875 15.625 46.875 15.625 46.875 15.625C49.375 18.125 50.625 21.875 50.625 25S50 31.875 47.5 34.375z" />
    <glyph glyph-name="duplicidade"
      unicode="&#x64;&#x75;&#x70;&#x6C;&#x69;&#x63;&#x69;&#x64;&#x61;&#x64;&#x65;"
      horiz-adv-x="150" d=" M81.249625 81.250375V125H25V68.750375H68.749625V25.00075H124.99925V81.250375H81.249625zM31.25 75.000375V118.75H74.999625V81.250375H68.749625V75.000375H31.25zM118.74925 31.25075H74.999625V68.750375H81.249625V75.000375H118.74925V31.25075z" />
    <glyph glyph-name="eletivo"
      unicode="&#x65;&#x6C;&#x65;&#x74;&#x69;&#x76;&#x6F;"
      horiz-adv-x="150" d=" M45 80C56.0456875 80 65 71.0456875 65 60S56.0456875 40 45 40S25 48.9543125 25 60S33.9543125 80 45 80zM92.5 50C99.4035625 50 105 44.4035625 105 37.5S99.4035625 25 92.5 25S80 30.5964375 80 37.5S85.5964375 50 92.5 50zM95 125C111.5685625 125 125 111.5685625 125 95S111.5685625 65 95 65S65 78.4314375 65 95S78.4314375 125 95 125z" />
    <glyph glyph-name="enfermagem"
      unicode="&#x65;&#x6E;&#x66;&#x65;&#x72;&#x6D;&#x61;&#x67;&#x65;&#x6D;"
      horiz-adv-x="150" d=" M75.1514375 137.500375C54.621875 137.500375 37.7979375 127.4211875 37.7979375 127.4211875L45.267875 92.13025L105.0285625 92.6791875L112.4985 127.1361875C112.4985 127.13625 95.680625 137.500375 75.1514375 137.500375zM93.675625 108.5906875H81.225625V96.1410625H68.77675V108.5906875H56.3263125V121.0399375H68.77675V133.489625H81.225625V121.04H93.675625V108.5906875zM59.999875 57.5000625C63.4518125 57.5000625 66.249875 54.701625 66.249875 51.2500625C66.249875 47.798125 63.4518125 45.0000625 59.999875 45.0000625C56.5483125 45.0000625 53.749875 47.798125 53.749875 51.2500625C53.749875 54.701625 56.5483125 57.5000625 59.999875 57.5000625zM90.000125 45.0000625C86.5481875 45.0000625 83.750125 47.798125 83.750125 51.2500625C83.750125 54.701625 86.5481875 57.5000625 90.000125 57.5000625C93.4516875 57.5000625 96.250125 54.701625 96.250125 51.2500625C96.250125 47.7981875 93.4516875 45.0000625 90.000125 45.0000625zM125 56.25C125 28.649875 102.600125 6.25 75 6.25S25 28.649875 25 56.25C25 69.781125 30.4058125 82.0419375 39.1468125 91.0465L40.90425 83.49075H59.4730625C54.259125 73.357375 45.73025 65.213 35.250125 60.5499375C35.1001875 59.1499375 35.00025 57.6999375 35.00025 56.25C35.00025 34.199875 52.9499375 16.249875 75 16.249875S115.000125 34.199875 115.000125 56.25C115.000125 60.200125 114.4000625 63.9999375 113.349875 67.549875C95.2415 63.3434375 76.5376875 69.665875 64.520625 83.49075H107.8285L110.036875 91.885C119.2630625 82.8125 125 70.20225 125 56.25z" />
    <glyph glyph-name="equipamentos"
      unicode="&#x65;&#x71;&#x75;&#x69;&#x70;&#x61;&#x6D;&#x65;&#x6E;&#x74;&#x6F;&#x73;"
      horiz-adv-x="150" d=" M59.7734375 18.21975H127.263375V12.50025H59.7734375V18.21975zM93.518375 73.126875L85.511125 81.1341875L77.5038125 73.126875L85.511125 65.1195625L93.518375 73.126875zM138.130375 117.738875L130.123125 125.746125L122.1158125 117.7388125L130.123125 109.7315L138.130375 117.738875zM113.536625 97.720625C111.2488125 95.4328125 111.2488125 92.001125 113.536625 89.7133125S119.256125 87.4255 121.5439375 89.7133125S123.83175 95.4328125 121.5439375 97.720625C119.2560625 100.0084375 115.824375 100.0084375 113.536625 97.720625zM110.676875 86.853625C107.2451875 90.85725 107.2451875 96.57675 110.676875 100.580375C114.6805 104.584 120.4 104.584 124.403625 100.580375L126.6914375 102.8681875L115.2525 114.3071875L87.7989375 87.425625L99.2379375 75.986625L110.676875 86.853625zM133.5548125 69.6951875C133.5548125 77.7025 131.267 85.1378125 127.263375 91.42925C126.6914375 89.713375 126.1195 87.9975625 124.9755625 86.8536875C123.25975 85.1378125 120.9719375 83.9939375 118.684125 83.9939375C120.9719375 79.9903125 122.68775 74.84275 122.68775 69.6951875C122.68775 53.680625 110.104875 41.09775 94.0903125 41.09775C87.798875 41.09775 82.079375 43.3855625 76.931875 46.81725H94.0903125V58.25625H48.3344375V46.81725H60.9173125C64.349 42.2416875 68.352625 38.238 72.92825 35.37825C67.7806875 32.5185 63.205125 28.514875 59.7734375 23.93925H127.263375C123.8316875 28.5148125 119.256125 32.5185 114.1085625 35.37825C125.5475 42.241625 133.5548125 55.3964375 133.5548125 69.6951875zM36.375375 119.87475C37.094125 121.43725 37.500375 123.1560625 37.500375 124.9998125C37.500375 131.9061875 31.9065 137.5 25.0001875 137.5S12.5 131.9061875 12.5 124.9998125S18.0938125 112.499625 25.0001875 112.499625C26.8439375 112.499625 28.56275 112.905875 30.12525 113.624625L37.500375 106.2495L30.12525 98.8744375C28.56275 99.5931875 26.8439375 99.9994375 25.0001875 99.9994375C18.0938125 99.9994375 12.5 94.405625 12.5 87.49925S18.0938125 74.9990625 25.0001875 74.9990625S37.500375 80.592875 37.500375 87.49925C37.500375 89.343 37.094125 91.0618125 36.375375 92.6243125L43.7505 99.9994375L65.6258125 78.124125H75.0009375V81.2491875L36.375375 119.87475zM25.0001875 118.74975C21.548375 118.74975 18.750125 121.548 18.750125 124.9998125S21.548375 131.249875 25.0001875 131.249875S31.25025 128.451625 31.25025 124.9998125S28.452 118.74975 25.0001875 118.74975zM25.0001875 81.2491875C21.548375 81.2491875 18.750125 84.0474375 18.750125 87.49925S21.548375 93.749375 25.0001875 93.749375S31.25025 90.951125 31.25025 87.4993125S28.452 81.2491875 25.0001875 81.2491875zM43.7504375 104.687C42.8754375 104.687 42.1879375 105.3745 42.1879375 106.2495S42.8754375 107.812 43.7504375 107.812S45.3129375 107.1245 45.3129375 106.2495S44.6254375 104.687 43.7504375 104.687zM65.62575 134.3749375L46.8755 115.6246875L53.1255625 109.374625L75.000875 131.2499375V134.3749375H65.62575z" />
    <glyph glyph-name="estabelecimento_pendencia"
      unicode="&#x65;&#x73;&#x74;&#x61;&#x62;&#x65;&#x6C;&#x65;&#x63;&#x69;&#x6D;&#x65;&#x6E;&#x74;&#x6F;&#x5F;&#x70;&#x65;&#x6E;&#x64;&#x65;&#x6E;&#x63;&#x69;&#x61;"
      horiz-adv-x="150" d=" M105.9385 30.313375H112.8133125V23.4385625H105.9385V30.313375zM105.9385 57.812625H112.8133125V37.1881875H105.9385V57.812625zM109.3415625 74.9996875C90.3670625 74.9996875 75.001875 59.600125 75.001875 40.625625S90.3670625 6.2515625 109.3415625 6.2515625C128.3504375 6.2515625 143.75 21.651125 143.75 40.625625S128.3504375 74.9996875 109.3415625 74.9996875zM109.3759375 13.126375C94.182625 13.126375 81.8766875 25.43225 81.8766875 40.625625S94.182625 68.124875 109.3759375 68.124875S136.8751875 55.8189375 136.8751875 40.625625S124.56925 13.126375 109.3759375 13.126375zM109.37575 87.500375C110.4305 87.500375 111.46275 87.4115 112.5 87.3428125V87.5H131.25L68.75 143.75L6.25 87.5H25V37.5H56.25V62.5H67.932875C75.79425 77.3620625 91.3925 87.500375 109.37575 87.500375zM43.75 93.75V106.25H62.5V125H75V106.25H93.75V93.75H75V75H62.5V93.75H43.75z" />
    <glyph glyph-name="estadio"
      unicode="&#x65;&#x73;&#x74;&#x61;&#x64;&#x69;&#x6F;"
      horiz-adv-x="150" d=" M100 55C93.75 55 88.75 50 88.75 43.75S93.75 32.5 100 32.5S111.25 37.5 111.25 43.75S106.25 55 100 55zM125.625 46.875C124.375 58.75 115 68.125 103.125 69.375V75H97.5V69.375C85.625 68.125 76.25 58.75 75 46.875H68.75V41.25H74.375C75.625 29.375 85 20 96.875 18.75V12.5H102.5V18.125C114.375 19.375 123.75 28.75 125 40.625H131.25V46.25C131.25 46.875 125.625 46.875 125.625 46.875zM100 23.75C88.75 23.75 80 32.5 80 43.75S88.75 63.75 100 63.75S120 55 120 43.75C120 32.5 111.25 23.75 100 23.75zM55 125C55 131.875 60.625 137.5 67.5 137.5S80 131.875 80 125S74.375 112.5 67.5 112.5S55 118.125 55 125zM55 12.5V59.375H45.625V93.75C45.625 100.625 51.25 106.25 58.125 106.25H76.875C83.75 106.25 89.375 100.625 89.375 93.75V80C73.75 75 62.5 60.625 62.5 43.75C62.5 30.625 69.375 19.375 79.375 12.5H55z" />
    <glyph glyph-name="estetoscopio"
      unicode="&#x65;&#x73;&#x74;&#x65;&#x74;&#x6F;&#x73;&#x63;&#x6F;&#x70;&#x69;&#x6F;"
      horiz-adv-x="150" d=" M115.319 85.4774375C122.3574375 87.279875 127.583625 93.6105625 127.583625 101.2110625C127.583625 110.2119375 120.28725 117.50825 111.286875 117.50825C102.2865 117.50825 94.9901875 110.211875 94.9901875 101.2110625C94.9901875 93.6105 100.216375 87.279875 107.2548125 85.4774375V64.9236875V44.76225C107.2548125 31.3985625 96.4215 20.56525 83.0578125 20.56525C83.0321875 20.56525 83.008625 20.572625 82.983 20.572625S82.93375 20.56525 82.9081875 20.56525C69.5445 20.56525 58.7111875 31.3985625 58.7111875 44.76225V61.29175C74.6038125 63.2965 86.9408125 76.710875 86.9408125 93.146875H86.9398125V133.467875H86.9378125H78.8755625H77.6376875C76.2329375 135.834875 73.762125 137.5 70.8094375 137.5C66.356 137.5 62.74525 133.88975 62.74525 129.4358125S66.356 121.371625 70.8094375 121.371625C73.762125 121.371625 76.233 123.03675 77.6376875 125.40375H78.8755625V93.146875C78.8755625 79.7984375 68.0644375 68.9789375 54.722375 68.9543125H54.63475C41.2921875 68.9789375 30.4815625 79.7984375 30.4815625 93.146875H30.4889375V125.4036875H31.724875C33.129625 123.0366875 35.6004375 121.3715625 38.553125 121.3715625C43.0065625 121.3715625 46.6173125 124.9818125 46.6173125 129.43575S43.0065625 137.4999375 38.553125 137.4999375C35.6004375 137.4999375 33.1295625 135.8348125 31.724875 133.4678125H30.4889375H22.42475V125.403625V93.146875H22.416375C22.416375 76.710875 34.7538125 63.2965 50.6469375 61.29175V44.76225H50.646C50.646 26.944625 65.0900625 12.5000625 82.9081875 12.5000625C82.9338125 12.5000625 82.9574375 12.5074375 82.983 12.5074375S83.0321875 12.5000625 83.0578125 12.5000625C100.8759375 12.5000625 115.32 26.944625 115.32 44.76225H115.319V64.9236875V85.4774375zM100.1868125 101.2110625C100.1868125 107.341875 105.1560625 112.311625 111.286875 112.311625C117.4176875 112.311625 122.3869375 107.341875 122.3869375 101.2110625C122.3869375 95.0811875 117.4176875 90.111 111.286875 90.111C105.1560625 90.111 100.1868125 95.08125 100.1868125 101.2110625z" />
    <glyph glyph-name="estresse"
      unicode="&#x65;&#x73;&#x74;&#x72;&#x65;&#x73;&#x73;&#x65;"
      horiz-adv-x="150" d=" M116.6666875 69.7916875V98.4375H106.25L127.0833125 137.5V108.8541875H137.5L116.6666875 69.7916875zM104.03175 43.750375L104.0535 43.933875C97.3465 31.2309375 84.0835625 22.50025 68.751125 22.50025C46.701 22.50025 28.7505625 40.4503125 28.7505625 62.500375C28.7505625 63.9503125 28.8505 65.4003125 29.0008125 66.8003125C40.8008125 72.0505 50.151 81.7005 55.051 93.6508125C66.57675 77.2949375 86.7389375 69.4919375 106.2499375 73.6694375V87.5L81.2495625 87.500375L94.5659375 105.255125C87.022 109.8228125 78.20775 112.50075 68.751125 112.50075C41.150625 112.50075 18.75075 90.100875 18.75075 62.500375C18.75075 34.9003125 41.1506875 12.5 68.751125 12.5C94.340875 12.5 115.427375 31.766875 118.36775 56.5696875L104.03175 43.750375zM77.5013125 57.5004375C77.5013125 54.0485 80.299375 51.2504375 83.7513125 51.2504375C87.202875 51.2504375 90.0013125 54.0485 90.0013125 57.5004375C90.0013125 60.952 87.20325 63.7504375 83.7513125 63.7504375S77.5013125 60.952 77.5013125 57.5004375zM53.751 63.7504375C50.2990625 63.7504375 47.501 60.952 47.501 57.5004375C47.501 54.0485 50.2990625 51.2504375 53.751 51.2504375S60.001 54.0485 60.001 57.5004375C60.001 60.952 57.2029375 63.7504375 53.751 63.7504375z" />
    <glyph glyph-name="evolucao"
      unicode="&#x65;&#x76;&#x6F;&#x6C;&#x75;&#x63;&#x61;&#x6F;"
      horiz-adv-x="150" d=" M92.5 137.5H48.75C42.5 137.5 37.5 132.5 37.5 126.25L37.5 35.625C37.5 29.375 42.5 24.375 48.75 24.375H114.375C120.625 24.375 125.625 29.375 125.625 35.625V103.75L92.5 137.5zM112.5 37.5H50V125H87.5L87.5 125V100H112.5V37.5zM112.5 18.75V6.25H31.25C24.375 6.25 18.75 11.875 18.75 18.75V118.75H31.25V18.75H112.5zM68.75 81.25C68.75 74.375 74.375 68.75 81.25 68.75C88.125 68.75 93.75 74.375 93.75 81.25S88.125 93.75 81.25 93.75C74.375 93.75 68.75 88.125 68.75 81.25zM106.25 50C106.25 58.125 89.375 62.5 81.25 62.5C73.125 62.5 56.25 58.125 56.25 50V43.75H106.25V50z" />
    <glyph glyph-name="evolucao_ambulatorial"
      unicode="&#x65;&#x76;&#x6F;&#x6C;&#x75;&#x63;&#x61;&#x6F;&#x5F;&#x61;&#x6D;&#x62;&#x75;&#x6C;&#x61;&#x74;&#x6F;&#x72;&#x69;&#x61;&#x6C;"
      horiz-adv-x="150" d=" M93.74925 12.50075H18.766375C11.8538125 12.50075 6.25 18.1045625 6.25 25.0171875V125H18.75V25.00075H82.02975L93.74925 12.50075zM74.9233125 104.922125H105.431L74.9233125 135.4298125V104.922125zM143.749375 41.5560625V27.433875H122.566125V6.250625H108.4439375V27.433875H87.2606875V41.5560625H108.4439375V62.7393125H122.566125V41.5560625H143.749375zM68.749625 100.000375C61.8435 100.000375 56.249625 94.4065 56.249625 87.500375C56.249625 80.593875 61.8435 75 68.749625 75C75.656125 75 81.249625 80.593875 81.249625 87.500375C81.249625 94.4065 75.656125 100.000375 68.749625 100.000375zM74.999625 43.904875H36.093875V132.6556875H74.9229375L74.9233125 104.9213125L102.6580625 104.9205625C102.6580625 104.9205625 102.6580625 86.2125 102.6580625 68.750375H113.752375V110.4683125L80.4703125 143.750375H36.093875C29.99225 143.750375 25.0556875 138.7584375 25.0556875 132.6565L25 43.904125C25 37.8025 29.937 32.81025 36.0385625 32.81025H74.9995625V43.904875zM43.74925 56.25V49.999625H81.249625V66.701125C76.82075 68.057625 72.112625 68.75 68.749625 68.75C60.40575 68.75 43.74925 64.562625 43.74925 56.25z" />
    <glyph glyph-name="evolucao_enfermagem"
      unicode="&#x65;&#x76;&#x6F;&#x6C;&#x75;&#x63;&#x61;&#x6F;&#x5F;&#x65;&#x6E;&#x66;&#x65;&#x72;&#x6D;&#x61;&#x67;&#x65;&#x6D;"
      horiz-adv-x="150" d=" M103.125 37.5C105 37.5 106.25 36.25 106.25 34.375S105 31.25 103.125 31.25S100 32.5 100 34.375S101.25 37.5 103.125 37.5zM121.875 31.25C120 31.25 118.75 32.5 118.75 34.375S120 37.5 121.875 37.5S125 36.25 125 34.375S123.75 31.25 121.875 31.25zM143.75 38.125C143.75 20.625 130 6.875 112.5 6.875S81.25 20.625 81.25 38.125C81.25 46.875 84.375 54.375 90 60L91.25 55H103.125C100 48.75 94.375 43.75 88.125 40.625C88.125 40 88.125 38.75 88.125 38.125C88.125 24.375 99.375 13.125 113.125 13.125S138.125 24.375 138.125 38.125C138.125 40.625 137.5 43.125 136.875 45C125.625 42.5 113.75 46.25 106.25 55H133.125L134.375 60C140 54.375 143.75 46.875 143.75 38.125zM93.75 62.5L87.5 81.25C87.5 81.25 100 87.5 112.5 87.5S137.5 81.25 137.5 81.25L131.25 62.5H93.75zM109.375 84.375V78.125H103.125V71.875H109.375V65.625H115.625V71.875H121.875V78.125H115.625V84.375H109.375zM36.25 31.25H68.75V43.75H37.5V131.25H75L75 131.25V106.25H100V93.75H112.5V110L80 143.75H36.25C30 143.75 25 138.75 25 132.5V41.875C25 36.25 30 31.25 36.25 31.25zM68.75 100C61.875 100 56.25 94.375 56.25 87.5S61.875 75 68.75 75S81.25 80.625 81.25 87.5S75.625 100 68.75 100zM68.75 25H18.75V125H6.25V25C6.25 18.125 11.875 12.5 18.75 12.5H75L68.75 25zM43.75 56.25V50H68.75L75 68.125C72.5 68.75 70.625 68.75 68.75 68.75C60.625 68.75 43.75 64.375 43.75 56.25zM68.75 68.75C66.875 68.75 65 68.75 62.5 68.125V50H68.75L81.25 66.875C81.25 66.875 71.875 68.75 68.75 68.75z" />
    <glyph glyph-name="evolucao_fisioterapia"
      unicode="&#x65;&#x76;&#x6F;&#x6C;&#x75;&#x63;&#x61;&#x6F;&#x5F;&#x66;&#x69;&#x73;&#x69;&#x6F;&#x74;&#x65;&#x72;&#x61;&#x70;&#x69;&#x61;"
      horiz-adv-x="150" d=" M88.27975 25.00075H18.75V125H6.25V25.0171875C6.25 18.1045625 11.8538125 12.5008125 18.766375 12.5008125H99.9991875V13.28125L88.27975 25.00075zM74.9233125 43.904875H36.093875V132.6556875H74.9229375L74.9233125 104.9213125L102.6580625 104.9205625C102.6580625 104.9205625 102.6580625 90.1405 102.6580625 75.390625H113.752375V110.4683125L80.4703125 143.750375H36.093875C29.99225 143.750375 25.0556875 138.7584375 25.0556875 132.6565L25 43.904125C25 37.8025 29.937 32.81025 36.0385625 32.81025H74.9233125V43.904875zM43.74925 56.25V49.999625H74.9233125V68.1781875C72.6539375 68.55125 70.512375 68.75 68.749625 68.75C60.40575 68.75 43.74925 64.562625 43.74925 56.25zM68.749625 100.0004375C75.65325 100.0004375 81.24975 94.4039375 81.24975 87.5003125S75.65325 75.0001875 68.749625 75.0001875S56.2495 80.5966875 56.2495 87.5003125S61.846 100.0004375 68.749625 100.0004375zM139.6815625 26.3635625L143.699875 30.381875L139.6815625 34.4001875L129.6498125 24.3684375L105.5679375 48.4503125L115.5996875 58.4820625L111.581375 62.500375L107.5630625 58.4820625L103.54475 62.500375L97.5313125 56.4869375L93.513 60.50525L89.4946875 56.4869375L93.513 52.468625L87.4995625 46.4551875L91.517875 42.436875L87.4995625 38.4185625L91.517875 34.40025L101.549625 44.432L125.6315 20.350125L115.59975 10.318375L119.6180625 6.3000625L123.636375 10.318375L127.6546875 6.3000625L133.668125 12.3135L137.6864375 8.2951875L141.70475 12.3135L137.6864375 16.3318125L143.699875 22.34525L139.6815625 26.3635625z" />
    <glyph glyph-name="evolucao_outros"
      unicode="&#x65;&#x76;&#x6F;&#x6C;&#x75;&#x63;&#x61;&#x6F;&#x5F;&#x6F;&#x75;&#x74;&#x72;&#x6F;&#x73;"
      horiz-adv-x="150" d=" M93.74925 12.50075H18.766375C11.8538125 12.50075 6.25 18.1045625 6.25 25.0171875V125H18.75V25.00075H82.02975L93.74925 12.50075zM105.93725 68.125375C105.93725 64.344125 109.031 61.2503125 112.8123125 61.2503125S119.687375 64.3440625 119.687375 68.125375C119.687375 71.906625 116.593625 75.0004375 112.8123125 75.0004375S105.93725 71.9066875 105.93725 68.125375zM143.75 57.8128125H81.874625V50.93775H102.49975V6.25H109.3748125V26.875125H116.249875V6.25H123.1249375V50.9378125H143.75V57.8128125zM43.74925 56.25V49.999625H74.999625V68.1651875C72.702 68.5466875 70.531875 68.75 68.749625 68.75C60.40575 68.75 43.74925 64.562625 43.74925 56.25zM74.999625 43.904875H36.093875V132.6556875H74.9229375L74.9233125 104.9213125L102.6580625 104.9205625C102.6580625 104.9205625 102.6580625 98.5935 102.6580625 87.0830625H113.752375V110.4683125L80.4703125 143.750375H36.093875C29.99225 143.750375 25.0556875 138.7584375 25.0556875 132.6565L25 43.904125C25 37.8025 29.937 32.81025 36.0385625 32.81025H74.9995625V43.904875zM68.749625 100.000375C61.8435 100.000375 56.249625 94.4065 56.249625 87.500375C56.249625 80.593875 61.8435 75 68.749625 75C75.656125 75 81.249625 80.593875 81.249625 87.500375C81.249625 94.4065 75.656125 100.000375 68.749625 100.000375z" />
    <glyph glyph-name="exame"
      unicode="&#x65;&#x78;&#x61;&#x6D;&#x65;"
      horiz-adv-x="150" d=" M87.5 83.75V118.75H93.75V125H56.25V118.75H62.5V83.75L38.75 38.75C35.625 32.5 40 25 46.875 25H103.125C110 25 115 32.5 111.25 38.75L87.5 83.75zM75 50C66.25 41.25 58.75 47.5 55 52.5L68.75 81.875V118.75H81.25V81.875L95 52.5C91.25 55.625 83.75 58.75 75 50z" />
    <glyph glyph-name="exame_bloqueio"
      unicode="&#x65;&#x78;&#x61;&#x6D;&#x65;&#x5F;&#x62;&#x6C;&#x6F;&#x71;&#x75;&#x65;&#x69;&#x6F;"
      horiz-adv-x="150" d=" M68.75 77.5V112.5H75V118.75H37.5V112.5H43.75V77.5L20 32.5C16.875 26.25 21.25 18.75 28.125 18.75H84.375C91.25 18.75 96.25 26.25 92.5 32.5L68.75 77.5zM56.25 43.75C47.5 35 40 41.25 36.25 46.25L50 75.625V112.5H62.5V75.625L76.25 46.25C72.5 49.375 65 52.5 56.25 43.75zM109.3748125 137.5C93.9059375 137.5 81.249625 124.8436875 81.249625 109.3748125S93.9059375 81.249625 109.3748125 81.249625S137.5 93.9059375 137.5 109.3748125S124.8436875 137.5 109.3748125 137.5zM86.874625 109.3748125C86.874625 121.749875 96.9996875 131.875 109.3748125 131.875C114.437375 131.875 119.218625 130.1875 123.1561875 127.0936875L91.6559375 95.5934375C88.5526875 99.516125 86.867625 104.373125 86.874625 109.3748125zM109.3748125 86.874625C104.31225 86.874625 99.531 88.562125 95.5934375 91.6559375L127.0936875 123.1561875C130.1874375 119.2186875 131.875 114.437375 131.875 109.3748125C131.8749375 96.9996875 121.749875 86.874625 109.3748125 86.874625z" />
    <glyph glyph-name="exame_comp"
      unicode="&#x65;&#x78;&#x61;&#x6D;&#x65;&#x5F;&#x63;&#x6F;&#x6D;&#x70;"
      horiz-adv-x="150" d=" M68.75 77.5176875V112.5H75V118.74925H37.5V112.5H43.75V77.5176875L19.8520625 32.576375C16.5195625 26.3095625 21.0613125 18.75075 28.1585625 18.75075H84.4379375C91.4913125 18.75075 96.00525 26.2630625 92.6933125 32.4909375L68.75 77.5176875zM56.25 43.75C47.5936875 35.0936875 39.8983125 41.4024375 35.98025 46.102875L50.0004375 75.5145625L50 112.5H62.5L62.4965625 75.514625L76.4194375 46.3111875C72.414 49.1569375 64.7720625 52.2720625 56.25 43.75zM131.2755625 105.0486875H113.749V87.522125H105.0745625V105.0486875H87.5485V113.7225625H105.0745625V131.249125H113.749V113.7225625H131.2755625V105.0486875z" />
    <glyph glyph-name="exame_refazer"
      unicode="&#x65;&#x78;&#x61;&#x6D;&#x65;&#x5F;&#x72;&#x65;&#x66;&#x61;&#x7A;&#x65;&#x72;"
      horiz-adv-x="150" d=" M68.75 77.5V112.5H75V118.75H37.5V112.5H43.75V77.5L20 32.5C16.875 26.25 21.25 18.75 28.125 18.75H84.375C91.25 18.75 96.25 26.25 92.5 32.5L68.75 77.5zM56.25 43.75C47.5 35 40 41.25 36.25 46.25L50 75.625V112.5H62.5V75.625L76.25 46.25C72.5 49.375 65 52.5 56.25 43.75zM126.5021875 104.2519375C120.8509375 109.1700625 113.519625 112.1941875 105.424625 112.1941875C91.2201875 112.1941875 79.215125 102.938375 74.999625 90.139125L82.20875 87.7564375C85.50875 97.7815 94.8704375 104.556375 105.424625 104.557375C111.3813125 104.557375 116.81875 102.358 121.0648125 98.8145L110.00675 87.7564375H137.49925V115.2489375L126.5021875 104.2519375z" />
    <glyph glyph-name="exame_revisado"
      unicode="&#x65;&#x78;&#x61;&#x6D;&#x65;&#x5F;&#x72;&#x65;&#x76;&#x69;&#x73;&#x61;&#x64;&#x6F;"
      horiz-adv-x="150" d=" M75 77.5V112.5H81.25V118.75H43.75V112.5H50V77.5L26.25 32.5C23.125 26.25 27.5 18.75 34.375 18.75H90.625C97.5 18.75 102.5 26.25 98.75 32.5L75 77.5zM62.5 43.75C53.75 35 46.25 41.25 42.5 46.25L56.25 75.625V112.5H68.75V75.625L82.5 46.25C78.75 49.375 71.25 52.5 62.5 43.75zM108.75 69.375L113.75 74.375L94.375 93.75H136.875V100.625H94.375L113.75 120L108.75 125L80.625 96.875L108.75 69.375z" />
    <glyph glyph-name="exame_solicitado"
      unicode="&#x65;&#x78;&#x61;&#x6D;&#x65;&#x5F;&#x73;&#x6F;&#x6C;&#x69;&#x63;&#x69;&#x74;&#x61;&#x64;&#x6F;"
      horiz-adv-x="150" d=" M75 77.5V112.5H81.25V118.75H43.75V112.5H50V77.5L26.25 32.5C23.125 26.25 27.5 18.75 34.375 18.75H90.625C97.5 18.75 102.5 26.25 98.75 32.5L75 77.5zM62.5 43.75C53.75 35 46.25 41.25 42.5 46.25L56.25 75.625L56.25 112.5H68.75L68.75 75.625L82.5 46.25C78.75 49.375 71.25 52.5 62.5 43.75zM108.75 125L103.75 120L123.125 100.625H80.625V93.75H123.125L103.75 74.375L108.75 69.375L136.875 97.5L108.75 125z" />
    <glyph glyph-name="exibir_imagem"
      unicode="&#x65;&#x78;&#x69;&#x62;&#x69;&#x72;&#x5F;&#x69;&#x6D;&#x61;&#x67;&#x65;&#x6D;"
      horiz-adv-x="150" d=" M62.5 125C62.5 131.875 68.125 137.5 75 137.5S87.5 131.875 87.5 125S81.875 112.5 75 112.5S62.5 118.125 62.5 125zM84.375 106.25H65.625C58.75 106.25 53.125 100.625 53.125 93.75V59.375H62.5V12.5H87.5V59.375H96.875V93.75C96.875 100.625 91.25 106.25 84.375 106.25zM87.5 84.375H78.125V71.875H87.5V65.625H78.125V56.25H71.875V65.625H62.5V71.875H71.875V84.375H62.5V90.625H71.875V100H78.125V90.625H87.5V84.375z" />
    <glyph glyph-name="fadiga"
      unicode="&#x66;&#x61;&#x64;&#x69;&#x67;&#x61;"
      horiz-adv-x="150" d=" M139.28575 109.375C139.28575 100.7455625 132.2901875 93.75 123.66075 93.75C115.0313125 93.75 108.03575 100.7455625 108.03575 109.375S123.66075 137.5 123.66075 137.5S139.28575 118.0044375 139.28575 109.375zM83.7513125 63.7504375C80.299375 63.7504375 77.5013125 60.952 77.5013125 57.5004375C77.5013125 54.0485 80.299375 51.2504375 83.7513125 51.2504375C87.202875 51.2504375 90.0013125 54.0485 90.0013125 57.5004375C90.0013125 60.952 87.2031875 63.7504375 83.7513125 63.7504375zM53.751 63.7504375C50.2990625 63.7504375 47.501 60.952 47.501 57.5004375C47.501 54.0485 50.2990625 51.2504375 53.751 51.2504375S60.001 54.0485 60.001 57.5004375C60.001 60.952 57.2029375 63.7504375 53.751 63.7504375zM114.938375 81.634125C117.38625 75.737375 118.7515625 69.2790625 118.7515625 62.500375C118.7515 34.9003125 96.35125 12.5 68.751125 12.5C41.150625 12.5 18.75075 34.9003125 18.75075 62.500375C18.75075 90.100875 41.150625 112.50075 68.751125 112.50075C77.888875 112.50075 86.4295625 110.0051875 93.803375 105.718625C94.0655 93.461625 103.1284375 83.4545 114.938375 81.634125zM108.7513125 62.500375C108.7513125 66.4505 108.15125 70.2503125 107.1014375 73.800625C87.3283125 69.2069375 66.74425 77.05725 55.0510625 93.6508125C50.1510625 81.7005 40.800875 72.0505 29.000875 66.8003125C28.8505625 65.4003125 28.750625 63.950375 28.750625 62.500375C28.750625 40.45025 46.7010625 22.50025 68.7511875 22.50025S108.7513125 40.4503125 108.7513125 62.500375z" />
    </font>
</defs>
</svg>
